<?xml version="1.0"?>
<svg width="300" height="600" xmlns="http://www.w3.org/2000/svg" xmlns:svg="http://www.w3.org/2000/svg" clip-rule="evenodd" version="1.1" xml:space="preserve">
 <!-- Created with SVG-edit - https://github.com/SVG-Edit/svgedit-->
 <defs>
  <radialGradient cy="0.2" id="svg_1" r="0.7" spreadMethod="pad">
   <stop id="jq_stop_4243" offset="0" stop-color="#7933a6"/>
   <stop id="jq_stop_7899" offset="1" stop-color="#5133a6" stop-opacity="1"/>
  </radialGradient>undefinedundefinedundefinedundefined</defs>
 <g class="layer">
  <title>Layer 1</title>
  <!-- Created with SVG-edit - https://github.com/SVG-Edit/svgedit-->
  <style type="text/css">.st0{fill:#0F0F1E;}
	.st1{fill:#151524;}
	.st2{fill:none;stroke:#FFFFFF;stroke-width:2;stroke-miterlimit:10;}
	.st3{fill:#FFFFFF;}
	.st4{fill:#EA001B;}
	.st5{fill:#F79F1A;}
	.st6{fill:#6034A6;}
	.st7{fill:#6834A6;}
	.st8{fill:#AEAEB3;}
	.st9{fill:#50E800;}</style>
  <style type="text/css">.st0{fill:#0F0F1E;}
	.st1{fill:#151524;}
	.st2{fill:none;stroke:#FFFFFF;stroke-width:2;stroke-miterlimit:10;}
	.st3{fill:#FFFFFF;}
	.st4{fill:#EA001B;}
	.st5{fill:#F79F1A;}
	.st6{fill:#6034A6;}
	.st7{fill:#6834A6;}
	.st8{fill:#AEAEB3;}
	.st9{fill:#50E800;}</style>
  <!-- Created with SVG-edit - https://github.com/SVG-Edit/svgedit-->
  <style type="text/css">.st0{fill:#0F0F1E;}
	.st1{fill:#151524;}
	.st2{fill:none;stroke:#FFFFFF;stroke-width:2;stroke-miterlimit:10;}
	.st3{fill:#FFFFFF;}
	.st4{fill:#EA001B;}
	.st5{fill:#F79F1A;}
	.st6{fill:#6034A6;}
	.st7{fill:#6834A6;}
	.st8{fill:#AEAEB3;}
	.st9{fill:#50E800;}</style>
  <style type="text/css">.st0{fill:#0F0F1E;}
	.st1{fill:#151524;}
	.st2{fill:none;stroke:#FFFFFF;stroke-width:2;stroke-miterlimit:10;}
	.st3{fill:#FFFFFF;}
	.st4{fill:#EA001B;}
	.st5{fill:#F79F1A;}
	.st6{fill:#6034A6;}
	.st7{fill:#6834A6;}
	.st8{fill:#AEAEB3;}
	.st9{fill:#50E800;}</style>
  <!-- Created with SVG-edit - https://github.com/SVG-Edit/svgedit-->
  <style type="text/css">.st0{fill:#0F0F1E;}
	.st1{fill:#151524;}
	.st2{fill:none;stroke:#FFFFFF;stroke-width:2;stroke-miterlimit:10;}
	.st3{fill:#FFFFFF;}
	.st4{fill:#EA001B;}
	.st5{fill:#F79F1A;}
	.st6{fill:#6034A6;}
	.st7{fill:#6834A6;}
	.st8{fill:#AEAEB3;}
	.st9{fill:#50E800;}</style>
  <line class="st2" id="svg_204" x1="23.8" x2="43.99" y1="44.4" y2="44.4"/>
  <line class="st2" id="svg_203" x1="23.8" x2="37.19" y1="37.32" y2="37.32"/>
  <line class="st2" id="svg_202" x1="23.8" x2="43.99" y1="30.16" y2="30.16"/>
  <path class="st3" d="m119.09,83.38l0,-2.53l4.83,0l0,11.7l-3.07,0l0,-9.2l-1.76,0l0,0.02l0,0.01z" id="svg_166"/>
  <path class="st3" d="m126.23,83.38l0,-2.53l4.83,0l0,11.7l-3.17,0l0,-9.2l-1.64,0l0,0.02l-0.01,0l-0.01,0.01z" id="svg_165"/>
  <path class="st3" d="m137.2,90.04l-1.86,4.64l-1.86,0l0.99,-4.64l2.75,0l-0.03,0l0.01,0z" id="svg_164"/>
  <path class="st3" d="m139.62,89.94c1.1,-0.92 2.08,-1.61 2.75,-2.13c0.65,-0.5 1.2,-1.12 1.64,-1.71c0.43,-0.5 0.65,-1.12 0.65,-1.81c0,-0.4 -0.11,-0.72 -0.33,-1.02c-0.21,-0.3 -0.65,-0.4 -0.99,-0.4c-0.43,0 -0.89,0.1 -1.1,0.4c-0.21,0.4 -0.43,0.82 -0.33,1.32l-2.86,0c0,-0.82 0.21,-1.61 0.65,-2.33c0.33,-0.6 0.89,-1.12 1.64,-1.32c0.65,-0.3 1.42,-0.4 2.18,-0.4c1.2,-0.1 2.31,0.3 3.17,1.02c0.78,0.72 1.1,1.61 1.1,2.53c0,1.22 -0.43,2.33 -1.32,3.23c-0.99,1.12 -2.08,2.01 -3.29,2.93l4.72,0l0,2.23l-8.79,0l0,-2.01l0.43,-0.5l0.04,-0.02l-0.03,0l0.05,-0.01l0.02,0z" id="svg_163"/>
  <path class="st3" d="m150.91,82.16c1.76,-1.91 4.93,-2.13 7.04,-0.5c0.21,0.2 0.33,0.3 0.55,0.5c0.89,1.32 1.2,2.83 1.2,4.35c0.11,1.51 -0.33,3.03 -1.2,4.45c-1.76,1.91 -4.93,2.13 -7.04,0.5c-0.21,-0.2 -0.33,-0.3 -0.55,-0.5c-0.89,-1.32 -1.2,-2.83 -1.2,-4.45c0,-1.51 0.33,-3.03 1.2,-4.35zm5.38,1.91c-0.43,-0.82 -1.54,-1.12 -2.42,-0.72c-0.33,0.2 -0.55,0.4 -0.78,0.72c-0.33,0.82 -0.43,1.61 -0.43,2.53c0,0.6 0,1.22 0.11,1.81c0.11,0.4 0.21,0.82 0.55,1.22c0.33,0.3 0.78,0.5 1.32,0.4c0.43,0 0.99,-0.1 1.32,-0.4c0.33,-0.3 0.55,-0.72 0.55,-1.22c0.11,-0.6 0.11,-1.22 0.11,-1.81c0.11,-0.92 0,-1.71 -0.33,-2.53l0.03,0l-0.01,0l-0.03,0l0.01,0z" id="svg_162"/>
  <path class="st3" d="m169.36,92.25c-0.33,-0.3 -0.55,-0.72 -0.43,-1.12c0,-0.4 0.21,-0.82 0.43,-1.12c0.33,-0.3 0.78,-0.4 1.32,-0.4c0.43,0 0.89,0.1 1.32,0.4c0.33,0.3 0.55,0.72 0.55,1.12c0,0.4 -0.21,0.82 -0.55,1.12c-0.33,0.3 -0.78,0.4 -1.32,0.4c-0.55,0.1 -0.99,-0.1 -1.32,-0.4z" id="svg_160"/>
  <path class="st3" d="m183.42,83.18l-5.49,0l0,2.33c0.33,-0.3 0.65,-0.5 0.99,-0.6c0.43,-0.1 0.89,-0.2 1.32,-0.2c0.78,0 1.54,0.2 2.18,0.5c0.55,0.4 0.99,0.82 1.32,1.42c0.21,0.6 0.43,1.22 0.43,1.91c0.11,1.12 -0.33,2.23 -1.2,3.03c-0.89,0.82 -2.08,1.22 -3.29,1.12c-0.89,0 -1.64,-0.1 -2.42,-0.4c-0.65,-0.3 -1.2,-0.72 -1.64,-1.22c-0.33,-0.5 -0.55,-1.22 -0.65,-1.81l2.96,0c0.11,0.3 0.21,0.6 0.55,0.82c0.33,0.2 0.65,0.3 1.1,0.3c0.43,0 0.89,-0.1 1.2,-0.5c0.33,-0.4 0.43,-0.82 0.43,-1.32c0,-0.4 -0.11,-0.92 -0.43,-1.22c-0.33,-0.3 -0.78,-0.5 -1.2,-0.4c-0.33,0 -0.65,0.1 -0.99,0.3c-0.21,0.2 -0.43,0.4 -0.55,0.72l-2.86,0l0,-7.07l8.22,0l0,2.33l0.03,-0.04l0.01,-0.01l0,0.01l-0.02,0z" id="svg_159"/>
  <path class="st3" d="m191.21,90.44c0.55,0 1.1,-0.3 1.32,-0.82c0.33,-0.82 0.43,-1.61 0.43,-2.43c-0.33,0.3 -0.65,0.6 -1.1,0.82c-0.43,0.2 -0.99,0.3 -1.54,0.3c-0.65,0 -1.42,-0.1 -1.97,-0.4c-0.55,-0.3 -1.1,-0.72 -1.32,-1.32c-0.33,-0.6 -0.55,-1.32 -0.55,-2.01c0,-0.72 0.21,-1.42 0.55,-2.13c0.33,-0.6 0.89,-1.12 1.54,-1.42c0.78,-0.3 1.54,-0.5 2.31,-0.5c1.42,-0.1 2.75,0.4 3.61,1.51c0.78,1.32 1.1,2.83 0.99,4.35c0,1.22 -0.11,2.33 -0.43,3.43c-0.33,1.71 -2.08,2.93 -4.06,2.83c-0.78,0 -1.54,-0.1 -2.31,-0.5c-0.55,-0.3 -1.1,-0.72 -1.42,-1.32c-0.33,-0.5 -0.55,-1.12 -0.55,-1.71l2.75,0c0.11,0.82 0.89,1.42 1.76,1.32c-0.11,0 0,0 0,0l-0.01,0l0.01,0l-0.01,0zm0.99,-4.84c0.33,-0.3 0.43,-0.72 0.43,-1.12c0,-0.4 -0.11,-0.92 -0.43,-1.22c-0.33,-0.3 -0.78,-0.4 -1.2,-0.4c-0.43,0 -0.89,0.1 -1.2,0.4c-0.33,0.3 -0.43,0.72 -0.43,1.22c0,0.4 0.11,0.82 0.43,1.12c0.33,0.3 0.78,0.4 1.32,0.4c0.33,0.1 0.78,-0.1 1.1,-0.4l-0.01,0l-0.01,0z" id="svg_158"/>
  <path class="st3" d="m34.23,468.65l0,-8.58l4.28,0c0.43,0 0.89,0.1 1.32,0.2c0.33,0.2 0.78,0.4 0.99,0.72c0.33,0.3 0.55,0.6 0.65,1.02c0.11,0.3 0.21,0.72 0.21,1.12c0,0.3 0,0.6 -0.21,1.02c-0.11,0.3 -0.21,0.6 -0.43,0.82c-0.21,0.3 -0.43,0.5 -0.78,0.72l1.97,3.13l-2.86,0l-1.64,-2.63l-1.1,0l0,2.63l-2.42,-0.1l0.03,-0.04l0,-0.01l0,-0.02l-0.01,0zm2.65,-4.64l1.54,0c0.11,0 0.21,0 0.33,-0.1c0.11,-0.1 0.21,-0.2 0.21,-0.3c0.11,-0.2 0.11,-0.3 0.11,-0.5c0,-0.2 0,-0.3 -0.11,-0.5c-0.11,-0.1 -0.11,-0.2 -0.21,-0.3c-0.11,-0.1 -0.21,-0.1 -0.33,-0.1l-1.54,0l0,1.81l0,-0.02l0,0.01z" id="svg_156"/>
  <path class="st3" d="m34.23,517.14l0,-8.58l4.28,0c0.43,0 0.89,0.1 1.32,0.3c0.33,0.2 0.78,0.4 0.99,0.72c0.33,0.3 0.55,0.6 0.65,1.02c0.11,0.3 0.21,0.72 0.21,1.12c0,0.3 -0.11,0.6 -0.21,0.92c-0.11,0.3 -0.21,0.6 -0.43,0.82c-0.21,0.3 -0.43,0.5 -0.78,0.72l1.97,3.13l-2.86,0l-1.64,-2.63l-1.1,0l0,2.63l-2.42,-0.1l0.03,-0.04l0,-0.01l0,-0.02l-0.01,0zm2.65,-4.64l1.54,0c0.11,0 0.21,0 0.33,-0.1c0.11,-0.1 0.21,-0.2 0.21,-0.3c0.11,-0.2 0.11,-0.3 0.11,-0.5c0,-0.2 0,-0.3 -0.11,-0.5c-0.11,-0.1 -0.11,-0.2 -0.21,-0.3c-0.11,-0.1 -0.21,-0.1 -0.33,-0.1l-1.54,0l0,1.81l0,-0.02l0,0.01z" id="svg_155"/>
  <path class="st3" d="m34.46,419.68l0,-8.58l3.61,0c0.89,0 1.76,0.2 2.65,0.6c0.65,0.4 1.2,0.92 1.54,1.51c0.78,1.42 0.78,3.03 0,4.45c-0.33,0.6 -0.99,1.12 -1.64,1.51c-0.78,0.4 -1.64,0.5 -2.53,0.5l-3.61,0l0,0.02l0,-0.01l-0.01,0l-0.01,0zm5.72,-4.35c0,-0.4 -0.11,-0.82 -0.21,-1.22c-0.33,-0.72 -1.1,-1.12 -1.86,-1.02l-0.99,0l0,4.45l0.99,0c0.43,0 0.78,-0.1 1.1,-0.3c0.33,-0.2 0.55,-0.5 0.78,-0.82c0.11,-0.3 0.21,-0.72 0.21,-1.12l0,0l-0.03,0.02l0,0.01l0.01,0z" id="svg_154"/>
  <path class="st3" d="m34.23,565.82l0,-8.68l3.61,0c0.89,0 1.76,0.2 2.65,0.6c0.65,0.4 1.2,0.92 1.54,1.51c0.78,1.42 0.78,3.03 0,4.45c-0.33,0.6 -0.99,1.12 -1.64,1.51c-0.78,0.4 -1.64,0.5 -2.53,0.5l-3.61,0l0,0.1l0,0.02l0,-0.01l-0.01,0l-0.01,0zm5.72,-4.35c0,-0.4 -0.11,-0.82 -0.21,-1.22c-0.33,-0.72 -1.1,-1.12 -1.86,-1.02l-0.99,0l0,4.45l0.99,0c0.43,0 0.78,-0.1 1.1,-0.3c0.33,-0.2 0.55,-0.5 0.78,-0.82c0.11,-0.3 0.21,-0.72 0.21,-1.12l-0.03,0.02l0,0.01l0.01,0z" id="svg_153"/>
  <text fill="#ffffff" font-family="Sans-serif" font-size="4" id="svg_152" stroke-width="0" text-anchor="middle" transform="matrix(2.16411 0 0 1.99092 -1.21959 2.66322)" x="69.12" xml:space="preserve" y="35.07">Overall Balance</text>
  <text fill="#ffffff" font-family="Sans-serif" font-size="6" font-weight="bold" id="svg_150" stroke-width="0" text-anchor="middle" transform="matrix(2.5588 0 0 1.99092 -22.232 2.66322)" x="79.12" xml:space="preserve" y="145">Credit</text>
  <text fill="#ffffff" font-family="Sans-serif" font-size="6" font-weight="bold" id="svg_149" stroke-width="0" text-anchor="middle" transform="matrix(2.16411 0 0 1.99092 -1.21959 2.66322)" x="37.59" xml:space="preserve" y="182.66">Food</text>
  <text fill="#ffffff" font-family="Sans-serif" font-size="6" font-weight="bold" id="svg_147" stroke-width="0" text-anchor="middle" transform="matrix(2.16411 0 0 1.99092 -1.21959 2.66322)" x="37.79" xml:space="preserve" y="207.15">Sales</text>
  <text fill="#ffffff" font-family="Sans-serif" font-size="6" font-weight="bold" id="svg_145" stroke-width="0" text-anchor="middle" transform="matrix(2.16411 0 0 1.99092 -1.21959 2.66322)" x="39.03" xml:space="preserve" y="231.69">Boxes</text>
  <text fill="#ffffff" font-family="Sans-serif" font-size="6" font-weight="bold" id="svg_143" stroke-width="0" text-anchor="middle" transform="matrix(2.16411 0 0 1.99092 -1.21959 2.66322)" x="56.38" xml:space="preserve" y="255.95">Package Shipment</text>
  <text fill="#ffffff" font-family="Sans-serif" font-size="6" font-weight="bold" id="svg_141" stroke-width="0" text-anchor="middle" transform="matrix(2.16411 0 0 1.99092 -1.21959 2.66322)" x="50.24" xml:space="preserve" y="280.49">Amazon Sales</text>
  <rect fill="url(#svg_1)" height="0" id="svg_2" stroke="#000000" width="0" x="-134.45" y="364"/>
  <defs transform="translate(300 0) translate(-298.095 1.90476) translate(11.4286 0) translate(299.749 1.23589) scale(1 1.0113) translate(-299.749 -1.23589) translate(1.65361 3.10556) scale(1.01301 1) translate(-1.65361 -3.10556) translate(1.63236 593.187) scale(1 1.00319) translate(-1.63236 -593.187)">
   <style>.cls-1{fill:#0f0f1e;}.cls-12,.cls-2,.cls-4,.cls-6,.cls-7,.cls-8,.cls-9{fill:#fff;}.cls-3,.cls-5{fill:#151524;}.cls-4{font-size:16px;letter-spacing:0.03em;}.cls-12,.cls-4,.cls-9{font-family:Poppins-Bold, Poppins;font-weight:700;}.cls-10,.cls-5{stroke:#4f4f5a;stroke-miterlimit:10;stroke-width:0.25px;}.cls-6,.cls-7,.cls-8{font-size:8.73px;font-family:Poppins-Regular, Poppins;}.cls-6{letter-spacing:0.06em;}.cls-7{letter-spacing:0.06em;}.cls-8{letter-spacing:0.2em;}.cls-9{font-size:10.18px;letter-spacing:0.03em;}.cls-10{fill:none;}.cls-11{fill:#6034a6;}.cls-12{font-size:12.36px;letter-spacing:0.03em;}.cls-13{fill:#ea001b;}.cls-14{fill:#f79f1a;}</style>
  </defs>
  <g id="selectorGroup75">
   <path fill="none" id="selectedBox75" stroke="#22C" stroke-dasharray="5,5"/>
  </g>
  <g id="svg_229">
   <rect class="cls-1" height="590.55" id="svg_15" rx="40" transform="matrix(1.09768 0 0 1.01533 291.973 0.278062)" width="272.73" x="-265.29" y="-0.39"/>
   <polygon class="cls-2" id="svg_16" points="45.46146774291992,36.4199499426627 28.80962371826172,36.4199499426627 33.86994171142578,41.11078443614497 32.750308990478516,42.14642977030462 25.758041381835938,35.688911346645 32.750308990478516,29.221233506539647 33.86994171142578,30.26702870523036 28.80962371826172,34.94771715494744 45.46146774291992,34.94771715494744 45.46146774291992,36.4199499426627 "/>
   <rect class="cls-3" height="26.88" id="svg_17" rx="5" transform="matrix(1.09768 0 0 1.01533 291.973 0.278062)" width="26.88" x="-40.31" y="20.5"/>
   <rect class="cls-5" height="18.62" id="svg_19" rx="9.31" transform="matrix(1.09768 0 0 1.01533 291.973 0.278062)" width="135.66" x="-149.09" y="354.53"/>
   <text class="cls-6" id="svg_20" transform="matrix(1.09768 0 0 1.01533 301.668 2.19194)" x="-141.69" y="365.14">2255 4595 9874 4423</text>
   <text class="cls-7" id="svg_21" transform="matrix(1.09768 0 0 1.01533 301.668 2.19194)" x="-251.36" y="365.14">Account number</text>
   <rect class="cls-5" height="18.62" id="svg_22" rx="9.31" transform="matrix(1.09768 0 0 1.01533 291.973 0.278062)" width="135.66" x="-149.09" y="382.86"/>
   <text class="cls-7" id="svg_23" transform="matrix(1.09768 0 0 1.01533 301.668 2.19194)" x="-141.69" y="393.48">$ 2,150.00</text>
   <text class="cls-7" id="svg_24" transform="matrix(1.09768 0 0 1.01533 301.668 2.19194)" x="-251.36" y="393.48">Amount</text>
   <rect class="cls-5" height="18.62" id="svg_25" rx="9.31" transform="matrix(1.09768 0 0 1.01533 291.973 0.278062)" width="135.66" x="-149.09" y="411.19"/>
   <text class="cls-8" id="svg_26" transform="matrix(1.09768 0 0 1.01533 301.668 2.19194)" x="-141.69" y="421.81">•••••••••</text>
   <text class="cls-7" id="svg_27" transform="matrix(1.09768 0 0 1.01533 301.668 2.19194)" x="-251.36" y="421.81">Password</text>
   <text class="cls-9" id="svg_28" transform="matrix(1.09768 0 0 1.01533 301.668 2.19194)" x="-251.36" y="337.06">To</text>
   <line class="cls-10" id="svg_29" points="null" x1="58.35" x2="277.23" y1="344.42" y2="344.42"/>
   <rect class="cls-11" height="31.34" id="svg_30" rx="15.67" transform="matrix(1.09768 0 0 1.01533 291.973 0.278062)" width="129.38" x="-192.67" y="481.89"/>
   <text class="cls-12" id="svg_31" transform="matrix(1.09768 0 0 1.01533 301.668 2.19194)" x="-171.82" y="500.42">Send Money</text>
   <path class="cls-2" d="m262.47,26.85a8.52,7.88 0 0 0 -6.59,12.9l0,0a8.62,7.97 0 0 0 3.22,2.22l0,0l0.31,0.11l0.12,0l0.26,0.08l0.16,0.05l0.24,0.06l0.21,0.05l0.21,0l0.24,0l0.2,0l0.26,0l0.18,0l0.31,0l1.21,0l0.31,0l0.18,0l0.27,0l0.19,0l0.24,0l0.22,0l0.21,-0.05l0.23,-0.06l0.18,-0.05l0.26,-0.08l0.12,0l0.3,-0.11l0,0a8.62,7.97 0 0 0 3.22,-2.22l0,0a8.52,7.88 0 0 0 -6.59,-12.9l0.13,0zm1.7,8.21l-0.35,0.17l0,0a3.22,2.97 0 0 1 -2.62,0l0,0l-0.35,-0.17a3.13,2.89 0 1 1 3.4,0l-0.08,0zm-3.5,0.55l0.07,0l0.26,0.11l0.21,0.08l0,0a3.53,3.27 0 0 0 1.23,0.2a3.49,3.23 0 0 0 1.23,-0.2l0,0l0.21,-0.08l0.25,-0.11l0.08,0l0.12,-0.06a6.28,5.81 0 0 1 4.11,3.98a8.17,7.55 0 0 1 -2.58,1.84l0,0l-0.31,0.13l-0.08,0l-0.27,0.1l-0.11,0l-0.25,0.08l-0.15,0l-0.22,0.06l-0.2,0l-0.2,0l-0.22,0l-0.19,0l-0.25,0l-0.15,0l-0.29,0l-1.1,0l-0.29,0l-0.16,0l-0.25,0l-0.07,0.2l-0.22,0l-0.21,0l-0.19,0l-0.22,-0.06l-0.16,0l-0.24,-0.08l-0.12,0l-0.27,-0.1l-0.07,0l-0.31,-0.13l0,0a7.85,7.26 0 0 1 -2.57,-1.84a6.26,5.79 0 0 1 4.11,-3.98l0.04,-0.14zm8.27,3.42a6.86,6.35 0 0 0 -4,-3.86a3.69,3.41 0 1 0 -4.94,0a6.82,6.31 0 0 0 -3.98,3.86a7.96,7.36 0 1 1 12.92,0z" id="svg_32"/>
   <g id="svg_89">
    <g id="svg_4">
     <path d="m252.05,180.69l-189.66,0c-9.52,0 -17.25,4.42 -17.25,9.86l0,108.48c0,5.45 7.73,9.86 17.25,9.86l189.66,0c9.52,0 17.25,-4.42 17.25,-9.86l0,-108.48c0,-5.45 -7.73,-9.86 -17.25,-9.86zm-138.19,116.65l-34.48,0l0,-69.03l34.48,0l0,69.03zm-17.25,-76.43c-11.93,0 -21.55,-5.52 -21.55,-12.33s9.63,-12.33 21.55,-12.33s21.55,5.52 21.55,12.33s-9.63,12.33 -21.55,12.33zm137.93,76.43l-34.48,0l0,-41.92c0,-1.97 -3.47,-5.2 -5.92,-5.98c-3.23,-1.04 -10.87,-1.13 -14.35,-0.17l-14.21,3.91l0,44.15l-34.48,0l0,-69.03l34.48,0l0,3.02c13.64,-3.57 32.59,-3.22 45.43,0.91c13.63,4.37 23.53,14.12 23.53,23.18l0,41.92l0,0.01z" fill="url(#svg_1)" id="svg_209" stroke="#000000" stroke-width="0"/>
     <rect fill="url(#svg_1)" height="121.36" id="svg_3" stroke="#000000" stroke-width="0" width="206.73" x="51.38" y="184.46"/>
    </g>
    <g id="svg_106" transform="matrix(1.26663 0 0 1.00111 -3.77234 0.980605)">
     <circle class="st4" cx="203.33" cy="259.23" id="svg_138" r="11.2" transform="matrix(0.875059 0 0 1.01043 -0.277163 2.63803)"/>
     <circle class="st5" cx="219.73" cy="259.23" id="svg_137" r="11.2" transform="matrix(0.875059 0 0 1.01043 -0.277163 2.63803)"/>
     <path class="st3" d="m178.44,288.24l-1.31,0l0,-2.23c0,-0.2 0,-0.3 -0.09,-0.4c-0.09,-0.1 -0.17,-0.1 -0.26,-0.1c-0.09,0 -0.17,0 -0.26,0.1c-0.09,0.1 -0.17,0.1 -0.17,0.2c-0.09,0.1 -0.09,0.2 -0.17,0.3l0,2.23l-1.23,0l0,-3.95l1.13,0l0,0.6c0.09,-0.1 0.17,-0.3 0.34,-0.4c0.17,-0.1 0.26,-0.2 0.44,-0.2c0.17,-0.1 0.34,-0.1 0.52,-0.1c0.17,0 0.34,0 0.52,0.1c0.17,0.1 0.26,0.2 0.34,0.4c0.09,0.1 0.09,0.3 0.17,0.5c0,0.1 0,0.3 0,0.4l0,2.53l0.02,0.02l0.01,0z" id="svg_136"/>
     <path class="st3" d="m179.23,286.82l0,-2.63l1.23,0l0,2.23c0,0.1 0,0.3 0.09,0.4c0.09,0.1 0.17,0.2 0.26,0.1c0.09,0 0.09,0 0.17,0c0.09,0 0.17,-0.1 0.17,-0.1c0.09,-0.1 0.17,-0.1 0.17,-0.2l0,-2.43l1.23,0l0,2.33c0,0.1 0,0.2 0.09,0.3c0.09,0.1 0.09,0.1 0.17,0.1l0,1.22l-0.26,0.1c-0.09,0 -0.17,0 -0.26,0c-0.17,0 -0.34,0 -0.52,-0.1c-0.09,-0.1 -0.17,-0.2 -0.26,-0.4l0,-0.1c-0.17,0.2 -0.34,0.4 -0.62,0.5c-0.26,0.1 -0.52,0.2 -0.79,0.2c-0.26,0 -0.62,-0.1 -0.79,-0.4c0,-0.3 -0.09,-0.72 -0.09,-1.12l0.02,0l-0.01,0z" id="svg_135"/>
     <path class="st3" d="m185.36,288.24c-0.26,0 -0.52,0 -0.79,-0.2c-0.26,-0.1 -0.44,-0.3 -0.62,-0.4c-0.17,-0.2 -0.26,-0.4 -0.34,-0.6c-0.09,-0.2 -0.17,-0.5 -0.09,-0.82c0,-0.4 0.09,-0.72 0.26,-1.02c0.17,-0.3 0.34,-0.6 0.62,-0.72c0.34,-0.2 0.71,-0.3 1.05,-0.3c0.34,0 0.71,0.1 1.05,0.3c0.26,0.2 0.52,0.4 0.62,0.82l-1.23,0.4c-0.09,-0.1 -0.09,-0.2 -0.17,-0.2c-0.09,-0.1 -0.17,-0.1 -0.26,-0.1c-0.26,0 -0.44,0.1 -0.52,0.4c-0.09,0.1 -0.09,0.3 -0.09,0.4c0,0.2 0,0.3 0.09,0.4c0.09,0.1 0.09,0.2 0.17,0.3c0.09,0.1 0.17,0.1 0.34,0.1c0.09,0 0.09,0 0.17,0c0.09,0 0.09,-0.1 0.17,-0.1c0.09,0 0.09,-0.1 0.09,-0.2l1.23,0.4c-0.09,0.2 -0.26,0.4 -0.34,0.6c-0.17,0.2 -0.34,0.3 -0.52,0.4c-0.34,0.1 -0.62,0.1 -0.88,0.1l-0.02,0.04l0.01,0z" id="svg_134"/>
     <path class="st3" d="m187.72,282.57l1.23,0l0,3.95c0,0.1 0,0.2 0.09,0.3c0.09,0.1 0.17,0.1 0.26,0.1l0.17,0c0.09,0 0.09,0 0.17,-0.1l0.17,1.12c-0.17,0.1 -0.34,0.1 -0.52,0.2c-0.17,0 -0.34,0.1 -0.52,0.1c-0.26,0 -0.52,-0.1 -0.79,-0.3c-0.17,-0.2 -0.26,-0.5 -0.26,-0.82l0,-4.54l0.01,0l-0.01,-0.01z" id="svg_133"/>
     <path class="st3" d="m191.93,288.24c-0.26,0 -0.52,0 -0.79,-0.2c-0.26,-0.1 -0.44,-0.2 -0.62,-0.4c-0.17,-0.2 -0.26,-0.4 -0.34,-0.6c-0.09,-0.2 -0.17,-0.5 -0.09,-0.82c0,-0.3 0.09,-0.72 0.17,-1.02c0.17,-0.3 0.34,-0.6 0.62,-0.82c0.34,-0.2 0.71,-0.3 1.05,-0.3c0.34,0 0.71,0.1 1.05,0.3c0.26,0.2 0.52,0.4 0.62,0.72c0.17,0.3 0.17,0.72 0.17,1.02c0,0.1 0,0.2 0,0.2c0,0.1 0,0.1 0,0.2l-2.45,0c0,0.1 0,0.2 0.09,0.3c0.09,0.1 0.17,0.1 0.26,0.2c0.09,0 0.17,0.1 0.26,0.1c0.17,0 0.26,0 0.34,-0.1c0.09,-0.1 0.17,-0.2 0.26,-0.3l1.05,0.3c-0.09,0.2 -0.26,0.4 -0.34,0.6c-0.17,0.2 -0.34,0.3 -0.62,0.4c-0.17,0.2 -0.44,0.2 -0.71,0.2l0.02,0.02l0.02,0l-0.02,0zm-0.62,-2.53l1.13,0c0,-0.1 -0.09,-0.2 -0.09,-0.3c-0.09,-0.1 -0.09,-0.2 -0.17,-0.2c-0.17,-0.1 -0.34,-0.1 -0.52,0c-0.09,0 -0.17,0.1 -0.17,0.2c-0.09,0.1 -0.17,0.2 -0.17,0.3l0,0l-0.02,0l0.01,0z" id="svg_132"/>
     <path class="st3" d="m194.38,286.82l0,-2.63l1.23,0l0,2.23c0,0.1 0,0.3 0.09,0.4c0.09,0.1 0.17,0.2 0.26,0.1c0.09,0 0.17,0 0.17,0c0.09,0 0.17,-0.1 0.17,-0.1c0.09,-0.1 0.17,-0.1 0.17,-0.2l0,-2.43l1.23,0l0,2.33c0,0.1 0,0.2 0.09,0.3c0.09,0.1 0.09,0.1 0.17,0.1l0,1.22l-0.09,0.1c-0.09,0 -0.17,0 -0.26,0c-0.17,0 -0.34,0 -0.52,-0.1c-0.09,-0.1 -0.17,-0.2 -0.26,-0.4l0,-0.1c-0.17,0.2 -0.34,0.4 -0.62,0.5c-0.26,0.1 -0.52,0.2 -0.79,0.2c-0.26,0 -0.62,-0.1 -0.79,-0.4c-0.17,-0.3 -0.26,-0.72 -0.26,-1.12l0.02,0l-0.01,0z" id="svg_131"/>
     <path class="st3" d="m200.22,288.24c-0.26,0 -0.62,-0.1 -0.88,-0.2c-0.26,-0.1 -0.52,-0.3 -0.71,-0.5l0.44,-0.92c0.17,0.1 0.44,0.3 0.62,0.4c0.17,0.1 0.34,0.1 0.52,0.1c0.09,0 0.17,0 0.17,0c0,0 0.09,-0.1 0.09,-0.1c0,0 0,-0.1 -0.09,-0.1c-0.09,0 -0.09,-0.1 -0.17,-0.1l-0.26,-0.1c-0.26,-0.1 -0.44,-0.2 -0.71,-0.3c-0.17,-0.1 -0.26,-0.2 -0.44,-0.3c-0.09,-0.2 -0.17,-0.4 -0.09,-0.6c0,-0.2 0.09,-0.5 0.17,-0.72c0.09,-0.2 0.34,-0.4 0.52,-0.5c0.26,-0.1 0.52,-0.2 0.79,-0.2c0.26,0 0.44,0 0.71,0.1c0.26,0.1 0.52,0.2 0.71,0.4l-0.52,0.92c-0.17,-0.1 -0.34,-0.2 -0.52,-0.3c-0.09,-0.1 -0.26,-0.1 -0.44,-0.1l-0.17,0c0,0 -0.09,0 -0.09,0.1c0,0 0,0.1 0,0.1c0,0 0,0.1 0.09,0.1c0,0 0.09,0.1 0.17,0.1l0.26,0.1c0.26,0.1 0.52,0.2 0.71,0.3c0.17,0.1 0.26,0.2 0.44,0.4c0.09,0.2 0.17,0.4 0.09,0.6c0,0.4 -0.09,0.82 -0.34,1.02c-0.26,0.2 -0.62,0.3 -1.05,0.3l-0.02,0l-0.01,0l0.01,0z" id="svg_130"/>
     <path class="st3" d="m48.32,220.63l0,-0.82l1.48,0l0,6.67l-0.71,0l0,-5.86l-0.79,0l0.02,0l0,0.01z" id="svg_129"/>
     <path class="st3" d="m51.3,224.98l0,-0.6l2.8,-4.45l0.88,0l0,4.35l0.79,0l0,0.72l-0.79,0l0,1.51l-0.71,0l0,-1.51l-2.97,0l0,-0.02zm2.97,-4.15l-2.11,3.43l2.11,0l0,-3.43z" id="svg_128"/>
     <path class="st3" d="m60.48,220.53l-2.19,5.96l-0.71,0l2.28,-5.86l-3.07,0l0,-0.72l3.68,0l0,0.6l0.02,0.02l-0.01,0z" id="svg_127"/>
     <path class="st3" d="m62.15,222.44c-0.17,-0.3 -0.26,-0.6 -0.26,-0.92c0,-0.72 0.34,-1.32 0.88,-1.51c0.62,-0.3 1.4,-0.3 2.02,0c0.26,0.1 0.52,0.3 0.62,0.6c0.17,0.3 0.26,0.6 0.17,0.92c0,0.3 -0.09,0.6 -0.26,0.92c-0.17,0.3 -0.44,0.5 -0.71,0.6c0.34,0.1 0.62,0.3 0.79,0.6c0.17,0.3 0.26,0.6 0.26,1.02c0,0.4 -0.09,0.72 -0.26,1.02c-0.17,0.3 -0.44,0.5 -0.71,0.72c-0.34,0.2 -0.71,0.2 -1.05,0.2c-0.34,0 -0.71,-0.1 -1.05,-0.2c-0.26,-0.1 -0.52,-0.4 -0.71,-0.72c-0.17,-0.3 -0.26,-0.6 -0.26,-1.02c0,-0.4 0.09,-0.72 0.26,-1.02c0.17,-0.3 0.44,-0.5 0.79,-0.6c-0.09,-0.1 -0.34,-0.3 -0.52,-0.6l-0.02,0l-0.01,0l0.03,-0.01zm0.62,1.32c-0.26,0.2 -0.44,0.6 -0.34,0.92c0,0.4 0.09,0.72 0.34,0.92c0.26,0.2 0.62,0.4 0.96,0.4c0.34,0 0.71,-0.1 0.96,-0.4c0.26,-0.2 0.34,-0.6 0.34,-0.92c0,-0.4 -0.09,-0.72 -0.34,-0.92c-0.26,-0.2 -0.62,-0.3 -0.96,-0.3c-0.26,0 -0.62,0.1 -0.96,0.3zm1.84,-3.03c-0.26,-0.2 -0.52,-0.3 -0.88,-0.3c-0.34,0 -0.62,0.1 -0.88,0.3c-0.26,0.2 -0.34,0.5 -0.34,0.92c0,0.3 0.09,0.6 0.34,0.82c0.52,0.4 1.23,0.4 1.74,0c0.17,-0.2 0.34,-0.5 0.34,-0.82c0,-0.3 -0.09,-0.6 -0.34,-0.92l0.02,0z" id="svg_126"/>
     <path class="st3" d="m71.25,224.28c0.34,-0.4 0.71,-0.82 0.96,-1.22c0.26,-0.4 0.34,-0.82 0.34,-1.32c0,-0.3 -0.09,-0.72 -0.26,-0.92c-0.17,-0.2 -0.52,-0.4 -0.79,-0.3c-0.34,0 -0.62,0.1 -0.88,0.4c-0.17,0.3 -0.34,0.6 -0.34,1.02l-0.71,0c0,-0.6 0.17,-1.12 0.52,-1.61c0.34,-0.4 0.79,-0.6 1.31,-0.6c0.44,0 0.96,0.2 1.31,0.5c0.34,0.4 0.52,0.92 0.52,1.42c0,0.5 -0.17,1.02 -0.34,1.51c-0.26,0.5 -0.52,0.92 -0.88,1.22c-0.34,0.4 -0.79,0.82 -1.31,1.32l2.7,0l0,0.72l-3.76,0l0,-0.6c0.71,-0.6 1.23,-1.12 1.57,-1.51l0.03,-0.02l-0.01,0l0.02,-0.01z" id="svg_125"/>
     <path class="st3" d="m76.31,224.28c0.34,-0.4 0.71,-0.82 0.96,-1.22c0.26,-0.4 0.34,-0.82 0.34,-1.32c0,-0.3 -0.09,-0.72 -0.26,-0.92c-0.17,-0.2 -0.52,-0.4 -0.79,-0.3c-0.34,0 -0.62,0.1 -0.79,0.4c-0.17,0.3 -0.34,0.6 -0.34,1.02l-0.71,0c0,-0.6 0.17,-1.12 0.52,-1.61c0.79,-0.72 1.84,-0.72 2.62,0c0.34,0.4 0.52,0.92 0.52,1.42c0,0.5 -0.17,1.02 -0.34,1.51c-0.26,0.5 -0.52,0.92 -0.88,1.22c-0.34,0.4 -0.79,0.82 -1.31,1.32l2.7,0l0,0.72l-3.85,0l0,-0.6c0.71,-0.72 1.23,-1.22 1.57,-1.61l0.03,-0.02l0.01,-0.01z" id="svg_124"/>
     <path class="st3" d="m83.49,220.63l-2.8,0l0,2.13c0.17,-0.2 0.34,-0.4 0.52,-0.5c0.26,-0.1 0.52,-0.2 0.79,-0.2c0.34,0 0.79,0.1 1.05,0.3c0.26,0.2 0.44,0.5 0.62,0.82c0.09,0.3 0.17,0.72 0.17,1.02c0,0.4 -0.09,0.82 -0.17,1.22c-0.17,0.3 -0.34,0.6 -0.71,0.82c-0.34,0.2 -0.71,0.3 -1.05,0.3c-0.52,0 -0.96,-0.1 -1.31,-0.5c-0.34,-0.3 -0.52,-0.82 -0.62,-1.32l0.71,0c0.09,0.3 0.17,0.6 0.44,0.82c0.26,0.2 0.52,0.3 0.88,0.3c0.34,0 0.71,-0.1 0.96,-0.4c0.26,-0.3 0.34,-0.72 0.34,-1.12c0,-0.4 -0.09,-0.82 -0.34,-1.12c-0.26,-0.3 -0.62,-0.4 -0.96,-0.4c-0.26,0 -0.52,0.1 -0.71,0.2c-0.17,0.1 -0.34,0.4 -0.44,0.6l-0.79,0l0,-3.75l3.5,0l0,0.82l-0.09,0l0,-0.04l0.01,0z" id="svg_123"/>
     <path class="st3" d="m88.93,220.63l-2.8,0l0,2.13c0.17,-0.2 0.34,-0.4 0.52,-0.5c0.26,-0.1 0.52,-0.2 0.79,-0.2c0.34,0 0.79,0.1 1.05,0.3c0.26,0.2 0.44,0.5 0.62,0.82c0.09,0.3 0.17,0.72 0.17,1.02c0,0.4 -0.09,0.82 -0.17,1.22c-0.17,0.3 -0.34,0.6 -0.71,0.82c-0.34,0.2 -0.71,0.3 -1.05,0.3c-0.52,0 -0.96,-0.1 -1.31,-0.5c-0.34,-0.3 -0.62,-0.82 -0.62,-1.32l0.71,0c0.09,0.3 0.17,0.6 0.44,0.82c0.26,0.2 0.52,0.3 0.88,0.3c0.34,0 0.71,-0.1 0.96,-0.4c0.26,-0.3 0.34,-0.72 0.34,-1.12c0,-0.4 -0.09,-0.82 -0.34,-1.12c-0.26,-0.3 -0.62,-0.4 -0.96,-0.4c-0.26,0 -0.52,0.1 -0.71,0.2c-0.17,0.1 -0.34,0.4 -0.44,0.6l-0.71,0l0,-3.75l3.41,0l-0.09,0.82l0,-0.04l0.01,0l0.01,0z" id="svg_122"/>
     <path class="st3" d="m93.11,224.98l0,-0.6l2.8,-4.45l0.88,0l0,4.35l0.79,0l0,0.72l-0.79,0l0,1.51l-0.71,0l0,-1.51l-2.97,0l0,-0.02zm2.97,-4.15l-2.11,3.43l2.11,0l0,-3.43z" id="svg_121"/>
     <path class="st3" d="m102.48,220.63l-2.8,0l0,2.13c0.17,-0.2 0.34,-0.4 0.52,-0.5c0.26,-0.1 0.52,-0.2 0.79,-0.2c0.34,0 0.79,0.1 1.05,0.3c0.26,0.2 0.44,0.5 0.62,0.82c0.09,0.3 0.17,0.72 0.17,1.02c0,0.4 -0.09,0.82 -0.17,1.22c-0.17,0.3 -0.34,0.6 -0.71,0.82c-0.34,0.2 -0.71,0.3 -1.05,0.3c-0.52,0 -0.96,-0.1 -1.31,-0.5c-0.34,-0.3 -0.62,-0.82 -0.62,-1.32l0.71,0c0.09,0.3 0.17,0.6 0.44,0.82c0.26,0.2 0.52,0.3 0.88,0.3c0.34,0 0.71,-0.1 0.96,-0.4c0.26,-0.3 0.34,-0.72 0.34,-1.12c0,-0.4 -0.09,-0.82 -0.34,-1.12c-0.26,-0.3 -0.62,-0.4 -0.96,-0.4c-0.26,0 -0.52,0.1 -0.71,0.2c-0.17,0.1 -0.34,0.4 -0.44,0.6l-0.71,0l0,-3.75l3.41,0l-0.09,0.82l0,-0.04l0.01,0l0.01,0z" id="svg_120"/>
     <path class="st3" d="m105.56,225.58c0.26,0.2 0.52,0.3 0.79,0.3c0.44,0 0.79,-0.2 0.96,-0.6c0.26,-0.6 0.34,-1.32 0.26,-2.01c-0.09,0.3 -0.34,0.5 -0.52,0.6c-0.26,0.2 -0.62,0.2 -0.88,0.2c-0.34,0 -0.62,-0.1 -0.96,-0.2c-0.26,-0.2 -0.52,-0.4 -0.71,-0.72c-0.17,-0.4 -0.26,-0.82 -0.26,-1.22c0,-0.6 0.17,-1.12 0.52,-1.61c0.34,-0.4 0.88,-0.6 1.4,-0.6c0.62,-0.1 1.23,0.2 1.57,0.82c0.34,0.82 0.52,1.61 0.44,2.43c0,0.6 -0.09,1.32 -0.17,1.91c-0.09,0.4 -0.26,0.82 -0.62,1.12c-0.34,0.3 -0.71,0.4 -1.13,0.4c-0.44,0 -0.88,-0.1 -1.23,-0.5c-0.26,-0.3 -0.52,-0.82 -0.52,-1.32l0.71,0c0,0.5 0.17,0.82 0.34,1.02l0.02,-0.02l-0.01,0zm1.57,-2.53c0.26,-0.3 0.34,-0.6 0.34,-1.02c0,-0.4 -0.09,-0.82 -0.34,-1.12c-0.26,-0.3 -0.62,-0.4 -0.96,-0.4c-0.34,0 -0.62,0.1 -0.88,0.4c-0.44,0.6 -0.44,1.51 0,2.13c0.62,0.5 1.4,0.5 1.84,0l0,0l0,0.01z" id="svg_119"/>
     <path class="st3" d="m113.33,220.63l-2.8,0l0,2.13c0.17,-0.2 0.34,-0.4 0.52,-0.5c0.26,-0.1 0.52,-0.2 0.79,-0.2c0.34,0 0.79,0.1 1.05,0.3c0.26,0.2 0.44,0.5 0.62,0.82c0.09,0.3 0.17,0.72 0.17,1.02c0,0.4 -0.09,0.82 -0.17,1.22c-0.17,0.3 -0.34,0.6 -0.71,0.82c-0.34,0.2 -0.71,0.3 -1.05,0.3c-0.52,0 -0.96,-0.1 -1.31,-0.5c-0.34,-0.3 -0.52,-0.82 -0.62,-1.32l0.71,0c0.09,0.3 0.17,0.6 0.44,0.82c0.26,0.2 0.52,0.3 0.88,0.3c0.34,0 0.71,-0.1 0.96,-0.4c0.26,-0.3 0.34,-0.72 0.34,-1.12c0,-0.4 -0.09,-0.82 -0.34,-1.12c-0.26,-0.3 -0.62,-0.4 -0.96,-0.4c-0.26,0 -0.52,0.1 -0.71,0.2c-0.17,0.1 -0.34,0.4 -0.44,0.6l-0.71,0l0,-3.75l3.41,0l-0.09,0.82l0,-0.04l0.01,0l0.01,0z" id="svg_118"/>
     <path class="st3" d="m119.03,225.58c0.26,0.2 0.52,0.3 0.79,0.3c0.44,0 0.79,-0.2 0.96,-0.6c0.26,-0.6 0.34,-1.32 0.26,-2.01c-0.09,0.3 -0.34,0.5 -0.52,0.6c-0.26,0.2 -0.62,0.2 -0.88,0.2c-0.34,0 -0.71,-0.1 -0.96,-0.2c-0.26,-0.2 -0.52,-0.4 -0.62,-0.72c-0.17,-0.4 -0.26,-0.82 -0.26,-1.22c0,-0.6 0.17,-1.12 0.52,-1.61c0.34,-0.4 0.88,-0.6 1.4,-0.6c0.62,-0.1 1.23,0.2 1.57,0.82c0.34,0.82 0.52,1.61 0.44,2.43c0,0.6 -0.09,1.32 -0.17,1.91c-0.09,0.4 -0.26,0.82 -0.62,1.12c-0.34,0.3 -0.79,0.4 -1.13,0.4c-0.44,0 -0.88,-0.1 -1.23,-0.5c-0.26,-0.3 -0.52,-0.82 -0.52,-1.32l0.71,0c-0.09,0.5 0.09,0.82 0.26,1.02l0.02,-0.02l-0.02,0zm1.66,-2.53c0.26,-0.3 0.34,-0.6 0.34,-1.02c0,-0.4 -0.09,-0.82 -0.34,-1.12c-0.26,-0.3 -0.62,-0.4 -0.96,-0.4c-0.34,0 -0.62,0.1 -0.88,0.4c-0.17,0.3 -0.34,0.6 -0.34,1.02c0,0.4 0.09,0.82 0.34,1.12c0.26,0.3 0.62,0.4 0.96,0.4c0.34,-0.1 0.62,-0.2 0.88,-0.4l0,0z" id="svg_117"/>
     <path class="st3" d="m123.58,222.44c-0.17,-0.3 -0.26,-0.6 -0.26,-0.92c0,-0.3 0.09,-0.6 0.17,-0.92c0.17,-0.3 0.34,-0.5 0.62,-0.6c0.62,-0.3 1.4,-0.3 2.02,0c0.26,0.1 0.52,0.3 0.62,0.6c0.17,0.3 0.26,0.6 0.17,0.92c0,0.3 -0.09,0.72 -0.26,0.92c-0.17,0.3 -0.44,0.5 -0.71,0.6c0.34,0.1 0.62,0.3 0.79,0.6c0.17,0.3 0.26,0.6 0.26,1.02c0,0.4 -0.09,0.72 -0.26,1.02c-0.17,0.3 -0.44,0.5 -0.71,0.72c-0.34,0.2 -0.71,0.2 -1.05,0.2c-0.34,0 -0.71,-0.1 -1.05,-0.2c-0.26,-0.1 -0.52,-0.4 -0.71,-0.72c-0.17,-0.3 -0.26,-0.6 -0.26,-1.02c0,-0.4 0.09,-0.72 0.26,-1.02c0.17,-0.3 0.44,-0.5 0.79,-0.6c0,-0.1 -0.26,-0.3 -0.44,-0.6l-0.02,0l-0.01,0l0.04,0zm0.71,1.32c-0.26,0.2 -0.34,0.6 -0.34,0.92c0,0.4 0.09,0.72 0.34,0.92c0.62,0.5 1.31,0.5 1.93,0c0.26,-0.2 0.34,-0.6 0.34,-0.92c0,-0.4 -0.09,-0.72 -0.34,-0.92c-0.26,-0.2 -0.62,-0.3 -0.96,-0.3c-0.34,0 -0.71,0.1 -0.96,0.3l-0.01,0zm1.84,-3.03c-0.52,-0.4 -1.23,-0.4 -1.74,0c-0.17,0.2 -0.34,0.5 -0.34,0.92c0,0.3 0.09,0.6 0.34,0.82c0.26,0.2 0.52,0.3 0.88,0.3c0.34,0 0.62,-0.1 0.88,-0.3c0.44,-0.4 0.44,-1.12 0.09,-1.61c0,0 -0.09,0 -0.09,-0.1l0,0l-0.02,-0.02l0,-0.01z" id="svg_116"/>
     <path class="st3" d="m132.24,220.53l-2.19,5.96l-0.71,0l2.28,-5.86l-3.07,0l0,-0.72l3.76,0l-0.09,0.6l0.02,0.02z" id="svg_115"/>
     <path class="st3" d="m133.29,224.98l0,-0.6l2.8,-4.45l0.88,0l0,4.35l0.79,0l0,0.72l-0.79,0l0,1.51l-0.71,0l0,-1.51l-2.97,0l0,-0.02zm2.97,-4.15l-2.11,3.43l2.11,0l0,-3.43z" id="svg_114"/>
     <path class="st3" d="m184.84,195.17l0,-0.5l1.13,0l0,5.46l-0.44,0l0,-4.96l-0.71,0l0.01,0l0.01,0z" id="svg_113"/>
     <path class="st3" d="m188.94,197.91c0.34,-0.4 0.62,-1.02 0.71,-1.61c0,-0.3 -0.09,-0.6 -0.26,-0.82c-0.17,-0.2 -0.44,-0.3 -0.79,-0.3c-0.26,0 -0.62,0.1 -0.79,0.4c-0.17,0.3 -0.26,0.6 -0.34,0.92l-0.44,0c0,-0.5 0.17,-1.02 0.44,-1.32c0.62,-0.6 1.48,-0.6 2.11,-0.1c0.26,0.3 0.44,0.72 0.44,1.22c0,0.72 -0.26,1.32 -0.71,1.81c-0.52,0.6 -1.05,1.22 -1.66,1.71l2.45,0l0,0.4l-3.16,0l0,-0.4c0.79,-0.6 1.4,-1.32 2.02,-1.91l-0.02,0z" id="svg_112"/>
     <path class="st3" d="m193.33,193.04l-1.84,8.38l-0.44,0l1.84,-8.38l0.44,0z" id="svg_111"/>
     <path class="st3" d="m196.03,197.91c0.44,-0.4 0.62,-1.02 0.71,-1.61c0,-0.3 -0.09,-0.6 -0.26,-0.82c-0.17,-0.2 -0.44,-0.3 -0.79,-0.3c-0.26,0 -0.62,0.1 -0.79,0.4c-0.17,0.3 -0.26,0.6 -0.34,0.92l-0.44,0c0,-0.5 0.17,-1.02 0.44,-1.32c0.62,-0.6 1.48,-0.6 2.11,-0.1c0.26,0.3 0.44,0.72 0.44,1.22c0,0.72 -0.26,1.32 -0.71,1.81c-0.52,0.6 -1.05,1.22 -1.66,1.71l2.45,0l0,0.4l-3.16,0l0,-0.4c0.79,-0.6 1.4,-1.32 2.02,-1.91l-0.02,0z" id="svg_110"/>
     <path class="st3" d="m198.05,198.9l0,-0.4l2.36,-3.75l0.52,0l0,3.65l0.71,0l0,0.5l-0.71,0l0,1.32l-0.44,0l0,-1.32l-2.45,0l0.01,0zm2.45,-3.55l-2.02,3.13l2.02,0l0,-3.13z" id="svg_109"/>
     <text fill="#ffffff" font-family="Courier" font-size="5" font-weight="normal" id="svg_108" letter-spacing="0" stroke-width="0" text-anchor="middle" textLength="0" transform="matrix(1.72502 0 0 1.99187 -253.757 -131.426)" word-spacing="0" x="182.71" xml:space="preserve" y="205.11">Owner</text>
     <text fill="#ffffff" font-family="Sans-serif" font-size="5" font-weight="bold" id="svg_107" stroke-width="0" text-anchor="middle" transform="matrix(1.72502 0 0 1.99187 -253.757 -131.426)" x="186.55" xml:space="preserve" y="211.71">Robert Jr</text>
    </g>
   </g>
   <text fill="#ffffff" font-family="Sans-serif" font-size="6" font-weight="bold" id="svg_228" stroke-width="0" text-anchor="middle" transform="matrix(2.9793 0 0 2.69457 -128.878 -15.3759)" x="63.06" xml:space="preserve" y="33.03">Pay</text>
  </g>
 </g>
</svg>