<?xml version="1.0"?>
<svg width="450" height="650" xmlns="http://www.w3.org/2000/svg" xmlns:svg="http://www.w3.org/2000/svg" clip-rule="evenodd" version="1.1" xml:space="preserve">
 <!-- Created with SVG-edit - https://github.com/SVG-Edit/svgedit-->
 <defs>
  <radialGradient cy="0.2" id="svg_1" r="0.7" spreadMethod="pad">
   <stop id="jq_stop_4243" offset="0" stop-color="#7933a6"/>
   <stop id="jq_stop_7899" offset="1" stop-color="#5133a6"/>
  </radialGradient>undefinedundefinedundefinedundefined
  <linearGradient id="svg_3">
   <stop id="jq_stop_3833" offset="0" stop-color="#7933a6"/>
   <stop id="jq_stop_564" offset="1" stop-color="#5133a6"/>
  </linearGradient></defs>
 <g class="layer">
  <title>Layer 1</title>
  <!-- Created with SVG-edit - https://github.com/SVG-Edit/svgedit-->
  <style type="text/css">.st0{fill:#0F0F1E;}
	.st1{fill:#151524;}
	.st2{fill:none;stroke:#FFFFFF;stroke-width:2;stroke-miterlimit:10;}
	.st3{fill:#FFFFFF;}
	.st4{fill:#EA001B;}
	.st5{fill:#F79F1A;}
	.st6{fill:#6034A6;}
	.st7{fill:#6834A6;}
	.st8{fill:#AEAEB3;}
	.st9{fill:#50E800;}</style>
  <style type="text/css">.st0{fill:#0F0F1E;}
	.st1{fill:#151524;}
	.st2{fill:none;stroke:#FFFFFF;stroke-width:2;stroke-miterlimit:10;}
	.st3{fill:#FFFFFF;}
	.st4{fill:#EA001B;}
	.st5{fill:#F79F1A;}
	.st6{fill:#6034A6;}
	.st7{fill:#6834A6;}
	.st8{fill:#AEAEB3;}
	.st9{fill:#50E800;}</style>
  <!-- Created with SVG-edit - https://github.com/SVG-Edit/svgedit-->
  <style type="text/css">.st0{fill:#0F0F1E;}
	.st1{fill:#151524;}
	.st2{fill:none;stroke:#FFFFFF;stroke-width:2;stroke-miterlimit:10;}
	.st3{fill:#FFFFFF;}
	.st4{fill:#EA001B;}
	.st5{fill:#F79F1A;}
	.st6{fill:#6034A6;}
	.st7{fill:#6834A6;}
	.st8{fill:#AEAEB3;}
	.st9{fill:#50E800;}</style>
  <style type="text/css">.st0{fill:#0F0F1E;}
	.st1{fill:#151524;}
	.st2{fill:none;stroke:#FFFFFF;stroke-width:2;stroke-miterlimit:10;}
	.st3{fill:#FFFFFF;}
	.st4{fill:#EA001B;}
	.st5{fill:#F79F1A;}
	.st6{fill:#6034A6;}
	.st7{fill:#6834A6;}
	.st8{fill:#AEAEB3;}
	.st9{fill:#50E800;}</style>
  <!-- Created with SVG-edit - https://github.com/SVG-Edit/svgedit-->
  <style type="text/css">.st0{fill:#0F0F1E;}
	.st1{fill:#151524;}
	.st2{fill:none;stroke:#FFFFFF;stroke-width:2;stroke-miterlimit:10;}
	.st3{fill:#FFFFFF;}
	.st4{fill:#EA001B;}
	.st5{fill:#F79F1A;}
	.st6{fill:#6034A6;}
	.st7{fill:#6834A6;}
	.st8{fill:#AEAEB3;}
	.st9{fill:#50E800;}</style>
  <line class="st2" id="svg_204" x1="23.8" x2="43.99" y1="44.4" y2="44.4"/>
  <line class="st2" id="svg_203" x1="23.8" x2="37.19" y1="37.32" y2="37.32"/>
  <line class="st2" id="svg_202" x1="23.8" x2="43.99" y1="30.16" y2="30.16"/>
  <path class="st3" d="m119.09,83.38l0,-2.53l4.83,0l0,11.7l-3.07,0l0,-9.2l-1.76,0l0,0.02l0,0.01z" id="svg_166"/>
  <path class="st3" d="m126.23,83.38l0,-2.53l4.83,0l0,11.7l-3.17,0l0,-9.2l-1.64,0l0,0.02l-0.01,0l-0.01,0.01z" id="svg_165"/>
  <path class="st3" d="m137.2,90.04l-1.86,4.64l-1.86,0l0.99,-4.64l2.75,0l-0.03,0l0.01,0z" id="svg_164"/>
  <path class="st3" d="m139.62,89.94c1.1,-0.92 2.08,-1.61 2.75,-2.13c0.65,-0.5 1.2,-1.12 1.64,-1.71c0.43,-0.5 0.65,-1.12 0.65,-1.81c0,-0.4 -0.11,-0.72 -0.33,-1.02c-0.21,-0.3 -0.65,-0.4 -0.99,-0.4c-0.43,0 -0.89,0.1 -1.1,0.4c-0.21,0.4 -0.43,0.82 -0.33,1.32l-2.86,0c0,-0.82 0.21,-1.61 0.65,-2.33c0.33,-0.6 0.89,-1.12 1.64,-1.32c0.65,-0.3 1.42,-0.4 2.18,-0.4c1.2,-0.1 2.31,0.3 3.17,1.02c0.78,0.72 1.1,1.61 1.1,2.53c0,1.22 -0.43,2.33 -1.32,3.23c-0.99,1.12 -2.08,2.01 -3.29,2.93l4.72,0l0,2.23l-8.79,0l0,-2.01l0.43,-0.5l0.04,-0.02l-0.03,0l0.05,-0.01l0.02,0z" id="svg_163"/>
  <path class="st3" d="m150.91,82.16c1.76,-1.91 4.93,-2.13 7.04,-0.5c0.21,0.2 0.33,0.3 0.55,0.5c0.89,1.32 1.2,2.83 1.2,4.35c0.11,1.51 -0.33,3.03 -1.2,4.45c-1.76,1.91 -4.93,2.13 -7.04,0.5c-0.21,-0.2 -0.33,-0.3 -0.55,-0.5c-0.89,-1.32 -1.2,-2.83 -1.2,-4.45c0,-1.51 0.33,-3.03 1.2,-4.35zm5.38,1.91c-0.43,-0.82 -1.54,-1.12 -2.42,-0.72c-0.33,0.2 -0.55,0.4 -0.78,0.72c-0.33,0.82 -0.43,1.61 -0.43,2.53c0,0.6 0,1.22 0.11,1.81c0.11,0.4 0.21,0.82 0.55,1.22c0.33,0.3 0.78,0.5 1.32,0.4c0.43,0 0.99,-0.1 1.32,-0.4c0.33,-0.3 0.55,-0.72 0.55,-1.22c0.11,-0.6 0.11,-1.22 0.11,-1.81c0.11,-0.92 0,-1.71 -0.33,-2.53l0.03,0l-0.01,0l-0.03,0l0.01,0z" id="svg_162"/>
  <path class="st3" d="m169.36,92.25c-0.33,-0.3 -0.55,-0.72 -0.43,-1.12c0,-0.4 0.21,-0.82 0.43,-1.12c0.33,-0.3 0.78,-0.4 1.32,-0.4c0.43,0 0.89,0.1 1.32,0.4c0.33,0.3 0.55,0.72 0.55,1.12c0,0.4 -0.21,0.82 -0.55,1.12c-0.33,0.3 -0.78,0.4 -1.32,0.4c-0.55,0.1 -0.99,-0.1 -1.32,-0.4z" id="svg_160"/>
  <path class="st3" d="m183.42,83.18l-5.49,0l0,2.33c0.33,-0.3 0.65,-0.5 0.99,-0.6c0.43,-0.1 0.89,-0.2 1.32,-0.2c0.78,0 1.54,0.2 2.18,0.5c0.55,0.4 0.99,0.82 1.32,1.42c0.21,0.6 0.43,1.22 0.43,1.91c0.11,1.12 -0.33,2.23 -1.2,3.03c-0.89,0.82 -2.08,1.22 -3.29,1.12c-0.89,0 -1.64,-0.1 -2.42,-0.4c-0.65,-0.3 -1.2,-0.72 -1.64,-1.22c-0.33,-0.5 -0.55,-1.22 -0.65,-1.81l2.96,0c0.11,0.3 0.21,0.6 0.55,0.82c0.33,0.2 0.65,0.3 1.1,0.3c0.43,0 0.89,-0.1 1.2,-0.5c0.33,-0.4 0.43,-0.82 0.43,-1.32c0,-0.4 -0.11,-0.92 -0.43,-1.22c-0.33,-0.3 -0.78,-0.5 -1.2,-0.4c-0.33,0 -0.65,0.1 -0.99,0.3c-0.21,0.2 -0.43,0.4 -0.55,0.72l-2.86,0l0,-7.07l8.22,0l0,2.33l0.03,-0.04l0.01,-0.01l0,0.01l-0.02,0z" id="svg_159"/>
  <path class="st3" d="m191.21,90.44c0.55,0 1.1,-0.3 1.32,-0.82c0.33,-0.82 0.43,-1.61 0.43,-2.43c-0.33,0.3 -0.65,0.6 -1.1,0.82c-0.43,0.2 -0.99,0.3 -1.54,0.3c-0.65,0 -1.42,-0.1 -1.97,-0.4c-0.55,-0.3 -1.1,-0.72 -1.32,-1.32c-0.33,-0.6 -0.55,-1.32 -0.55,-2.01c0,-0.72 0.21,-1.42 0.55,-2.13c0.33,-0.6 0.89,-1.12 1.54,-1.42c0.78,-0.3 1.54,-0.5 2.31,-0.5c1.42,-0.1 2.75,0.4 3.61,1.51c0.78,1.32 1.1,2.83 0.99,4.35c0,1.22 -0.11,2.33 -0.43,3.43c-0.33,1.71 -2.08,2.93 -4.06,2.83c-0.78,0 -1.54,-0.1 -2.31,-0.5c-0.55,-0.3 -1.1,-0.72 -1.42,-1.32c-0.33,-0.5 -0.55,-1.12 -0.55,-1.71l2.75,0c0.11,0.82 0.89,1.42 1.76,1.32c-0.11,0 0,0 0,0l-0.01,0l0.01,0l-0.01,0zm0.99,-4.84c0.33,-0.3 0.43,-0.72 0.43,-1.12c0,-0.4 -0.11,-0.92 -0.43,-1.22c-0.33,-0.3 -0.78,-0.4 -1.2,-0.4c-0.43,0 -0.89,0.1 -1.2,0.4c-0.33,0.3 -0.43,0.72 -0.43,1.22c0,0.4 0.11,0.82 0.43,1.12c0.33,0.3 0.78,0.4 1.32,0.4c0.33,0.1 0.78,-0.1 1.1,-0.4l-0.01,0l-0.01,0z" id="svg_158"/>
  <text fill="#ffffff" font-family="Sans-serif" font-size="4" id="svg_152" stroke-width="0" text-anchor="middle" transform="matrix(2.16411 0 0 1.99092 -1.21959 2.66322)" x="69.12" xml:space="preserve" y="35.07">Overall Balance</text>
  <text fill="#ffffff" font-family="Sans-serif" font-size="6" font-weight="bold" id="svg_150" stroke-width="0" text-anchor="middle" transform="matrix(2.5588 0 0 1.99092 -22.232 2.66322)" x="79.12" xml:space="preserve" y="145">Credit</text>
  <rect fill="url(#svg_1)" height="0" id="svg_2" stroke="#000000" width="0" x="-134.45" y="364"/>
  <defs transform="translate(300 0) translate(-298.095 1.90476) translate(11.4286 0) translate(299.749 1.23589) scale(1 1.0113) translate(-299.749 -1.23589) translate(1.65361 3.10556) scale(1.01301 1) translate(-1.65361 -3.10556) translate(1.63236 593.187) scale(1 1.00319) translate(-1.63236 -593.187)">
   <style>.cls-1{fill:#0f0f1e;}.cls-12,.cls-2,.cls-4,.cls-6,.cls-7,.cls-8,.cls-9{fill:#fff;}.cls-3,.cls-5{fill:#151524;}.cls-4{font-size:16px;letter-spacing:0.03em;}.cls-12,.cls-4,.cls-9{font-family:Poppins-Bold, Poppins;font-weight:700;}.cls-10,.cls-5{stroke:#4f4f5a;stroke-miterlimit:10;stroke-width:0.25px;}.cls-6,.cls-7,.cls-8{font-size:8.73px;font-family:Poppins-Regular, Poppins;}.cls-6{letter-spacing:0.06em;}.cls-7{letter-spacing:0.06em;}.cls-8{letter-spacing:0.2em;}.cls-9{font-size:10.18px;letter-spacing:0.03em;}.cls-10{fill:none;}.cls-11{fill:#6034a6;}.cls-12{font-size:12.36px;letter-spacing:0.03em;}.cls-13{fill:#ea001b;}.cls-14{fill:#f79f1a;}</style>
  </defs>
  <g id="svg_22">
   <defs transform="translate(0 65.7143) translate(-0.854783 0.424783) scale(1.00207 1) translate(0.854783 -0.424783) translate(-0.848244 0.42) scale(1.90296 1.99441) translate(0.848244 -0.42) translate(-0.44575 0.210589) scale(1.12487 1.08171) translate(0.44575 -0.210589) translate(-0.396269 0.194681) scale(1 1.00154) translate(0.396269 -0.194681)">
    <style>.cls-1{fill:#0f0f1e;}.cls-2{fill:#fff;}.cls-3{fill:#151524;}.cls-4{fill:#aeaeb3;}.cls-5{fill:url(#linear-gradient);}.cls-6{fill:url(#linear-gradient-2);}.cls-7{fill:url(#linear-gradient-3);}.cls-8{fill:url(#linear-gradient-4);}.cls-9{fill:url(#linear-gradient-5);}.cls-10{fill:url(#linear-gradient-6);}.cls-11{fill:url(#linear-gradient-7);}.cls-12{fill:url(#linear-gradient-8);}.cls-13{fill:url(#linear-gradient-9);}</style>
   </defs>
   <path class="cls-1" d="m-0.85,650.1l0,-576.48c0,-40.41 29.58,-73.2 66.06,-73.2l318.3,0c36.51,0 66.06,32.76 66.06,73.2l0,576.48" id="svg_252"/>
   <polygon class="cls-2" id="svg_253" points="66.65877532958984,60.3127628583557 41.603477478027344,60.3127628583557 49.21751403808594,67.99916990161232 47.53284454345703,69.69616369895316 37.01193618774414,59.11488173740376 47.53284454345703,48.51696115841018 49.21751403808594,50.230601214351324 41.603477478027344,57.900358178429585 66.65877532958984,57.900358178429585 66.65877532958984,60.3127628583557 "/>
   <rect class="cls-3" height="26.88" id="svg_254" rx="5" transform="matrix(1.65163 0 0 1.66372 0.973274 -142.476)" width="26.88" x="224.03" y="107.72"/>
   <path class="cls-2" d="m46.84,478.43a3.06,3.09 0 0 1 -0.4,4.19a4.34,4.39 0 0 1 -2.87,0.89l-5.5,0l0,-11.91l5.31,0a4.29,4.32 0 0 1 2.82,0.82a2.98,3 0 0 1 0.47,4a2.78,2.81 0 0 1 -1.45,0.98a2.7,2.72 0 0 1 1.65,1.04l-0.02,0l-0.01,-0.01zm-5.93,-2l1.97,0a1.65,1.67 0 0 0 1.07,-0.33a1.07,1.08 0 0 0 0.38,-0.91a1.11,1.13 0 0 0 -0.38,-0.93a1.65,1.67 0 0 0 -1.07,-0.33l-1.97,0l0,2.48l0,0.01zm3.3,4.41a1.14,1.15 0 0 0 0.38,-0.95a1.24,1.26 0 0 0 -0.4,-0.98a1.65,1.67 0 0 0 -1.14,-0.37l-2.14,0l0,2.63l2.11,0a1.75,1.78 0 0 0 1.11,-0.33l0.07,0l0,-0.02l0,0.01z" id="svg_267"/>
   <path class="cls-2" d="m53.77,474.39a3.19,3.22 0 0 1 1.65,-0.46l0,3.07l-0.78,0a2.4,2.42 0 0 0 -1.65,0.48a2.01,2.03 0 0 0 -0.54,1.67l0,4.39l-2.82,0l0,-9.47l2.87,0l0,1.58a3.89,3.93 0 0 1 1.26,-1.28l0,0.02l0.01,0z" id="svg_268"/>
   <path class="cls-2" d="m66.12,479.47l-6.5,0a1.92,1.94 0 0 0 0.55,1.34a1.65,1.67 0 0 0 1.21,0.48a1.47,1.5 0 0 0 1.47,-0.91l3.13,0a4.22,4.26 0 0 1 -0.85,1.67a4.03,4.06 0 0 1 -1.54,1.17a4.95,4.99 0 0 1 -2.06,0.43a4.95,4.99 0 0 1 -2.46,-0.61a4.2,4.24 0 0 1 -1.65,-1.67a5.05,5.1 0 0 1 -0.6,-2.57a5.22,5.25 0 0 1 0.6,-2.57a4.2,4.24 0 0 1 1.65,-1.67a5.43,5.47 0 0 1 4.95,0a4.13,4.17 0 0 1 1.65,1.67a4.95,4.99 0 0 1 0.6,2.48a7.21,7.26 0 0 1 -0.15,0.76l-0.02,0l0.02,0l0,-0.01zm-2.89,-1.67a1.47,1.5 0 0 0 -0.52,-1.19a1.87,1.89 0 0 0 -1.26,-0.43a1.82,1.84 0 0 0 -1.21,0.41a1.88,1.91 0 0 0 -0.6,1.19l3.6,0l0,0.02l-0.01,0z" id="svg_269"/>
   <path class="cls-2" d="m68.18,476.21a4.11,4.15 0 0 1 1.47,-1.67a3.84,3.87 0 0 1 2.09,-0.61a3.44,3.48 0 0 1 1.73,0.41a2.76,2.78 0 0 1 1.16,1.06l0,-1.34l2.91,0l0,9.47l-2.91,0l0,-1.34a2.91,2.94 0 0 1 -1.18,1.06a3.44,3.48 0 0 1 -1.73,0.41a3.81,3.85 0 0 1 -2.08,-0.61a4.26,4.3 0 0 1 -1.47,-1.67a5.74,5.77 0 0 1 -0.54,-2.57a5.59,5.62 0 0 1 0.54,-2.63l0,0.02l0.01,0zm5.88,0.87a2.01,2.03 0 0 0 -2.91,0a2.33,2.35 0 0 0 -0.6,1.67a2.4,2.42 0 0 0 0.6,1.67a1.99,2 0 0 0 2.91,0a2.7,2.72 0 0 0 0,-3.41l0,0.09l0,-0.01z" id="svg_270"/>
   <path class="cls-2" d="m85.82,483.51l-2.85,-3.98l0,3.98l-2.85,0l0,-12.56l2.87,0l0,6.93l2.82,-3.87l3.55,0l-3.89,4.73l3.91,4.73l-3.58,0l0,0.02z" id="svg_271"/>
   <path class="cls-2" d="m90.98,476.21a4.11,4.15 0 0 1 1.47,-1.67a3.89,3.93 0 0 1 2.11,-0.61a3.62,3.65 0 0 1 1.65,0.39a2.98,3 0 0 1 1.2,1.06l0,-4.39l2.87,0l0,12.56l-2.82,0l0,-1.37a3.01,3.04 0 0 1 -1.16,1.08a3.44,3.48 0 0 1 -1.65,0.41a3.89,3.93 0 0 1 -2.23,-0.63a4.26,4.3 0 0 1 -1.47,-1.67a5.74,5.77 0 0 1 -0.54,-2.57a5.59,5.62 0 0 1 0.57,-2.59l-0.02,-0.02l0.01,0zm5.91,0.87a2.04,2.05 0 0 0 -2.91,0a2.33,2.35 0 0 0 -0.6,1.67a2.4,2.42 0 0 0 0.6,1.67a2.01,2.03 0 0 0 2.91,0a2.7,2.72 0 0 0 0,-3.41l0,0.09l0,-0.01z" id="svg_272"/>
   <path class="cls-2" d="m104.72,483.03a4.48,4.52 0 0 1 -1.65,-1.67a5.05,5.1 0 0 1 -0.62,-2.57a4.95,4.99 0 0 1 0.64,-2.57a4.29,4.32 0 0 1 1.75,-1.67a5.12,5.17 0 0 1 2.46,-0.61a5.22,5.25 0 0 1 2.49,0.61a4.41,4.45 0 0 1 1.75,1.67a5.33,5.36 0 0 1 0,5.15a4.34,4.39 0 0 1 -1.75,1.67a5.5,5.54 0 0 1 -4.95,0l-0.11,0l-0.02,0l0.01,-0.01zm3.87,-2.52a2.33,2.35 0 0 0 0.57,-1.76a2.4,2.42 0 0 0 -0.55,-1.67a1.75,1.78 0 0 0 -1.39,-0.61a1.8,1.82 0 0 0 -1.39,0.61a2.4,2.42 0 0 0 -0.55,1.76a2.46,2.48 0 0 0 0.54,1.76a1.75,1.78 0 0 0 1.37,0.61a1.82,1.84 0 0 0 1.39,-0.69l0.02,0l-0.01,0z" id="svg_273"/>
   <path class="cls-2" d="m127.61,474.05l-2.54,9.47l-3.17,0l-1.47,-6.13l-1.54,6.13l-3.13,0l-2.54,-9.47l2.87,0l1.33,6.76l1.65,-6.76l2.98,0l1.65,6.65l1.3,-6.65l2.65,0l-0.02,0l-0.02,0z" id="svg_274"/>
   <path class="cls-2" d="m137.56,475.02a4.13,4.17 0 0 1 0.99,2.96l0,5.54l-2.85,0l0,-5.15a2.08,2.09 0 0 0 -0.49,-1.5a1.9,1.93 0 0 0 -2.61,0a2.08,2.09 0 0 0 -0.49,1.5l0,5.15l-2.87,0l0,-9.47l2.85,0l0,1.28a3.13,3.15 0 0 1 1.18,-1a3.89,3.93 0 0 1 1.65,-0.37a3.3,3.33 0 0 1 2.65,1.08l0,-0.02l-0.01,0z" id="svg_275"/>
   <path class="cls-4" d="m42.88,411.91a2.11,2.13 0 0 1 -0.81,0.85a2.82,2.85 0 0 1 -1.33,0.39l0,0.98l-0.54,0l0,-0.98a2.85,2.87 0 0 1 -1.65,-0.69a2.11,2.13 0 0 1 -0.71,-1.54l0.9,0a1.65,1.67 0 0 0 0.45,1a1.8,1.82 0 0 0 1.09,0.54l0,-3.33a9.46,9.53 0 0 1 -1.28,-0.46a2.09,2.11 0 0 1 -0.81,-0.67a2.01,2.03 0 0 1 -0.33,-1.21a2.04,2.05 0 0 1 0.66,-1.67a2.7,2.72 0 0 1 1.78,-0.67l0,-1.02l0.54,0l0,1.11a2.56,2.59 0 0 1 1.65,0.67a2.18,2.2 0 0 1 0.71,1.39l-0.9,0a1.54,1.56 0 0 0 -0.43,-0.82a1.75,1.78 0 0 0 -0.97,-0.48l0,3.22a8.09,8.15 0 0 1 1.26,0.43a1.97,1.98 0 0 1 1.18,1.93a2.2,2.22 0 0 1 -0.4,1.06l-0.07,-0.02zm-3.87,-4.17a3.3,3.33 0 0 0 1.18,0.59l0,-3.11a1.84,1.86 0 0 0 -1.16,0.41a1.43,1.45 0 0 0 -0.43,1.11a1.21,1.24 0 0 0 0.38,1.02l0.02,0l0,-0.01zm2.91,4.24a1.65,1.67 0 0 0 0.4,-1.11a1.26,1.28 0 0 0 -0.4,-1.04a3.62,3.65 0 0 0 -1.18,-0.61l0,3.22a1.75,1.78 0 0 0 1.18,-0.5l0.02,0l-0.02,0.02l0,0.01z" id="svg_276"/>
   <path class="cls-4" d="m44.93,410.98l0,-0.63l4.36,-5.94l0.99,0l0,5.83l1.28,0l0,0.74l-1.28,0l0,2.05l-0.81,0l0,-2.05l-4.56,0l0.02,0l-0.01,0zm4.56,-5.64l-3.6,4.91l3.6,0l0,-4.91z" id="svg_277"/>
   <path class="cls-4" d="m53.67,405.4a2.4,2.42 0 0 1 2.27,-1.15a2.35,2.37 0 0 1 2.27,1.15a6.61,6.65 0 0 1 0.64,3.22a6.85,6.89 0 0 1 -0.64,3.33a2.85,2.87 0 0 1 -4.56,0a6.85,6.89 0 0 1 -0.64,-3.33a6.61,6.65 0 0 1 0.64,-3.22l0.02,0l-0.01,0zm4.2,1.34a2.32,2.33 0 0 0 -0.6,-1.26a1.73,1.76 0 0 0 -1.33,-0.48a1.75,1.78 0 0 0 -1.33,0.48a2.44,2.46 0 0 0 -0.6,1.26a10.1,10.17 0 0 0 -0.15,1.91a10.45,10.52 0 0 0 0.15,1.94a2.44,2.46 0 0 0 0.6,1.26a1.75,1.78 0 0 0 1.33,0.48a1.75,1.78 0 0 0 1.33,-0.48a2.32,2.33 0 0 0 0.6,-1.26a9.06,9.12 0 0 0 0.17,-1.94a8.75,8.82 0 0 0 -0.17,-1.91z" id="svg_278"/>
   <path class="cls-4" d="m61.45,405.4a2.35,2.37 0 0 1 2.27,-1.15a2.4,2.42 0 0 1 2.27,1.15a6.61,6.65 0 0 1 0.64,3.22a6.85,6.89 0 0 1 -0.64,3.33a2.87,2.89 0 0 1 -4.56,0a7.06,7.11 0 0 1 -0.62,-3.33a6.61,6.65 0 0 1 0.64,-3.22l-0.01,0zm4.2,1.34a2.44,2.46 0 0 0 -0.6,-1.26a2.11,2.13 0 0 0 -2.63,0a2.44,2.46 0 0 0 -0.6,1.26a9.91,9.98 0 0 0 -0.17,1.91a10.26,10.32 0 0 0 0.17,1.94a2.44,2.46 0 0 0 0.6,1.26a2.06,2.07 0 0 0 2.63,0a2.44,2.46 0 0 0 0.6,-1.26a10.26,10.32 0 0 0 0.17,-1.94a9.91,9.98 0 0 0 -0.17,-1.91z" id="svg_279"/>
   <path class="cls-4" d="m68.44,412.94a0.64,0.65 0 0 1 -0.17,-0.46a0.55,0.56 0 0 1 0.6,-0.61a0.6,0.61 0 0 1 0.43,0.17a0.69,0.69 0 0 1 0.17,0.46a0.75,0.76 0 0 1 -0.17,0.46a0.6,0.61 0 0 1 -0.43,0.17a0.6,0.61 0 0 1 -0.45,-0.17l0.02,-0.02z" id="svg_280"/>
   <path class="cls-4" d="m71.74,405.4a2.35,2.37 0 0 1 2.27,-1.15a2.4,2.42 0 0 1 2.27,1.15a6.61,6.65 0 0 1 0.64,3.22a6.85,6.89 0 0 1 -0.64,3.33a2.87,2.89 0 0 1 -4.56,0a7.06,7.11 0 0 1 -0.62,-3.33a6.61,6.65 0 0 1 0.64,-3.22l-0.01,0zm4.2,1.34a2.44,2.46 0 0 0 -0.6,-1.26a1.75,1.78 0 0 0 -1.33,-0.48a1.73,1.76 0 0 0 -1.33,0.48a2.32,2.33 0 0 0 -0.6,1.26a8.75,8.82 0 0 0 -0.17,1.91a9.06,9.12 0 0 0 0.17,1.94a2.32,2.33 0 0 0 0.6,1.26a1.75,1.78 0 0 0 1.33,0.48a1.75,1.78 0 0 0 1.33,-0.48a2.44,2.46 0 0 0 0.6,-1.26a10.45,10.52 0 0 0 0.15,-1.94a10.1,10.17 0 0 0 -0.17,-1.91l0.04,0l-0.02,0z" id="svg_281"/>
   <path class="cls-4" d="m79.51,405.4a2.35,2.37 0 0 1 2.27,-1.15a2.4,2.42 0 0 1 2.27,1.15a6.61,6.65 0 0 1 0.62,3.22a6.87,6.91 0 0 1 -0.62,3.33a2.87,2.89 0 0 1 -4.56,0a7.06,7.11 0 0 1 -0.62,-3.33a6.61,6.65 0 0 1 0.64,-3.22l-0.01,0zm4.2,1.34a2.56,2.59 0 0 0 -0.6,-1.26a1.75,1.78 0 0 0 -1.33,-0.48a1.73,1.76 0 0 0 -1.33,0.48a2.32,2.33 0 0 0 -0.6,1.26a8.75,8.82 0 0 0 -0.17,1.91a9.06,9.12 0 0 0 0.17,1.94a2.32,2.33 0 0 0 0.6,1.26a1.75,1.78 0 0 0 1.33,0.48a1.75,1.78 0 0 0 1.33,-0.48a2.56,2.59 0 0 0 0.6,-1.26a10.45,10.52 0 0 0 0.15,-1.94a10.1,10.17 0 0 0 -0.15,-1.91z" id="svg_282"/>
   <path class="cls-4" d="m120.95,411.91a2.11,2.13 0 0 1 -0.81,0.85a2.76,2.78 0 0 1 -1.33,0.39l0,0.98l-0.54,0l0,-0.98a2.89,2.91 0 0 1 -1.65,-0.69a2.11,2.13 0 0 1 -0.71,-1.54l0.9,0a1.65,1.67 0 0 0 0.45,1a1.8,1.82 0 0 0 1.11,0.54l0,-3.33a9.03,9.1 0 0 1 -1.3,-0.46a1.95,1.96 0 0 1 -0.81,-0.67a1.9,1.93 0 0 1 -0.34,-1.21a2.04,2.05 0 0 1 0.66,-1.67a2.7,2.72 0 0 1 1.8,-0.67l0,-1.02l0.54,0l0,1.11a2.56,2.59 0 0 1 1.65,0.67a2.18,2.2 0 0 1 0.71,1.39l-1.05,0a1.54,1.56 0 0 0 -0.43,-0.82a1.75,1.78 0 0 0 -0.97,-0.48l0,3.22a8.09,8.15 0 0 1 1.26,0.43a2.2,2.22 0 0 1 0.83,0.69a2.14,2.16 0 0 1 0.33,1.26a2.2,2.22 0 0 1 -0.28,1.06l-0.02,-0.04l-0.01,0zm-3.87,-4.17a3.19,3.22 0 0 0 1.18,0.59l0,-3.11a1.87,1.89 0 0 0 -1.18,0.41a1.43,1.45 0 0 0 -0.43,1.11a1.21,1.24 0 0 0 0.4,1.02l0.02,0l0,-0.01zm2.91,4.24a1.52,1.54 0 0 0 0.4,-1.11a1.26,1.28 0 0 0 -0.4,-1.04a3.62,3.65 0 0 0 -1.18,-0.61l0,3.22a1.65,1.67 0 0 0 1.18,-0.5l0,0.02l0,0.01z" id="svg_283"/>
   <path class="cls-4" d="m122.99,405.12l0,-0.76l2.04,0l0,8.69l-0.85,0l0,-7.93l-1.18,0z" id="svg_284"/>
   <path class="cls-4" d="m130.51,409.4a3.91,3.95 0 0 0 1.2,-2.59a2.04,2.05 0 0 0 -0.4,-1.34a1.65,1.67 0 0 0 -1.35,-0.52a1.82,1.84 0 0 0 -1.42,0.59a2.44,2.46 0 0 0 -0.54,1.54l-0.85,0a3.06,3.09 0 0 1 0.81,-2.09a3.04,3.07 0 0 1 3.84,-0.09a2.4,2.42 0 0 1 0.73,1.89a4.26,4.3 0 0 1 -1.2,2.83a19.01,19.14 0 0 1 -2.98,2.68l4.43,0l0,0.72l-5.67,0l0,-0.61a26.18,26.36 0 0 0 3.39,-3l0,0.02l0.02,0l0,-0.01z" id="svg_285"/>
   <path class="cls-4" d="m135.12,405.4a2.87,2.89 0 0 1 4.56,0a6.81,6.85 0 0 1 0.62,3.22a7.06,7.11 0 0 1 -0.62,3.33a2.87,2.89 0 0 1 -4.56,0a8.65,8.71 0 0 1 0,-6.52l0,-0.04l0,0.02zm4.22,1.34a2.46,2.48 0 0 0 -0.62,-1.26a2.09,2.11 0 0 0 -2.61,0a2.46,2.48 0 0 0 -0.62,1.26a10.1,10.17 0 0 0 -0.15,1.91a10.45,10.52 0 0 0 0.15,1.94a2.46,2.48 0 0 0 0.62,1.26a2.04,2.05 0 0 0 2.61,0a2.46,2.48 0 0 0 0.62,-1.26a10.45,10.52 0 0 0 0.15,-1.94a10.1,10.17 0 0 0 -0.15,-1.91z" id="svg_286"/>
   <path class="cls-4" d="m142.89,405.4a2.87,2.89 0 0 1 4.56,0a6.81,6.85 0 0 1 0.62,3.22a7.06,7.11 0 0 1 -0.62,3.33a2.4,2.42 0 0 1 -2.29,1.15a2.35,2.37 0 0 1 -2.27,-1.15a6.87,6.91 0 0 1 -0.62,-3.33a6.61,6.65 0 0 1 0.62,-3.22l0.01,0zm4.2,1.34a2.32,2.33 0 0 0 -0.6,-1.26a1.73,1.76 0 0 0 -1.33,-0.48a1.75,1.78 0 0 0 -1.33,0.48a2.44,2.46 0 0 0 -0.6,1.26a10.1,10.17 0 0 0 -0.15,1.91a10.45,10.52 0 0 0 0.15,1.94a2.44,2.46 0 0 0 0.6,1.26a1.75,1.78 0 0 0 1.33,0.48a1.75,1.78 0 0 0 1.33,-0.48a2.32,2.33 0 0 0 0.6,-1.26a9.06,9.12 0 0 0 0.17,-1.94a8.75,8.82 0 0 0 -0.17,-1.91z" id="svg_287"/>
   <path class="cls-4" d="m149.89,412.94a0.64,0.65 0 0 1 -0.17,-0.46a0.55,0.56 0 0 1 0.6,-0.61a0.57,0.59 0 0 1 0.43,0.17a0.6,0.61 0 0 1 0.17,0.46a0.64,0.65 0 0 1 -0.17,0.46a0.57,0.59 0 0 1 -0.43,0.17a0.6,0.61 0 0 1 -0.45,-0.17l0.02,-0.02z" id="svg_288"/>
   <path class="cls-4" d="m153.19,405.4a2.87,2.89 0 0 1 4.56,0a6.81,6.85 0 0 1 0.62,3.22a7.06,7.11 0 0 1 -0.62,3.33a2.4,2.42 0 0 1 -2.29,1.15a2.35,2.37 0 0 1 -2.27,-1.15a6.87,6.91 0 0 1 -0.62,-3.33a6.61,6.65 0 0 1 0.62,-3.22l0.01,0zm4.2,1.34a2.32,2.33 0 0 0 -0.6,-1.26a1.73,1.76 0 0 0 -1.33,-0.48a1.75,1.78 0 0 0 -1.33,0.48a2.56,2.59 0 0 0 -0.6,1.26a10.1,10.17 0 0 0 -0.15,1.91a10.45,10.52 0 0 0 0.15,1.94a2.56,2.59 0 0 0 0.6,1.26a1.75,1.78 0 0 0 1.33,0.48a1.75,1.78 0 0 0 1.33,-0.48a2.32,2.33 0 0 0 0.6,-1.26a9.06,9.12 0 0 0 0.17,-1.94a8.75,8.82 0 0 0 -0.17,-1.91z" id="svg_289"/>
   <path class="cls-4" d="m160.95,405.4a2.4,2.42 0 0 1 2.27,-1.15a2.35,2.37 0 0 1 2.27,1.15a6.61,6.65 0 0 1 0.64,3.22a6.85,6.89 0 0 1 -0.64,3.33a2.82,2.85 0 0 1 -4.56,0a6.85,6.89 0 0 1 -0.64,-3.33a6.61,6.65 0 0 1 0.64,-3.22l0.02,0l-0.01,0zm4.2,1.34a2.32,2.33 0 0 0 -0.6,-1.26a1.73,1.76 0 0 0 -1.33,-0.48a1.75,1.78 0 0 0 -1.33,0.48a2.44,2.46 0 0 0 -0.6,1.26a10.1,10.17 0 0 0 -0.15,1.91a10.45,10.52 0 0 0 0.15,1.94a2.44,2.46 0 0 0 0.6,1.26a1.75,1.78 0 0 0 1.33,0.48a1.75,1.78 0 0 0 1.33,-0.48a2.32,2.33 0 0 0 0.6,-1.26a9.06,9.12 0 0 0 0.17,-1.94a8.75,8.82 0 0 0 -0.21,-1.91l0.04,0z" id="svg_290"/>
   <path class="cls-4" d="m199.02,411.91a2.11,2.13 0 0 1 -0.81,0.85a2.82,2.85 0 0 1 -1.33,0.39l0,0.98l-0.54,0l0,-0.98a2.85,2.87 0 0 1 -1.73,-0.69a2.11,2.13 0 0 1 -0.71,-1.54l0.97,0a1.65,1.67 0 0 0 0.45,1a1.8,1.82 0 0 0 1.11,0.54l0,-3.33a9.03,9.1 0 0 1 -1.3,-0.46a2.09,2.11 0 0 1 -0.81,-0.67a2.01,2.03 0 0 1 -0.33,-1.21a2.04,2.05 0 0 1 0.66,-1.67a2.7,2.72 0 0 1 1.8,-0.67l0,-1.02l0.54,0l0,1.11a2.56,2.59 0 0 1 1.65,0.67a2.18,2.2 0 0 1 0.71,1.39l-0.9,0a1.54,1.56 0 0 0 -0.43,-0.82a1.75,1.78 0 0 0 -0.97,-0.48l0,3.22a8.09,8.15 0 0 1 1.26,0.43a1.97,1.98 0 0 1 1.18,1.93a2.2,2.22 0 0 1 -0.4,1.06l-0.07,-0.02l-0.01,0zm-3.87,-4.17a3.19,3.22 0 0 0 1.18,0.59l0,-3.11a1.87,1.89 0 0 0 -1.18,0.41a1.43,1.45 0 0 0 -0.43,1.11a1.21,1.24 0 0 0 0.4,1.02l0.02,0l0,-0.01zm2.91,4.24a1.65,1.67 0 0 0 0.4,-1.11a1.26,1.28 0 0 0 -0.4,-1.04a3.62,3.65 0 0 0 -1.18,-0.61l0,3.22a1.75,1.78 0 0 0 1.18,-0.5l0,0.02l0,0.01z" id="svg_291"/>
   <path class="cls-4" d="m204.61,404.9a1.97,1.98 0 0 0 -1.75,0.91a5.5,5.54 0 0 0 -0.54,3.02a2.04,2.05 0 0 1 0.92,-1.15a2.82,2.85 0 0 1 1.54,-0.41a2.59,2.61 0 0 1 1.99,0.78a2.94,2.96 0 0 1 0.75,2.13a3.41,3.43 0 0 1 -0.33,1.45a2.33,2.35 0 0 1 -0.94,1.04a3.01,3.04 0 0 1 -1.56,0.39a2.61,2.63 0 0 1 -2.46,-1.15a6.28,6.31 0 0 1 -0.69,-3.33c0,-2.98 1,-4.47 3.04,-4.47a2.51,2.52 0 0 1 1.8,0.63a2.65,2.68 0 0 1 0.79,1.67l-0.79,0a1.65,1.67 0 0 0 -1.8,-1.52l0.02,0l0.01,0zm-1.05,3.33a1.87,1.89 0 0 0 -0.81,0.69a1.97,1.98 0 0 0 -0.33,1.15a2.35,2.37 0 0 0 0.57,1.67a2.18,2.2 0 0 0 1.65,0.65a1.99,2 0 0 0 1.47,-0.56a2.11,2.13 0 0 0 0.54,-1.56a2.33,2.35 0 0 0 -0.54,-1.67a1.95,1.96 0 0 0 -1.54,-0.61a2.59,2.61 0 0 0 -1.02,0.22l0,0.02z" id="svg_292"/>
   <path class="cls-4" d="m210.02,405.4a2.35,2.37 0 0 1 2.27,-1.15a2.4,2.42 0 0 1 2.27,1.15a6.61,6.65 0 0 1 0.62,3.22a6.87,6.91 0 0 1 -0.62,3.33a2.87,2.89 0 0 1 -4.56,0a7.06,7.11 0 0 1 -0.62,-3.33a6.61,6.65 0 0 1 0.64,-3.22l-0.01,0zm4.2,1.34a2.44,2.46 0 0 0 -0.6,-1.26a1.75,1.78 0 0 0 -1.33,-0.48a1.73,1.76 0 0 0 -1.33,0.48a2.32,2.33 0 0 0 -0.6,1.26a8.75,8.82 0 0 0 -0.17,1.91a9.06,9.12 0 0 0 0.17,1.94a2.32,2.33 0 0 0 0.6,1.26a1.75,1.78 0 0 0 1.33,0.48a1.75,1.78 0 0 0 1.33,-0.48a2.44,2.46 0 0 0 0.6,-1.26a10.45,10.52 0 0 0 0.15,-1.94a10.1,10.17 0 0 0 -0.15,-1.91z" id="svg_293"/>
   <path class="cls-4" d="m217.77,405.4a2.87,2.89 0 0 1 4.56,0a6.81,6.85 0 0 1 0.62,3.22a7.06,7.11 0 0 1 -0.62,3.33a2.87,2.89 0 0 1 -4.56,0a7.06,7.11 0 0 1 -0.62,-3.33a6.81,6.85 0 0 1 0.62,-3.22zm4.22,1.34a2.56,2.59 0 0 0 -0.6,-1.26a1.78,1.8 0 0 0 -1.33,-0.48a1.73,1.76 0 0 0 -1.33,0.48a2.32,2.33 0 0 0 -0.6,1.26a8.75,8.82 0 0 0 -0.17,1.91a9.06,9.12 0 0 0 0.17,1.94a2.32,2.33 0 0 0 0.6,1.26a1.75,1.78 0 0 0 1.33,0.48a1.8,1.82 0 0 0 1.33,-0.48a2.56,2.59 0 0 0 0.6,-1.26a10.45,10.52 0 0 0 0.15,-1.94a10.1,10.17 0 0 0 -0.15,-1.91z" id="svg_294"/>
   <path class="cls-4" d="m224.79,412.94a0.66,0.67 0 0 1 -0.17,-0.46a0.6,0.61 0 0 1 0.17,-0.46a0.64,0.65 0 0 1 0.85,0a0.6,0.61 0 0 1 0.17,0.46a0.66,0.67 0 0 1 -0.17,0.46a0.64,0.65 0 0 1 -0.85,0z" id="svg_295"/>
   <path class="cls-4" d="m228.06,405.4a2.87,2.89 0 0 1 4.56,0a6.61,6.65 0 0 1 0.62,3.22a6.87,6.91 0 0 1 -0.62,3.33a2.87,2.89 0 0 1 -4.56,0a7.06,7.11 0 0 1 -0.62,-3.33a6.81,6.85 0 0 1 0.62,-3.22zm4.22,1.34a2.56,2.59 0 0 0 -0.6,-1.26a1.78,1.8 0 0 0 -1.33,-0.48a1.73,1.76 0 0 0 -1.33,0.48a2.32,2.33 0 0 0 -0.6,1.26a8.75,8.82 0 0 0 -0.17,1.91a9.06,9.12 0 0 0 0.17,1.94a2.32,2.33 0 0 0 0.6,1.26a1.75,1.78 0 0 0 1.33,0.48a1.8,1.82 0 0 0 1.33,-0.48a2.56,2.59 0 0 0 0.6,-1.26a10.45,10.52 0 0 0 0.15,-1.94a10.1,10.17 0 0 0 -0.15,-1.91z" id="svg_296"/>
   <path class="cls-4" d="m235.83,405.4a2.87,2.89 0 0 1 4.56,0a6.81,6.85 0 0 1 0.62,3.22a7.06,7.11 0 0 1 -0.62,3.33a2.4,2.42 0 0 1 -2.29,1.15a2.37,2.39 0 0 1 -2.27,-1.15a8.65,8.71 0 0 1 0,-6.52l0,-0.04l0,0.02l0.01,0zm4.22,1.34a2.46,2.48 0 0 0 -0.62,-1.26a1.73,1.76 0 0 0 -1.33,-0.48a1.75,1.78 0 0 0 -1.33,0.48a2.56,2.59 0 0 0 -0.6,1.26a10.1,10.17 0 0 0 -0.15,1.91a10.45,10.52 0 0 0 0.15,1.94a2.56,2.59 0 0 0 0.6,1.26a1.75,1.78 0 0 0 1.33,0.48a1.75,1.78 0 0 0 1.33,-0.48a2.46,2.48 0 0 0 0.62,-1.26a10.45,10.52 0 0 0 0.15,-1.94a10.1,10.17 0 0 0 -0.15,-1.91z" id="svg_297"/>
   <path class="cls-4" d="m277.1,411.91a2.11,2.13 0 0 1 -0.81,0.85a2.76,2.78 0 0 1 -1.33,0.39l0,0.98l-0.54,0l0,-0.98a2.89,2.91 0 0 1 -1.65,-0.69a2.11,2.13 0 0 1 -0.71,-1.54l0.9,0a1.65,1.67 0 0 0 0.43,1a1.8,1.82 0 0 0 1.11,0.54l0,-3.33a9.03,9.1 0 0 1 -1.3,-0.46a1.95,1.96 0 0 1 -0.81,-0.67a1.9,1.93 0 0 1 -0.34,-1.21a2.11,2.13 0 0 1 0.66,-1.67a2.7,2.72 0 0 1 1.8,-0.67l0,-1.02l0.54,0l0,1.11a2.56,2.59 0 0 1 1.65,0.67a2.09,2.11 0 0 1 0.71,1.39l-0.88,0a1.65,1.67 0 0 0 -0.45,-0.82a1.75,1.78 0 0 0 -0.97,-0.48l0,3.22a8.09,8.15 0 0 1 1.26,0.43a2.2,2.22 0 0 1 0.83,0.69a2.14,2.16 0 0 1 0.33,1.26a2.2,2.22 0 0 1 -0.43,1.06l0,-0.04l-0.01,0zm-3.87,-4.17a3.3,3.33 0 0 0 1.18,0.59l0,-3.11a1.9,1.93 0 0 0 -1.18,0.41a1.43,1.45 0 0 0 -0.43,1.11a1.21,1.24 0 0 0 0.4,1.02l0.02,0l0,-0.01zm2.91,4.24a1.52,1.54 0 0 0 0.4,-1.11a1.26,1.28 0 0 0 -0.4,-1.04a3.62,3.65 0 0 0 -1.18,-0.61l0,3.22a1.65,1.67 0 0 0 1.18,-0.5l0,0.02l0,0.01z" id="svg_298"/>
   <path class="cls-4" d="m279.07,405.12l0,-0.76l2.04,0l0,8.69l-0.85,0l0,-7.93l-1.18,0z" id="svg_299"/>
   <path class="cls-4" d="m284.36,411.65l-1.24,3.15l-0.57,0l0.9,-3.15l0.92,0l-0.01,0z" id="svg_300"/>
   <path class="cls-4" d="m285.47,410.98l0,-0.63l4.36,-5.94l0.99,0l0,5.83l1.28,0l0,0.74l-1.28,0l0,2.05l-0.81,0l0,-2.05l-4.53,0l-0.01,0zm4.56,-5.64l-3.6,4.91l3.6,0l0,-4.91z" id="svg_301"/>
   <path class="cls-4" d="m294.18,405.4a2.4,2.42 0 0 1 2.27,-1.15a2.35,2.37 0 0 1 2.27,1.15a6.61,6.65 0 0 1 0.64,3.22a6.85,6.89 0 0 1 -0.64,3.33a2.82,2.85 0 0 1 -4.56,0a6.85,6.89 0 0 1 -0.64,-3.33a6.61,6.65 0 0 1 0.64,-3.22l0.02,0l-0.01,0zm4.2,1.34a2.32,2.33 0 0 0 -0.6,-1.26a1.73,1.76 0 0 0 -1.33,-0.48a1.75,1.78 0 0 0 -1.33,0.48a2.44,2.46 0 0 0 -0.6,1.26a10.1,10.17 0 0 0 -0.15,1.91a10.45,10.52 0 0 0 0.15,1.94a2.44,2.46 0 0 0 0.6,1.26a1.75,1.78 0 0 0 1.33,0.48a1.75,1.78 0 0 0 1.33,-0.48a2.32,2.33 0 0 0 0.6,-1.26a10.26,10.32 0 0 0 0.17,-1.94a9.91,9.98 0 0 0 -0.17,-1.91z" id="svg_302"/>
   <path class="cls-4" d="m301.95,405.4a2.35,2.37 0 0 1 2.27,-1.15a2.4,2.42 0 0 1 2.27,1.15a6.61,6.65 0 0 1 0.64,3.22a6.85,6.89 0 0 1 -0.64,3.33a2.87,2.89 0 0 1 -4.56,0a7.06,7.11 0 0 1 -0.62,-3.33a6.61,6.65 0 0 1 0.64,-3.22l-0.01,0zm4.2,1.34a2.44,2.46 0 0 0 -0.6,-1.26a1.75,1.78 0 0 0 -1.33,-0.48a1.73,1.76 0 0 0 -1.33,0.48a2.32,2.33 0 0 0 -0.6,1.26a8.75,8.82 0 0 0 -0.17,1.91a9.06,9.12 0 0 0 0.17,1.94a2.32,2.33 0 0 0 0.6,1.26a1.75,1.78 0 0 0 1.33,0.48a1.75,1.78 0 0 0 1.33,-0.48a2.44,2.46 0 0 0 0.6,-1.26a10.45,10.52 0 0 0 0.15,-1.94a10.1,10.17 0 0 0 -0.15,-1.91z" id="svg_303"/>
   <path class="cls-4" d="m308.97,412.94a0.66,0.67 0 0 1 -0.17,-0.46a0.6,0.61 0 0 1 0.17,-0.46a0.6,0.61 0 0 1 0.45,-0.17a0.54,0.54 0 0 1 0.4,0.17a0.6,0.61 0 0 1 0.17,0.46a0.66,0.67 0 0 1 -0.17,0.46a0.54,0.54 0 0 1 -0.4,0.17a0.6,0.61 0 0 1 -0.45,-0.17z" id="svg_304"/>
   <path class="cls-4" d="m312.27,405.4a2.35,2.37 0 0 1 2.27,-1.15a2.4,2.42 0 0 1 2.27,1.15a6.61,6.65 0 0 1 0.64,3.22a6.85,6.89 0 0 1 -0.64,3.33a2.87,2.89 0 0 1 -4.56,0a7.06,7.11 0 0 1 -0.62,-3.33a6.61,6.65 0 0 1 0.64,-3.22l-0.01,0zm4.2,1.34a2.44,2.46 0 0 0 -0.6,-1.26a1.75,1.78 0 0 0 -1.33,-0.48a1.73,1.76 0 0 0 -1.33,0.48a2.32,2.33 0 0 0 -0.6,1.26a8.75,8.82 0 0 0 -0.17,1.91a9.06,9.12 0 0 0 0.17,1.94a2.32,2.33 0 0 0 0.6,1.26a1.75,1.78 0 0 0 1.33,0.48a1.75,1.78 0 0 0 1.33,-0.48a2.44,2.46 0 0 0 0.6,-1.26a10.45,10.52 0 0 0 0.15,-1.94a10.1,10.17 0 0 0 -0.15,-1.91z" id="svg_305"/>
   <path class="cls-4" d="m320.04,405.4a2.35,2.37 0 0 1 2.27,-1.15a2.4,2.42 0 0 1 2.27,1.15a6.61,6.65 0 0 1 0.62,3.22a6.87,6.91 0 0 1 -0.62,3.33a2.87,2.89 0 0 1 -4.56,0a7.06,7.11 0 0 1 -0.62,-3.33a6.61,6.65 0 0 1 0.64,-3.22l-0.01,0zm4.2,1.34a2.56,2.59 0 0 0 -0.6,-1.26a1.75,1.78 0 0 0 -1.33,-0.48a1.73,1.76 0 0 0 -1.33,0.48a2.32,2.33 0 0 0 -0.6,1.26a8.75,8.82 0 0 0 -0.17,1.91a9.06,9.12 0 0 0 0.17,1.94a2.32,2.33 0 0 0 0.6,1.26a1.75,1.78 0 0 0 1.33,0.48a1.75,1.78 0 0 0 1.33,-0.48a2.56,2.59 0 0 0 0.6,-1.26a10.45,10.52 0 0 0 0.15,-1.94a10.1,10.17 0 0 0 -0.15,-1.91z" id="svg_306"/>
   <path class="cls-4" d="m355.15,411.91a2.11,2.13 0 0 1 -0.81,0.85a2.76,2.78 0 0 1 -1.33,0.39l0,0.98l-0.54,0l0,-0.98a2.89,2.91 0 0 1 -1.73,-0.69a2.11,2.13 0 0 1 -0.71,-1.54l0.9,0a1.65,1.67 0 0 0 0.43,1a1.8,1.82 0 0 0 1.11,0.54l0,-3.33a9.03,9.1 0 0 1 -1.3,-0.46a1.95,1.96 0 0 1 -0.81,-0.67a1.9,1.93 0 0 1 -0.34,-1.21a2.11,2.13 0 0 1 0.66,-1.67a2.7,2.72 0 0 1 1.8,-0.67l0,-1.02l0.54,0l0,1.11a2.56,2.59 0 0 1 1.65,0.67a2.09,2.11 0 0 1 0.71,1.39l-0.9,0a1.43,1.45 0 0 0 -0.43,-0.82a1.75,1.78 0 0 0 -0.97,-0.48l0,3.22a8.09,8.15 0 0 1 1.26,0.43a2.2,2.22 0 0 1 0.83,0.69a2.14,2.16 0 0 1 0.33,1.26a2.2,2.22 0 0 1 -0.34,1.06l0,-0.04l-0.02,0zm-3.87,-4.17a3.3,3.33 0 0 0 1.18,0.59l0,-3.11a1.9,1.93 0 0 0 -1.18,0.41a1.43,1.45 0 0 0 -0.43,1.11a1.21,1.24 0 0 0 0.4,1.02l0.02,0l0,-0.01zm2.91,4.24a1.52,1.54 0 0 0 0.4,-1.11a1.26,1.28 0 0 0 -0.4,-1.04a3.62,3.65 0 0 0 -1.18,-0.61l0,3.22a1.65,1.67 0 0 0 1.18,-0.5l0,0.02l0,0.01z" id="svg_307"/>
   <path class="cls-4" d="m357.21,405.12l0,-0.76l2.04,0l0,8.69l-0.9,0l0,-7.93l-1.16,0l0.02,0z" id="svg_308"/>
   <path class="cls-4" d="m362.43,411.65l-1.24,3.15l-0.57,0l0.9,-3.15l0.92,0l-0.01,0z" id="svg_309"/>
   <path class="cls-4" d="m364.44,407.85a2.04,2.05 0 0 1 -0.38,-1.28a2.09,2.11 0 0 1 0.33,-1.17a2.25,2.26 0 0 1 0.97,-0.82a3.55,3.59 0 0 1 1.52,-0.3a3.62,3.65 0 0 1 1.54,0.3a2.2,2.22 0 0 1 0.97,0.82a1.97,1.98 0 0 1 0.33,1.17a1.95,1.96 0 0 1 -1.52,2a2.35,2.37 0 0 1 1.28,0.8a2.11,2.13 0 0 1 0.47,1.41a2.4,2.42 0 0 1 -0.38,1.34a2.35,2.37 0 0 1 -1.07,0.89a4.24,4.28 0 0 1 -3.19,0a2.32,2.33 0 0 1 -1.05,-0.89a2.27,2.29 0 0 1 -0.38,-1.34a2.11,2.13 0 0 1 0.47,-1.41a2.35,2.37 0 0 1 1.28,-0.8a2.25,2.26 0 0 1 -1.14,-0.76l-0.02,0.02l-0.02,0.01zm0.81,1.58a1.54,1.56 0 0 0 -0.62,1.34a1.65,1.67 0 0 0 0.6,1.37a2.94,2.96 0 0 0 3.3,0a1.65,1.67 0 0 0 0.6,-1.37a1.54,1.56 0 0 0 -0.62,-1.34a2.65,2.68 0 0 0 -1.65,-0.46a2.7,2.72 0 0 0 -1.59,0.39l0,0.04l-0.02,0.02l0.01,0zm3.06,-3.98a2.23,2.24 0 0 0 -1.47,-0.46a2.27,2.29 0 0 0 -1.45,0.43a1.65,1.67 0 0 0 0,2.44a2.27,2.29 0 0 0 1.45,0.46a2.2,2.22 0 0 0 1.39,-0.48a1.42,1.43 0 0 0 0.55,-1.19a1.45,1.47 0 0 0 -0.47,-1.26l0,0.04l0,0.01z" id="svg_310"/>
   <path class="cls-4" d="m372.4,405.4a2.85,2.87 0 0 1 4.56,0a6.61,6.65 0 0 1 0.64,3.22a6.85,6.89 0 0 1 -0.64,3.33a2.37,2.39 0 0 1 -2.27,1.15a2.4,2.42 0 0 1 -2.29,-1.15a7.06,7.11 0 0 1 -0.62,-3.33a6.61,6.65 0 0 1 0.64,-3.22l-0.02,0l0.01,0zm4.2,1.34a2.44,2.46 0 0 0 -0.6,-1.26a2.11,2.13 0 0 0 -2.63,0a2.44,2.46 0 0 0 -0.6,1.26a9.91,9.98 0 0 0 -0.17,1.91a10.26,10.32 0 0 0 0.17,1.94a2.44,2.46 0 0 0 0.6,1.26a2.06,2.07 0 0 0 2.63,0a2.44,2.46 0 0 0 0.6,-1.26a10.26,10.32 0 0 0 0.17,-1.94a9.91,9.98 0 0 0 -0.17,-1.91z" id="svg_311"/>
   <path class="cls-4" d="m380.18,405.4a2.35,2.37 0 0 1 2.27,-1.15a2.4,2.42 0 0 1 2.27,1.15a6.61,6.65 0 0 1 0.62,3.22a6.87,6.91 0 0 1 -0.62,3.33a2.87,2.89 0 0 1 -4.56,0a7.06,7.11 0 0 1 -0.62,-3.33a6.61,6.65 0 0 1 0.64,-3.22l-0.01,0zm4.2,1.34a2.44,2.46 0 0 0 -0.6,-1.26a1.75,1.78 0 0 0 -1.33,-0.48a1.73,1.76 0 0 0 -1.33,0.48a2.32,2.33 0 0 0 -0.6,1.26a8.75,8.82 0 0 0 -0.17,1.91a9.06,9.12 0 0 0 0.17,1.94a2.32,2.33 0 0 0 0.6,1.26a1.75,1.78 0 0 0 1.33,0.48a1.75,1.78 0 0 0 1.33,-0.48a2.44,2.46 0 0 0 0.6,-1.26a10.45,10.52 0 0 0 0.15,-1.94a10.1,10.17 0 0 0 -0.15,-1.91z" id="svg_312"/>
   <path class="cls-4" d="m387.17,412.94a0.66,0.67 0 0 1 -0.17,-0.46a0.6,0.61 0 0 1 0.17,-0.46a0.6,0.61 0 0 1 0.45,-0.17a0.54,0.54 0 0 1 0.4,0.17a0.6,0.61 0 0 1 0.17,0.46a0.66,0.67 0 0 1 -0.17,0.46a0.54,0.54 0 0 1 -0.4,0.17a0.6,0.61 0 0 1 -0.45,-0.17z" id="svg_313"/>
   <path class="cls-4" d="m390.49,405.4a2.35,2.37 0 0 1 2.27,-1.15a2.4,2.42 0 0 1 2.27,1.15a6.61,6.65 0 0 1 0.64,3.22a6.85,6.89 0 0 1 -0.64,3.33a2.87,2.89 0 0 1 -4.56,0a7.06,7.11 0 0 1 -0.62,-3.33a6.61,6.65 0 0 1 0.64,-3.22l-0.01,0zm4.2,1.34a2.44,2.46 0 0 0 -0.6,-1.26a1.75,1.78 0 0 0 -1.33,-0.48a1.73,1.76 0 0 0 -1.33,0.48a2.32,2.33 0 0 0 -0.6,1.26a8.75,8.82 0 0 0 -0.17,1.91a9.06,9.12 0 0 0 0.17,1.94a2.32,2.33 0 0 0 0.6,1.26a1.75,1.78 0 0 0 1.33,0.48a1.75,1.78 0 0 0 1.33,-0.48a2.44,2.46 0 0 0 0.6,-1.26a10.45,10.52 0 0 0 0.15,-1.94a10.1,10.17 0 0 0 -0.15,-1.91z" id="svg_314"/>
   <path class="cls-4" d="m398.26,405.4a2.35,2.37 0 0 1 2.27,-1.15a2.4,2.42 0 0 1 2.27,1.15a6.61,6.65 0 0 1 0.62,3.22a6.87,6.91 0 0 1 -0.62,3.33a2.87,2.89 0 0 1 -4.56,0a7.06,7.11 0 0 1 -0.62,-3.33a6.61,6.65 0 0 1 0.64,-3.22l-0.01,0zm4.2,1.34a2.56,2.59 0 0 0 -0.6,-1.26a1.75,1.78 0 0 0 -1.33,-0.48a1.73,1.76 0 0 0 -1.33,0.48a2.32,2.33 0 0 0 -0.6,1.26a8.75,8.82 0 0 0 -0.17,1.91a9.06,9.12 0 0 0 0.17,1.94a2.32,2.33 0 0 0 0.6,1.26a1.75,1.78 0 0 0 1.33,0.48a1.75,1.78 0 0 0 1.33,-0.48a2.56,2.59 0 0 0 0.6,-1.26a10.45,10.52 0 0 0 0.15,-1.94a10.1,10.17 0 0 0 -0.15,-1.91z" id="svg_315"/>
   <circle class="cls-11" cx="108.1" cy="413.07" id="svg_322" r="20.44" transform="matrix(1.65163 0 0 1.66372 0.973274 -142.476)"/>
   <circle class="cls-12" cx="164.62" cy="413.07" id="svg_323" r="20.44" transform="matrix(1.65163 0 0 1.66372 0.973274 -142.476)"/>
   <circle class="cls-13" cx="221.15" cy="413.07" id="svg_324" r="20.44" transform="matrix(1.65163 0 0 1.66372 0.973274 -142.476)"/>
   <path class="cls-2" d="m393.19,46.18a12.82,12.92 0 0 0 -9.91,21.16l0,0a12.85,12.95 0 0 0 4.79,3.72l0,0l0.45,0.17l0.17,0l0.38,0.13l0.26,0.09l0.36,0.11l0.33,0.09l0.33,0l0.36,0l0.3,0l0.4,0l0.26,0l0.47,0l1.8,0l0.47,0l0.26,0l0.4,0l0.3,0l0.36,0l0.33,0l0.33,-0.09l0.36,-0.11l0.26,-0.09l0.38,-0.13l0.17,0l0.47,-0.17l0,0a12.85,12.95 0 0 0 4.84,-3.63l0,0a12.82,12.92 0 0 0 -9.91,-21.16l0.21,-0.09l-0.02,0l0.04,0l-0.01,0zm2.54,13.44a3.17,3.2 0 0 1 -0.52,0.3l0,0a4.84,4.89 0 0 1 -3.94,0l0,0a3.17,3.2 0 0 1 -0.52,-0.3a4.69,4.73 0 1 1 5.1,0l-0.12,0zm-5.29,0.91l0.11,0l0.38,0.17l0.33,0.13l0,0a5.57,5.6 0 0 0 3.68,0l0,0l0.33,-0.13l0.38,-0.17l0.11,0l0.17,-0.11a9.44,9.51 0 0 1 6.19,6.52a12.09,12.19 0 0 1 -3.87,3l0,0l-0.47,0.2l-0.11,0l-0.4,0.17l-0.17,0l-0.38,0.13l-0.24,0l-0.33,0.11l-0.3,0l-0.3,0l-0.33,0l-0.26,0l-0.26,0.48l-0.26,0l-0.43,0l-1.65,0l-0.43,0l-0.26,0l-0.38,0l-0.26,0l-0.33,0l-0.3,0l-0.3,0l-0.33,-0.11l-0.24,0l-0.38,-0.13l-0.17,0l-0.43,-0.17l-0.11,0l-0.47,-0.2l0,0a12.09,12.19 0 0 1 -3.87,-3a9.44,9.51 0 0 1 6.19,-6.52l0.15,-0.37l0.02,0l-0.04,0l0.03,0zm12.47,5.6a10.27,10.35 0 0 0 -6.02,-6.33a5.57,5.6 0 1 0 -7.42,0a10.27,10.35 0 0 0 -6.02,6.33a11.99,12.08 0 1 1 19.44,0l0.02,0z" id="svg_362"/>
   <g id="selectorGroup111">
    <path fill="none" id="selectedBox111" stroke="#22C" stroke-dasharray="5,5"/>
   </g>
   <text fill="#ffffff" font-family="Helvetica" font-size="13" font-weight="bold" id="svg_376" stroke-width="0" text-anchor="middle" transform="matrix(2.145 0 0 2.1607 0.973274 -0.487495)" x="68.91" xml:space="preserve" y="72.63">Montly Expenses</text>
   <text fill="#999999" font-family="Helvetica" font-size="8" id="svg_377" stroke-width="0" text-anchor="middle" transform="matrix(2.145 0 0 2.1607 0.973274 -0.487495)" x="39.88" xml:space="preserve" y="279.34">Food</text>
   <text fill="#999999" font-family="Helvetica" font-size="7" id="svg_378" stroke-width="0" text-anchor="middle" transform="matrix(2.145 0 0 2.1607 0.973274 -0.487495)" x="82.49" xml:space="preserve" y="279.43">Clothes</text>
   <text fill="#999999" font-family="Helvetica" font-size="7" id="svg_379" stroke-width="0" text-anchor="middle" transform="matrix(2.145 0 0 2.1607 0.973274 -0.487495)" x="126.98" xml:space="preserve" y="279.43">Transportation</text>
   <text fill="#999999" font-family="Helvetica" font-size="7" id="svg_380" stroke-width="0" text-anchor="middle" transform="matrix(2.145 0 0 2.1607 0.973274 -0.487495)" x="170.11" xml:space="preserve" y="279.22">Others</text>
   <path d="m40.7,296.41l42.6,0l0,0c2.82,0 5.52,1.63 7.54,4.52c2.01,2.89 3.13,6.83 3.13,10.91l0,77.11c0,0 0,0 0,0l-63.89,0l0,0c0,0 0,0 0,0l0,-77.11l0,0c0,-8.52 4.77,-15.43 10.66,-15.43l-0.02,0l-0.01,0z" fill="url(#svg_3)" id="svg_15"/>
   <path d="m119.48,220.64l42.6,0l0,0c2.82,0 5.52,2.96 7.54,8.28c2.01,5.32 3.13,12.51 3.13,19.99l0,141.3c0,0 0,0 0,0l-63.89,0l0,0c0,0 0,0 0,0l0,-141.3l0,0c0,-15.6 4.77,-28.27 10.66,-28.27l-0.02,0l-0.01,0z" fill="url(#svg_3)" id="svg_4"/>
   <path d="m196.9,276.06l42.6,0l0,0c2.82,0 5.52,1.98 7.54,5.58c2.01,3.59 3.13,8.41 3.13,13.47l0,95.13c0,0 0,0 0,0l-63.89,0l0,0c0,0 0,0 0,0l0,-95.13l0,0c0,-10.5 4.77,-19.03 10.66,-19.03l-0.02,0l-0.01,-0.01z" fill="url(#svg_3)" id="svg_5"/>
   <path d="m277.08,201.84l42.6,0l0,0c2.82,0 5.52,3.28 7.54,9.19c2.01,5.89 3.13,13.89 3.13,22.21l0,156.97c0,0 0,0 0,0l-63.89,0l0,0c0,0 0,0 0,0l0,-156.97l0,0c0,-17.33 4.77,-31.4 10.66,-31.4l-0.02,0l-0.01,0z" fill="url(#svg_3)" id="svg_6"/>
   <path d="m356.37,155.82l42.6,0l0,0c2.82,0 5.52,4.11 7.54,11.43c2.01,7.35 3.13,17.29 3.13,27.64l0,195.32c0,0 0,0 0,0l-63.89,0l0,0c0,0 0,0 0,0l0,-195.32l0,0c0,-21.56 4.77,-39.07 10.66,-39.07l-0.02,0l-0.01,0z" fill="url(#svg_3)" id="svg_7"/>
   <ellipse cx="84.4" cy="537.68" fill="url(#svg_3)" id="svg_9" rx="39.17" ry="37.09"/>
   <g id="svg_10">
    <path class="cls-2" d="m66.09,542.69l0,-2.65l6.07,-8.75l3.66,0l0,8.56l1.65,0l0,2.85l-1.65,0l0,2.5l-3.3,0l0,-2.5l-6.45,0l0.01,0zm6.7,-7.78l-3.3,4.99l3.3,0l0,-4.99z" id="svg_325"/>
    <path class="cls-2" d="m89.47,533.92l-6.02,0l0,2.68a3.01,3.04 0 0 1 1.07,-0.69a4.11,4.15 0 0 1 1.5,-0.26a4.17,4.21 0 0 1 2.4,0.65a3.75,3.78 0 0 1 1.39,1.67a5.62,5.67 0 0 1 0.45,2.26a4.95,4.99 0 0 1 -1.26,3.59a4.69,4.73 0 0 1 -3.55,1.32a6.14,6.18 0 0 1 -2.68,-0.54a4.05,4.08 0 0 1 -1.75,-1.5a4.26,4.3 0 0 1 -0.66,-2.18l3.19,0a1.75,1.78 0 0 0 0.55,1a1.73,1.76 0 0 0 1.2,0.39a1.65,1.67 0 0 0 1.33,-0.59a2.49,2.5 0 0 0 0.45,-1.56a2.08,2.09 0 0 0 -0.47,-1.47a1.65,1.67 0 0 0 -1.33,-0.5a1.8,1.82 0 0 0 -1.07,0.33a1.47,1.5 0 0 0 -0.55,0.85l-3.15,0l0,-8.36l8.97,0l0,2.87l0,0.04l0,0.01z" id="svg_326"/>
    <path class="cls-2" d="m93.38,532.19a3.19,3.22 0 0 1 2.33,-0.87a3.01,3.04 0 0 1 3.19,3.33a2.98,3 0 0 1 -3.19,3.33a3.3,3.33 0 0 1 -2.33,-0.95a3.19,3.22 0 0 1 -0.9,-2.42a3.13,3.15 0 0 1 0.9,-2.42zm1.39,2.42c0,0.89 0.3,1.32 0.9,1.32a0.79,0.8 0 0 0 0.69,-0.33a1.65,1.67 0 0 0 0.26,-0.98c0,-0.89 -0.33,-1.34 -0.94,-1.34s-0.99,0.46 -0.99,1.34l0.09,0l0,-0.02zm10.76,-3.07l-7.4,13.63l-3.25,0l7.4,-13.63l3.25,0zm-2.99,8.15a3.17,3.2 0 0 1 2.29,-0.85a3.3,3.33 0 0 1 2.32,0.85a3.72,3.76 0 0 1 0,4.84a3.3,3.33 0 0 1 -2.32,0.85a3.3,3.33 0 0 1 -2.29,-5.69zm1.65,1.41a1.65,1.67 0 0 0 -0.26,1.02c0,0.87 0.33,1.32 0.92,1.32a0.81,0.82 0 0 0 0.69,-0.33a1.65,1.67 0 0 0 0.26,-0.98a1.65,1.67 0 0 0 -0.26,-1a0.85,0.87 0 0 0 -1.37,0l0,-0.02l0.02,-0.02z" id="svg_327"/>
   </g>
   <g id="svg_19">
    <ellipse cx="178.08" cy="537.29" fill="url(#svg_3)" id="svg_12" rx="39.17" ry="37.09"/>
    <g id="svg_16">
     <path class="cls-2" d="m159.22,542.04c1.26,-1.06 2.25,-1.93 2.98,-2.57a11.36,11.45 0 0 0 1.82,-2.11a3.77,3.8 0 0 0 0.75,-2.13a1.82,1.84 0 0 0 -0.36,-1.24a1.33,1.34 0 0 0 -1.09,-0.46a1.33,1.34 0 0 0 -1.14,0.54a2.46,2.48 0 0 0 -0.4,1.56l-3.17,0a5.29,5.32 0 0 1 0.69,-2.74a4.03,4.06 0 0 1 1.75,-1.67a5.5,5.54 0 0 1 2.4,-0.54a4.69,4.73 0 0 1 3.44,1.19a4.15,4.19 0 0 1 1.16,3.07a5.97,6 0 0 1 -1.39,3.85a20.93,21.09 0 0 1 -3.55,3.46l5.2,0l0,2.7l-9.65,0l0,-2.42l0.6,-0.48l-0.02,0l0,-0.01z" id="svg_328"/>
     <path class="cls-2" d="m180.2,533.92l-6.02,0l0,2.68a2.87,2.89 0 0 1 1.07,-0.69a4.11,4.15 0 0 1 1.5,-0.26a4.17,4.21 0 0 1 2.4,0.65a3.96,4 0 0 1 1.39,1.67a5.62,5.67 0 0 1 0.45,2.26a4.95,4.99 0 0 1 -1.26,3.59a4.69,4.73 0 0 1 -3.55,1.32a6.14,6.18 0 0 1 -2.68,-0.54a4.05,4.08 0 0 1 -1.75,-1.5a4.11,4.15 0 0 1 -0.66,-2.18l3.19,0a1.65,1.67 0 0 0 0.55,1a1.65,1.67 0 0 0 1.2,0.39a1.65,1.67 0 0 0 1.33,-0.59a2.49,2.5 0 0 0 0.45,-1.56a2.08,2.09 0 0 0 -0.47,-1.47a1.65,1.67 0 0 0 -1.33,-0.5a1.8,1.82 0 0 0 -1.07,0.33a1.39,1.41 0 0 0 -0.55,0.85l-3.17,0l0,-8.36l8.97,0l0,2.87l0.02,0.04l0,0.01z" id="svg_329"/>
     <path class="cls-2" d="m183.99,532.19a3.53,3.56 0 0 1 4.62,0a3.13,3.15 0 0 1 0.9,2.42a2.98,3 0 0 1 -3.19,3.33a3.3,3.33 0 0 1 -2.32,-0.85a3.19,3.22 0 0 1 -0.9,-2.42a3.13,3.15 0 0 1 0.9,-2.46l-0.02,-0.02l0.01,0zm1.37,2.42c0,0.89 0.33,1.32 0.92,1.32a0.79,0.8 0 0 0 0.69,-0.33a1.65,1.67 0 0 0 0.26,-0.98c0,-0.89 -0.33,-1.34 -0.94,-1.34s-0.9,0.46 -0.9,1.34l-0.02,0l0,-0.02zm10.79,-3.07l-7.4,13.63l-3.1,0l7.4,-13.63l3.1,0zm-2.99,8.15a3.17,3.2 0 0 1 2.29,-0.85a3.3,3.33 0 1 1 0,6.54a3.3,3.33 0 0 1 -2.29,-5.69l0,-0.02l0,0.01zm1.65,1.41a1.65,1.67 0 0 0 -0.26,1.02c0,0.87 0.33,1.32 0.92,1.32a0.81,0.82 0 0 0 0.69,-0.33a1.65,1.67 0 0 0 0.26,-0.98a1.65,1.67 0 0 0 -0.26,-1a0.81,0.82 0 0 0 -0.69,-0.35a0.78,0.78 0 0 0 -0.71,0.33l0.04,0l0,-0.02z" id="svg_330"/>
    </g>
   </g>
   <g id="svg_20">
    <ellipse cx="274.15" cy="538.24" fill="url(#svg_3)" id="svg_13" rx="39.17" ry="37.09"/>
    <g id="svg_17">
     <path class="cls-2" d="m255.63,542.98c1.26,-1.06 2.25,-1.93 2.98,-2.57a11.36,11.45 0 0 0 1.82,-2.11a3.68,3.72 0 0 0 0.75,-2.13a1.82,1.84 0 0 0 -0.38,-1.24a1.28,1.3 0 0 0 -1.09,-0.46a1.37,1.39 0 0 0 -1.14,0.54a2.46,2.48 0 0 0 -0.4,1.56l-3.17,0a5.46,5.49 0 0 1 0.69,-2.74a4.03,4.06 0 0 1 1.75,-1.67a5.57,5.6 0 0 1 2.4,-0.54a4.67,4.71 0 0 1 3.44,1.19a4.17,4.21 0 0 1 1.18,3.07a6.07,6.11 0 0 1 -1.39,3.85a21.08,21.25 0 0 1 -3.58,3.46l5.2,0l0,2.7l-9.65,0l0,-2.42l0.6,-0.48l0,-0.01z" id="svg_331"/>
     <path class="cls-2" d="m267.98,533.64a5.43,5.47 0 0 1 8.27,0a9.18,9.25 0 0 1 1.28,5.25a9.29,9.36 0 0 1 -1.28,5.3a5.43,5.47 0 0 1 -8.27,0a9.31,9.38 0 0 1 -1.26,-5.3a9.18,9.25 0 0 1 1.26,-5.25zm5.86,2.22a1.97,1.98 0 0 0 -3.46,0a8.27,8.32 0 0 0 -0.43,3a13.04,13.14 0 0 0 0.15,2.18a2.91,2.94 0 0 0 0.62,1.41a2.11,2.13 0 0 0 2.78,0a2.91,2.94 0 0 0 0.62,-1.41a13.04,13.14 0 0 0 0.15,-2.18a8.27,8.32 0 0 0 -0.43,-3.04l0,0.04l0.01,0z" id="svg_332"/>
     <path class="cls-2" d="m280.45,533.12a3.19,3.22 0 0 1 5.5,2.42a3.3,3.33 0 0 1 -0.88,2.42a3.19,3.22 0 0 1 -5.52,-2.42a3.13,3.15 0 0 1 0.9,-2.42zm1.37,2.42c0,0.89 0.33,1.32 0.92,1.32a0.79,0.8 0 0 0 0.69,-0.33a1.65,1.67 0 0 0 0.26,-0.98c0,-0.89 -0.33,-1.34 -0.94,-1.34s-0.92,0.46 -0.92,1.34l0,-0.02zm10.79,-3.07l-7.4,13.63l-3.17,0l7.4,-13.63l3.17,0zm-3.01,8.15a3.19,3.22 0 0 1 5.5,2.42a3.19,3.22 0 0 1 -0.88,2.42a3.6,3.63 0 0 1 -4.62,0a3.72,3.76 0 0 1 0,-4.84l0.02,0l-0.02,0l0,0.01zm1.65,1.41a1.78,1.8 0 0 0 -0.24,1.02c0,0.87 0.33,1.32 0.92,1.32a0.81,0.82 0 0 0 0.69,-0.33a1.65,1.67 0 0 0 0.26,-0.98a1.65,1.67 0 0 0 -0.26,-1a0.81,0.82 0 0 0 -0.69,-0.35a0.81,0.82 0 0 0 -0.75,0.33l0.04,0l0.02,-0.02z" id="svg_333"/>
    </g>
   </g>
   <g id="svg_21">
    <ellipse cx="363.66" cy="538.24" fill="url(#svg_3)" id="svg_14" rx="39.17" ry="37.09"/>
    <g id="svg_18">
     <path class="cls-2" d="m345.64,534.11l0,-3.07l5.35,0l0,14.13l-3.42,0l0,-11.04l-1.9,0l0,-0.02l-0.02,0l-0.01,0z" id="svg_334"/>
     <path class="cls-2" d="m355.06,532.71a5.43,5.47 0 0 1 8.27,0a9.18,9.25 0 0 1 1.28,5.25a9.29,9.36 0 0 1 -1.28,5.3a5.43,5.47 0 0 1 -8.27,0a9.31,9.38 0 0 1 -1.26,-5.3a9.18,9.25 0 0 1 1.26,-5.25zm5.88,2.22a1.65,1.67 0 0 0 -1.75,-1.06a1.65,1.67 0 0 0 -1.75,1.06a8.27,8.32 0 0 0 -0.43,3a13.04,13.14 0 0 0 0.15,2.18a2.91,2.94 0 0 0 0.62,1.41a2.11,2.13 0 0 0 2.78,0a2.76,2.78 0 0 0 0.62,-1.41a13.04,13.14 0 0 0 0.15,-2.18a8.37,8.43 0 0 0 -0.4,-3.04l0,0.04l0.02,0l0.01,0z" id="svg_335"/>
     <path class="cls-2" d="m367.52,532.19a3.53,3.56 0 0 1 4.62,0a3.13,3.15 0 0 1 0.88,2.42a2.98,3 0 0 1 -3.19,3.33a3.3,3.33 0 0 1 -2.32,-0.85a3.19,3.22 0 0 1 -0.9,-2.42a3.13,3.15 0 0 1 0.9,-2.46l0,-0.02l0.01,0zm1.37,2.42c0,0.89 0.33,1.32 0.92,1.32a0.79,0.8 0 0 0 0.69,-0.33a1.65,1.67 0 0 0 0.26,-0.98c0,-0.89 -0.33,-1.34 -0.94,-1.34s-0.92,0.46 -0.92,1.34l0,-0.02zm10.79,-3.07l-7.4,13.63l-3.17,0l7.4,-13.63l3.17,0zm-3.01,8.15a3.19,3.22 0 0 1 5.5,2.42a3.19,3.22 0 0 1 -0.88,2.42a3.6,3.63 0 0 1 -4.62,0a3.72,3.76 0 0 1 0,-4.84l0.02,0l-0.02,0l0,0.01zm1.65,1.41a1.78,1.8 0 0 0 -0.24,1.02c0,0.87 0.33,1.32 0.92,1.32a0.81,0.82 0 0 0 0.69,-0.33a1.65,1.67 0 0 0 0.26,-0.98a1.65,1.67 0 0 0 -0.26,-1a0.81,0.82 0 0 0 -0.69,-0.35a0.81,0.82 0 0 0 -0.75,0.33l0.04,0l0.02,-0.02z" id="svg_336"/>
    </g>
   </g>
   <g id="selectorGroup73">
    <path fill="none" id="selectedBox73" stroke="#22C" stroke-dasharray="5,5"/>
   </g>
  </g>
 </g>
</svg>