<?xml version="1.0"?>
<svg width="300" height="600" xmlns="http://www.w3.org/2000/svg" xmlns:svg="http://www.w3.org/2000/svg" clip-rule="evenodd" version="1.1" xml:space="preserve">
 <!-- Created with SVG-edit - https://github.com/SVG-Edit/svgedit-->
 <defs>
  <radialGradient cy="0.2" id="svg_1" r="0.7" spreadMethod="pad">
   <stop id="jq_stop_4243" offset="0" stop-color="#7933a6"/>
   <stop id="jq_stop_7899" offset="1" stop-color="#5133a6" stop-opacity="1"/>
  </radialGradient>
 </defs>
 <g class="layer">
  <title>Layer 1</title>
  <!-- Created with SVG-edit - https://github.com/SVG-Edit/svgedit-->
  <style type="text/css">.st0{fill:#0F0F1E;}
	.st1{fill:#151524;}
	.st2{fill:none;stroke:#FFFFFF;stroke-width:2;stroke-miterlimit:10;}
	.st3{fill:#FFFFFF;}
	.st4{fill:#EA001B;}
	.st5{fill:#F79F1A;}
	.st6{fill:#6034A6;}
	.st7{fill:#6834A6;}
	.st8{fill:#AEAEB3;}
	.st9{fill:#50E800;}</style>
  <style type="text/css">.st0{fill:#0F0F1E;}
	.st1{fill:#151524;}
	.st2{fill:none;stroke:#FFFFFF;stroke-width:2;stroke-miterlimit:10;}
	.st3{fill:#FFFFFF;}
	.st4{fill:#EA001B;}
	.st5{fill:#F79F1A;}
	.st6{fill:#6034A6;}
	.st7{fill:#6834A6;}
	.st8{fill:#AEAEB3;}
	.st9{fill:#50E800;}</style>
  <!-- Created with SVG-edit - https://github.com/SVG-Edit/svgedit-->
  <style type="text/css">.st0{fill:#0F0F1E;}
	.st1{fill:#151524;}
	.st2{fill:none;stroke:#FFFFFF;stroke-width:2;stroke-miterlimit:10;}
	.st3{fill:#FFFFFF;}
	.st4{fill:#EA001B;}
	.st5{fill:#F79F1A;}
	.st6{fill:#6034A6;}
	.st7{fill:#6834A6;}
	.st8{fill:#AEAEB3;}
	.st9{fill:#50E800;}</style>
  <style type="text/css">.st0{fill:#0F0F1E;}
	.st1{fill:#151524;}
	.st2{fill:none;stroke:#FFFFFF;stroke-width:2;stroke-miterlimit:10;}
	.st3{fill:#FFFFFF;}
	.st4{fill:#EA001B;}
	.st5{fill:#F79F1A;}
	.st6{fill:#6034A6;}
	.st7{fill:#6834A6;}
	.st8{fill:#AEAEB3;}
	.st9{fill:#50E800;}</style>
  <!-- Created with SVG-edit - https://github.com/SVG-Edit/svgedit-->
  <style type="text/css">.st0{fill:#0F0F1E;}
	.st1{fill:#151524;}
	.st2{fill:none;stroke:#FFFFFF;stroke-width:2;stroke-miterlimit:10;}
	.st3{fill:#FFFFFF;}
	.st4{fill:#EA001B;}
	.st5{fill:#F79F1A;}
	.st6{fill:#6034A6;}
	.st7{fill:#6834A6;}
	.st8{fill:#AEAEB3;}
	.st9{fill:#50E800;}</style>
  <path class="st0" d="m44.03,0l212.13,0c24.33,0 44.03,15.93 44.03,39.82l0,517.64c0,23.89 -19.71,39.82 -44.03,39.82l-212.13,0c-24.33,0 -44.03,-15.93 -44.03,-39.82l0,-517.64c0,-23.89 19.71,-39.82 44.03,-39.82z" id="svg_206">Rober</path>
  <path class="st1" d="m44.64,331.89l211.54,0c24.26,0 43.91,18.15 43.91,40.55l0,186.33c0,22.4 -19.66,40.55 -43.91,40.55l-211.54,0c-24.26,0 -43.91,-18.15 -43.91,-40.55l0,-186.33c0,-22.4 19.66,-40.55 43.91,-40.55z" id="svg_205"/>
  <line class="st2" id="svg_204" x1="23.8" x2="43.99" y1="44.4" y2="44.4"/>
  <line class="st2" id="svg_203" x1="23.8" x2="37.19" y1="37.32" y2="37.32"/>
  <line class="st2" id="svg_202" x1="23.8" x2="43.99" y1="30.16" y2="30.16"/>
  <path class="st1" d="m251.27,23.69l18.55,0c3.07,0 5.49,2.23 5.49,5.06l0,17.06c0,2.83 -2.42,5.06 -5.49,5.06l-18.55,0c-3.07,0 -5.49,-2.23 -5.49,-5.06l0,-17.06c0,-2.73 2.53,-5.06 5.49,-5.06z" id="svg_201"/>
  <path class="st3" d="m260.59,29.44c-4.72,0 -8.57,3.55 -8.57,7.78c0,1.81 0.65,3.65 1.97,5.06l0,0c0.89,1.02 1.97,1.71 3.17,2.23l0,0l0.33,0.1l0.11,0l0.21,0.1l0.11,0l0.21,0.1l0.21,0l0.21,0l0.21,0l0.21,0l0.21,0l0.21,0l0.33,0l1.2,0l0.33,0l0.11,0l0.21,0l0.21,0l0.21,0l0.21,0l0.21,0l0.21,-0.1l0.11,0l0.21,-0.1l0.11,0l0.33,-0.1l0,0c1.2,-0.5 2.42,-1.22 3.17,-2.23l0,0c2.96,-3.33 2.53,-8.28 -1.1,-11c-1.54,-1.22 -3.51,-1.81 -5.49,-1.81l0.43,0l0.11,-0.02l0.06,0l-0.03,0l0.06,-0.01zm1.64,8.18c-0.11,0.1 -0.21,0.1 -0.33,0.2l0,0c-0.89,0.3 -1.76,0.3 -2.65,0l0,0c-0.11,-0.1 -0.21,-0.1 -0.33,-0.2c-1.42,-0.92 -1.86,-2.63 -0.89,-3.95c0.99,-1.32 2.86,-1.71 4.28,-0.82c1.42,0.92 1.86,2.63 0.89,3.95c-0.21,0.3 -0.55,0.6 -0.99,0.82l0,0l0.01,0l0.01,0zm-3.51,0.5l0,0l0.33,0.1l0.21,0.1l0,0c0.43,0.1 0.78,0.2 1.2,0.2c0.43,0 0.89,-0.1 1.2,-0.2l0,0l0.21,-0.1c0.11,0 0.21,-0.1 0.21,-0.1l0.11,0l0.11,-0.1c2.08,0.6 3.61,2.01 4.18,3.95c-0.78,0.82 -1.64,1.42 -2.65,1.81l0,0l-0.33,0.1l-0.11,0l-0.11,0.2l-0.11,0l-0.21,0.1l-0.11,0l-0.21,0.1l-0.21,0l-0.21,0l-0.21,0l-0.21,0l-0.21,0l-0.11,0l-0.33,0l-1.1,0l-0.33,0l-0.11,0l-0.21,0l-0.21,0l-0.21,0l-0.21,0l-0.21,0l-0.21,-0.1l-0.11,0l-0.21,-0.1l-0.11,0l-0.33,-0.1l-0.11,0l-0.33,-0.1l0,0c-0.99,-0.4 -1.86,-1.02 -2.65,-1.81c0.55,-1.91 2.08,-3.33 4.06,-3.95l0.21,0l-0.06,0l-0.04,0l0.08,0l-0.03,0zm8.36,3.43c-0.65,-1.71 -2.08,-3.13 -3.96,-3.85c0.78,-0.6 1.2,-1.51 1.2,-2.53c-0.11,-1.91 -1.86,-3.33 -3.85,-3.23c-1.86,0.1 -3.39,1.51 -3.51,3.23c0,1.02 0.43,1.91 1.2,2.53c-1.86,0.72 -3.29,2.13 -3.96,3.85c-0.99,-1.22 -1.54,-2.73 -1.54,-4.25c0,-4.05 3.51,-7.37 7.9,-7.37c4.39,0 8,3.23 8,7.27c-0.11,1.51 -0.65,3.03 -1.54,4.35l0.03,0l0.03,0l0.01,0l-0.01,0z" id="svg_200"/>
  <path class="st6" d="m95.04,268.3l109.01,0c11.08,0 19.97,8.28 19.97,18.38l0,0c0,10.2 -9.01,18.38 -19.97,18.38l-109.01,0c-11.08,0 -19.97,-8.28 -19.97,-18.38l0,0c-0.11,-10.1 8.89,-18.38 19.97,-18.38z" id="svg_199" transform="matrix(1 0 0 1 0 0)"/>
  <path class="st0" d="m95.15,270.93l37.22,0c9.55,0 17.22,7.07 17.22,15.85l0,0c0,8.78 -7.69,15.85 -17.22,15.85l-37.22,0c-9.55,0 -17.22,-7.07 -17.22,-15.85l0,0c0,-8.78 7.79,-15.85 17.22,-15.85z" id="svg_198"/>
  <path class="st7" d="m29.27,353.62l18.55,0c3.07,0 5.49,2.23 5.49,5.06l0,17.06c0,2.83 -2.42,5.06 -5.49,5.06l-18.55,0c-3.07,0 -5.49,-2.23 -5.49,-5.06l0,-17.06c0,-2.73 2.53,-5.06 5.49,-5.06z" id="svg_197"/>
  <path class="st4" d="m248.41,368.27l0,0.82l-4.49,0l0,-0.82l4.49,0z" id="svg_196"/>
  <path class="st4" d="m255.32,371.4c-0.21,0.3 -0.43,0.6 -0.78,0.72c-0.33,0.2 -0.78,0.3 -1.2,0.3l0,0.82l-0.55,0l0,-0.82c-0.65,0 -1.2,-0.2 -1.64,-0.6c-0.43,-0.3 -0.65,-0.82 -0.65,-1.32l1.1,0c0,0.3 0.11,0.5 0.33,0.72c0.21,0.2 0.55,0.4 0.89,0.4l0,-2.53c-0.43,-0.1 -0.78,-0.2 -1.2,-0.4c-0.33,-0.1 -0.55,-0.3 -0.78,-0.6c-0.21,-0.3 -0.33,-0.6 -0.33,-1.02c0,-0.5 0.21,-1.02 0.65,-1.42c0.43,-0.4 1.1,-0.6 1.64,-0.6l0,-0.92l0.65,0l0,0.92c0.55,0 1.1,0.2 1.54,0.5c0.43,0.3 0.65,0.82 0.65,1.32l-1.1,0c0,-0.2 -0.11,-0.5 -0.33,-0.6c-0.21,-0.2 -0.43,-0.3 -0.78,-0.4l0,2.53c0.43,0.1 0.78,0.2 1.2,0.4c0.33,0.1 0.55,0.3 0.78,0.6c0.21,0.3 0.33,0.72 0.33,1.02c-0.11,0.4 -0.21,0.72 -0.43,1.02l0.03,-0.04l-0.01,0l-0.01,0zm-3.51,-3.55c0.33,0.2 0.65,0.4 0.99,0.4l0,-2.43c-0.33,0 -0.65,0.1 -0.99,0.3c-0.21,0.2 -0.33,0.5 -0.33,0.82c0,0.5 0.11,0.72 0.33,0.92l0,-0.01zm2.42,3.55c0.21,-0.2 0.33,-0.5 0.33,-0.82c0,-0.3 -0.11,-0.6 -0.33,-0.82c-0.33,-0.2 -0.55,-0.4 -0.99,-0.4l0,2.43c0.43,-0.1 0.78,-0.2 0.99,-0.4l0,0.01z" id="svg_195"/>
  <path class="st4" d="m257.41,365.84l0,-0.92l2.08,0l0,7.47l-0.99,0l0,-6.57l-1.1,0l0.03,0.02l-0.01,0l-0.01,0z" id="svg_194"/>
  <path class="st4" d="m266.73,365.84l-3.96,0l0,2.33c0.21,-0.2 0.43,-0.4 0.78,-0.5c0.33,-0.1 0.78,-0.2 1.1,-0.2c0.55,0 1.1,0.1 1.54,0.4c0.33,0.2 0.65,0.5 0.89,0.92c0.33,0.82 0.33,1.71 0,2.53c-0.21,0.4 -0.55,0.72 -0.89,0.92c-0.43,0.2 -0.99,0.3 -1.54,0.3c-0.65,0 -1.32,-0.2 -1.86,-0.5c-0.43,-0.4 -0.78,-0.92 -0.89,-1.51l0.99,0c0.11,0.4 0.33,0.72 0.65,0.92c0.33,0.2 0.78,0.3 1.2,0.3c0.55,0 0.99,-0.1 1.32,-0.5c0.33,-0.4 0.43,-0.82 0.43,-1.32c0,-0.4 -0.11,-0.92 -0.43,-1.22c-0.33,-0.3 -0.89,-0.5 -1.32,-0.4c-0.33,0 -0.78,0.1 -0.99,0.3c-0.33,0.2 -0.55,0.4 -0.65,0.72l-0.99,0l0,-4.25l4.83,0l-0.21,0.82l0,-0.06z" id="svg_193"/>
  <path class="st4" d="m269.59,365.94c0.43,-0.72 1.32,-1.12 2.18,-1.02c0.89,-0.1 1.76,0.3 2.18,1.02c0.43,0.82 0.65,1.81 0.65,2.73c0,1.02 -0.11,1.91 -0.65,2.83c-0.43,0.72 -1.32,1.12 -2.18,1.02c-0.89,0.1 -1.76,-0.3 -2.18,-1.02c-0.43,-0.92 -0.65,-1.81 -0.65,-2.83c0,-1.02 0.21,-1.91 0.65,-2.73zm3.85,1.22c-0.11,-0.4 -0.21,-0.72 -0.55,-1.02c-0.65,-0.5 -1.64,-0.5 -2.31,0c-0.33,0.3 -0.43,0.6 -0.55,1.02c-0.21,1.02 -0.21,2.01 0,3.03c0,0.4 0.21,0.72 0.55,1.02c0.65,0.5 1.64,0.5 2.31,0c0.33,-0.3 0.43,-0.6 0.55,-1.02c0.21,-1.02 0.21,-2.01 0,-3.03z" id="svg_192"/>
  <path class="st7" d="m29.27,402.2l18.55,0c3.07,0 5.49,2.23 5.49,5.06l0,17.06c0,2.83 -2.42,5.06 -5.49,5.06l-18.55,0c-3.07,0 -5.49,-2.23 -5.49,-5.06l0,-17.06c0,-2.73 2.53,-5.06 5.49,-5.06z" id="svg_191"/>
  <path class="st9" d="m235.56,417.67l-2.42,0l0,2.23l-0.99,0l0,-2.23l-2.42,0l0,-0.82l2.42,0l0,-2.13l0.99,0l0,2.23l2.42,0l0,0.72z" id="svg_190"/>
  <path class="st9" d="m242.48,419.98c-0.21,0.3 -0.43,0.6 -0.78,0.72c-0.33,0.2 -0.78,0.3 -1.2,0.3l0,0.82l-0.65,0l0,-0.82c-0.65,0 -1.2,-0.2 -1.64,-0.6c-0.43,-0.3 -0.65,-0.82 -0.65,-1.32l1.1,0c0,0.3 0.11,0.5 0.33,0.72c0.21,0.2 0.55,0.4 0.89,0.4l0,-2.43c-0.43,-0.1 -0.78,-0.2 -1.2,-0.4c-0.33,-0.1 -0.55,-0.3 -0.78,-0.6c-0.21,-0.3 -0.33,-0.6 -0.33,-1.02c0,-0.5 0.21,-1.02 0.65,-1.42c0.43,-0.4 1.1,-0.6 1.64,-0.6l0,-0.82l0.65,0l0,0.82c0.55,0 1.1,0.2 1.54,0.6c0.43,0.3 0.65,0.82 0.65,1.22l-1.1,0c0,-0.2 -0.21,-0.5 -0.33,-0.6c-0.21,-0.2 -0.43,-0.3 -0.78,-0.4l0,2.53c0.43,0.1 0.78,0.2 1.2,0.4c0.65,0.3 1.2,0.92 1.1,1.61c-0.11,0.3 -0.21,0.72 -0.33,0.92l0.03,-0.04l-0.01,0l-0.01,0.01l0.01,0zm-3.61,-3.43c0.33,0.2 0.65,0.4 0.99,0.4l0,-2.43c-0.33,0 -0.65,0.1 -0.99,0.3c-0.21,0.2 -0.33,0.5 -0.33,0.82c0,0.4 0.11,0.6 0.33,0.92l0,0l0,-0.01zm2.53,3.43c0.21,-0.2 0.33,-0.5 0.33,-0.82c0,-0.3 -0.11,-0.6 -0.33,-0.82c-0.33,-0.2 -0.55,-0.4 -0.99,-0.4l0,2.43c0.33,-0.1 0.78,-0.2 0.99,-0.4l0,0l0,0.01z" id="svg_189"/>
  <path class="st9" d="m245.56,414.03c0.55,-0.4 1.2,-0.6 1.86,-0.5c0.43,0 0.89,0.1 1.32,0.2c0.33,0.1 0.65,0.4 0.89,0.72c0.21,0.3 0.33,0.6 0.33,1.02c0,0.4 -0.11,0.82 -0.43,1.12c-0.21,0.3 -0.65,0.5 -0.99,0.6l0,0c0.43,0.1 0.78,0.3 1.1,0.6c0.33,0.4 0.43,0.82 0.43,1.32c0,0.4 -0.11,0.72 -0.33,1.02c-0.21,0.3 -0.55,0.6 -0.89,0.72c-0.43,0.2 -0.89,0.3 -1.42,0.3c-0.65,0 -1.42,-0.2 -1.97,-0.6c-0.55,-0.4 -0.89,-1.02 -0.89,-1.61l0.99,0c0,0.4 0.21,0.72 0.55,1.02c0.33,0.3 0.78,0.4 1.2,0.4c0.43,0 0.89,-0.1 1.2,-0.4c0.33,-0.3 0.43,-0.6 0.43,-1.02c0,-0.4 -0.21,-0.82 -0.55,-1.12c-0.55,-0.3 -1.1,-0.4 -1.64,-0.3l-0.21,0l0,-0.72l0.21,0c0.55,0 1.1,-0.1 1.54,-0.3c0.33,-0.2 0.55,-0.6 0.55,-0.92c0,-0.3 -0.11,-0.6 -0.43,-0.92c-0.33,-0.2 -0.65,-0.4 -1.1,-0.3c-0.43,0 -0.78,0.1 -1.1,0.3c-0.33,0.2 -0.43,0.5 -0.43,0.92l-0.99,0c0,-0.6 0.33,-1.22 0.78,-1.51l0,-0.02l-0.01,0l0,-0.02z" id="svg_188"/>
  <path class="st9" d="m252.92,419.78l-1.32,2.73l-0.65,0l0.78,-2.73l1.2,0l-0.03,0l0.01,0l0.01,0z" id="svg_187"/>
  <path class="st9" d="m254.99,414.53c0.89,-1.12 2.65,-1.32 3.85,-0.5c0.21,0.1 0.33,0.3 0.55,0.5c0.43,0.82 0.65,1.81 0.65,2.73c0.11,1.02 -0.11,1.91 -0.65,2.83c-0.89,1.12 -2.65,1.32 -3.85,0.5c-0.21,-0.1 -0.33,-0.3 -0.55,-0.5c-0.43,-0.92 -0.65,-1.81 -0.65,-2.83c-0.11,-1.02 0.11,-1.91 0.65,-2.73zm3.85,1.22c-0.11,-0.4 -0.21,-0.72 -0.55,-1.02c-0.65,-0.5 -1.64,-0.5 -2.31,0c-0.33,0.3 -0.43,0.6 -0.55,1.02c-0.11,0.5 -0.11,1.02 -0.11,1.51c0,0.5 0,1.02 0.11,1.51c0.11,0.4 0.21,0.72 0.55,1.02c0.65,0.5 1.64,0.5 2.31,0c0.33,-0.3 0.43,-0.6 0.55,-1.02c0.11,-0.5 0.11,-1.02 0.11,-1.51c0,-0.5 -0.11,-1.02 -0.11,-1.51l0,0z" id="svg_186"/>
  <path class="st9" d="m266.73,414.43l-3.96,0l0,2.33c0.21,-0.2 0.43,-0.4 0.78,-0.5c0.33,-0.1 0.78,-0.2 1.1,-0.2c0.55,0 1.1,0.1 1.54,0.4c0.33,0.2 0.65,0.5 0.89,0.92c0.33,0.82 0.33,1.71 0,2.53c-0.21,0.4 -0.55,0.72 -0.89,0.92c-0.43,0.2 -0.99,0.3 -1.54,0.3c-0.65,0 -1.32,-0.2 -1.86,-0.5c-0.43,-0.4 -0.78,-0.92 -0.89,-1.51l0.99,0c0.11,0.4 0.33,0.72 0.65,0.92c0.33,0.2 0.78,0.3 1.2,0.3c0.43,0 0.99,-0.1 1.32,-0.5c0.33,-0.4 0.43,-0.82 0.43,-1.32c0,-0.4 -0.11,-0.92 -0.43,-1.22c-0.33,-0.3 -0.89,-0.5 -1.32,-0.4c-0.33,0 -0.78,0.1 -0.99,0.3c-0.33,0.2 -0.55,0.4 -0.65,0.72l-0.99,0l0,-4.15l4.83,0l-0.21,0.72l0,-0.06z" id="svg_185"/>
  <path class="st9" d="m269.59,414.53c0.43,-0.72 1.32,-1.12 2.18,-1.02c0.89,-0.1 1.76,0.3 2.18,1.02c0.43,0.82 0.65,1.81 0.65,2.73c0.11,1.02 -0.11,1.91 -0.65,2.83c-0.43,0.72 -1.32,1.12 -2.18,1.02c-0.89,0.1 -1.76,-0.3 -2.18,-1.02c-0.43,-0.92 -0.65,-1.81 -0.65,-2.83c0,-1.02 0.21,-1.91 0.65,-2.73zm3.85,1.22c-0.11,-0.4 -0.21,-0.72 -0.55,-1.02c-0.65,-0.5 -1.64,-0.5 -2.31,0c-0.33,0.3 -0.43,0.6 -0.55,1.02c-0.11,0.5 -0.11,1.02 -0.11,1.51c0,0.5 0,1.02 0.11,1.51c0.11,0.4 0.21,0.72 0.55,1.02c0.65,0.5 1.64,0.5 2.31,0c0.33,-0.3 0.43,-0.6 0.55,-1.02c0.11,-0.5 0.11,-1.02 0.11,-1.51c0.11,-0.5 0,-1.02 -0.11,-1.51l0,0z" id="svg_184"/>
  <path class="st7" d="m29.27,450.9l18.55,0c3.07,0 5.49,2.23 5.49,5.06l0,17.06c0,2.83 -2.42,5.06 -5.49,5.06l-18.55,0c-3.07,0 -5.49,-2.23 -5.49,-5.06l0,-17.06c0,-2.83 2.53,-5.06 5.49,-5.06z" id="svg_183"/>
  <path class="st4" d="m256.31,465.43l0,0.82l-4.49,0l0,-0.82l4.49,0z" id="svg_182"/>
  <path class="st4" d="m263.35,468.65c-0.21,0.3 -0.43,0.6 -0.78,0.72c-0.33,0.2 -0.78,0.3 -1.2,0.3l0,0.82l-0.65,0l0,-0.82c-0.65,0 -1.2,-0.2 -1.64,-0.6c-0.43,-0.3 -0.65,-0.82 -0.65,-1.32l1.1,0c0,0.3 0.11,0.5 0.33,0.72c0.21,0.2 0.55,0.4 0.89,0.4l0,-2.53c-0.43,-0.1 -0.78,-0.2 -1.2,-0.4c-0.33,-0.1 -0.55,-0.3 -0.78,-0.6c-0.21,-0.3 -0.33,-0.6 -0.33,-1.02c0,-0.5 0.21,-1.02 0.65,-1.42c0.43,-0.4 1.1,-0.6 1.64,-0.6l0,-0.92l0.65,0l0,0.92c0.55,0 1.1,0.2 1.54,0.5c0.43,0.3 0.65,0.82 0.65,1.32l-1.1,0c0,-0.2 -0.11,-0.5 -0.33,-0.6c-0.21,-0.2 -0.43,-0.3 -0.78,-0.4l0,2.53c0.43,0.1 0.78,0.2 1.2,0.4c0.33,0.1 0.55,0.3 0.78,0.6c0.21,0.3 0.33,0.72 0.33,1.02c-0.11,0.4 -0.21,0.72 -0.33,1.02l0.03,-0.04l-0.01,0l-0.01,0zm-3.61,-3.55c0.33,0.2 0.65,0.4 0.99,0.4l0,-2.33c-0.33,0 -0.65,0.1 -0.99,0.3c-0.21,0.2 -0.33,0.5 -0.33,0.82c0,0.3 0.11,0.6 0.33,0.82l0,0l0,-0.01zm2.53,3.43c0.21,-0.2 0.33,-0.5 0.33,-0.82c0,-0.3 -0.11,-0.6 -0.33,-0.82c-0.33,-0.2 -0.55,-0.4 -0.99,-0.4l0,2.43c0.33,-0.1 0.65,-0.2 0.99,-0.4l0,0l0,0.01z" id="svg_181"/>
  <path class="st4" d="m265.42,463.01l0,-0.82l2.08,0l0,7.47l-0.99,0l0,-6.57l-1.1,-0.1l0.03,0.02l-0.01,0l-0.01,0z" id="svg_180"/>
  <path class="st4" d="m271.68,467.15c0.55,-0.4 0.99,-0.92 1.32,-1.42c0.33,-0.4 0.55,-0.92 0.55,-1.42c0,-0.4 -0.11,-0.72 -0.33,-1.02c-0.33,-0.3 -0.65,-0.4 -1.1,-0.4c-0.43,0 -0.89,0.1 -1.2,0.4c-0.33,0.3 -0.43,0.72 -0.43,1.22l-0.99,0c0,-0.72 0.21,-1.32 0.78,-1.81c1.1,-0.82 2.65,-0.82 3.73,0c0.43,0.4 0.65,1.02 0.65,1.61c0,0.6 -0.21,1.22 -0.55,1.61c-0.33,0.5 -0.78,1.02 -1.2,1.42c-0.43,0.4 -1.1,0.92 -1.76,1.42l3.85,0l0,0.82l-5.38,0l0,-0.72c0.78,-0.72 1.54,-1.22 2.08,-1.71l0.03,0l-0.03,0l-0.01,0l-0.01,0z" id="svg_179"/>
  <path class="st7" d="m29.27,499.46l18.55,0c3.07,0 5.49,2.23 5.49,5.06l0,17.06c0,2.83 -2.42,5.06 -5.49,5.06l-18.55,0c-3.07,0 -5.49,-2.23 -5.49,-5.06l0,-17.06c0,-2.83 2.53,-5.06 5.49,-5.06z" id="svg_178"/>
  <path class="st4" d="m253.35,514.01l0,0.82l-4.49,0l0,-0.82l4.49,0z" id="svg_177"/>
  <path class="st4" d="m260.27,517.14c-0.21,0.3 -0.43,0.6 -0.78,0.72c-0.33,0.2 -0.78,0.3 -1.2,0.3l0,0.82l-0.65,0l0,-0.82c-0.55,0 -1.2,-0.2 -1.64,-0.5c-0.43,-0.3 -0.65,-0.82 -0.65,-1.32l1.1,0c0,0.6 0.55,1.12 1.2,1.12l0,-2.53c-0.43,-0.1 -0.78,-0.2 -1.2,-0.4c-0.33,-0.1 -0.55,-0.3 -0.78,-0.6c-0.21,-0.3 -0.33,-0.6 -0.33,-1.02c0,-0.5 0.21,-1.02 0.65,-1.42c0.43,-0.4 1.1,-0.6 1.64,-0.6l0,-0.82l0.55,0l0,0.82c0.55,0 1.1,0.2 1.54,0.5c0.43,0.3 0.65,0.82 0.65,1.32l-1.1,0c0,-0.2 -0.21,-0.5 -0.33,-0.72c-0.21,-0.2 -0.43,-0.3 -0.78,-0.4l0,2.53c0.43,0.1 0.78,0.2 1.2,0.3c0.33,0.1 0.55,0.3 0.78,0.6c0.21,0.3 0.33,0.6 0.33,1.02c0,0.6 0,0.92 -0.21,1.12l0.03,-0.02l-0.01,0l-0.01,0zm-3.51,-3.43c0.33,0.2 0.65,0.3 0.99,0.4l0,-2.33c-0.33,0 -0.65,0.1 -0.99,0.3c-0.21,0.2 -0.33,0.5 -0.33,0.82c0,0.3 0.11,0.6 0.33,0.82l0,-0.01zm2.42,3.43c0.21,-0.2 0.33,-0.5 0.33,-0.82c0,-0.3 -0.11,-0.6 -0.33,-0.82c-0.33,-0.2 -0.55,-0.4 -0.99,-0.4l0,2.43c0.43,0 0.78,-0.2 0.99,-0.4l0,0l0,0.01z" id="svg_176"/>
  <path class="st4" d="m263.45,511.18c0.99,-0.6 2.08,-0.72 3.17,-0.3c0.65,0.3 1.1,0.92 1.1,1.61c0,0.4 -0.11,0.82 -0.43,1.12c-0.21,0.3 -0.65,0.5 -0.99,0.6l0,0.1c0.43,0.1 0.89,0.3 1.1,0.6c0.33,0.4 0.43,0.82 0.43,1.22c0,0.4 -0.11,0.72 -0.33,1.02c-0.21,0.3 -0.55,0.6 -0.89,0.72c-0.43,0.2 -0.89,0.3 -1.42,0.3c-0.65,0 -1.42,-0.2 -1.97,-0.6c-0.55,-0.4 -0.89,-1.02 -0.89,-1.61l0.99,0c0,0.4 0.21,0.72 0.55,1.02c0.33,0.3 0.78,0.4 1.2,0.4c0.43,0 0.89,-0.1 1.2,-0.4c0.33,-0.3 0.43,-0.6 0.43,-1.02c0,-0.4 -0.21,-0.92 -0.55,-1.12c-0.55,-0.3 -1.1,-0.4 -1.64,-0.3l-0.21,0l0,-0.82l0.21,0c0.55,0 1.1,-0.1 1.54,-0.3c0.33,-0.2 0.55,-0.6 0.55,-0.92c0,-0.3 -0.11,-0.6 -0.43,-0.92c-0.33,-0.2 -0.65,-0.3 -1.1,-0.3c-0.43,0 -0.78,0.1 -1.1,0.3c-0.33,0.2 -0.43,0.5 -0.55,0.92l-0.99,0c0.21,-0.5 0.55,-1.02 0.99,-1.32l0.01,0l0.02,0z" id="svg_175"/>
  <path class="st4" d="m271.68,515.72c0.55,-0.4 0.99,-0.92 1.32,-1.42c0.33,-0.4 0.55,-0.92 0.55,-1.42c0,-0.4 -0.11,-0.72 -0.33,-1.02c-0.33,-0.3 -0.65,-0.4 -1.1,-0.4c-0.43,0 -0.89,0.1 -1.2,0.4c-0.33,0.3 -0.43,0.72 -0.43,1.22l-0.99,0c0,-0.72 0.21,-1.32 0.78,-1.81c0.55,-0.4 1.2,-0.6 1.86,-0.6c0.65,0 1.32,0.2 1.86,0.6c0.43,0.4 0.65,1.02 0.65,1.61c0,0.6 -0.21,1.22 -0.55,1.61c-0.33,0.5 -0.78,1.02 -1.2,1.42c-0.43,0.4 -1.1,0.92 -1.76,1.42l3.85,0l0,0.82l-5.38,0l0,-0.72c0.78,-0.72 1.54,-1.22 2.08,-1.71l0.03,0l-0.03,0l-0.01,0z" id="svg_174"/>
  <path class="st7" d="m29.27,548.03l18.55,0c3.07,0 5.49,2.23 5.49,5.06l0,17.06c0,2.83 -2.42,5.06 -5.49,5.06l-18.55,0c-3.07,0 -5.49,-2.23 -5.49,-5.06l0,-17.06c0,-2.83 2.53,-5.06 5.49,-5.06z" id="svg_173"/>
  <path class="st9" d="m247.74,568.25l-2.42,0l0,2.23l-0.99,0l0,-2.23l-2.42,0l0,-0.82l2.42,0l0,-2.23l0.99,0l0,2.23l2.42,0l0,0.82z" id="svg_172"/>
  <path class="st9" d="m254.67,570.57c-0.21,0.3 -0.43,0.6 -0.78,0.72c-0.33,0.2 -0.78,0.3 -1.2,0.3l0,0.82l-0.65,0l0,-0.82c-0.65,0 -1.2,-0.2 -1.64,-0.6c-0.43,-0.3 -0.65,-0.82 -0.65,-1.32l1.1,0c0,0.3 0.11,0.5 0.33,0.72c0.21,0.2 0.55,0.4 0.89,0.4l0,-2.53c-0.43,-0.1 -0.78,-0.2 -1.2,-0.4c-0.33,-0.1 -0.55,-0.3 -0.78,-0.6c-0.21,-0.3 -0.33,-0.6 -0.33,-1.02c0,-0.5 0.21,-1.02 0.65,-1.42c0.43,-0.4 1.1,-0.6 1.64,-0.6l0,-0.82l0.65,0l0,0.82c0.55,0 1.1,0.2 1.54,0.5c0.43,0.3 0.65,0.82 0.65,1.32l-1.1,0c0,-0.2 -0.11,-0.5 -0.33,-0.72c-0.21,-0.2 -0.43,-0.3 -0.78,-0.4l0,2.53c0.43,0.1 0.78,0.2 1.2,0.3c0.33,0.1 0.55,0.3 0.78,0.6c0.21,0.3 0.33,0.6 0.33,1.02c-0.11,0.6 -0.21,0.92 -0.33,1.22l0.03,-0.02l-0.01,0l-0.01,0zm-3.61,-3.55c0.33,0.2 0.65,0.4 0.99,0.4l0,-2.33c-0.33,0 -0.65,0.1 -0.99,0.3c-0.21,0.2 -0.33,0.5 -0.33,0.82c0,0.4 0.11,0.6 0.33,0.82l0,0l0,-0.01zm2.53,3.43c0.21,-0.2 0.33,-0.5 0.33,-0.82c0,-0.3 -0.11,-0.6 -0.33,-0.82c-0.33,-0.2 -0.55,-0.4 -0.99,-0.4l0,2.43c0.33,0 0.65,-0.1 0.99,-0.4l0,0l0,0.01z" id="svg_171"/>
  <path class="st9" d="m256.74,565.02l0,-0.82l2.08,0l0,7.47l-0.99,0l0,-6.57l-1.1,-0.1l0.03,0.02l-0.01,0l-0.01,0z" id="svg_170"/>
  <path class="st9" d="m262.67,570.47c0.33,0.2 0.65,0.3 1.1,0.3c0.55,0 1.1,-0.2 1.32,-0.72c0.33,-0.72 0.43,-1.51 0.43,-2.23c-0.21,0.3 -0.43,0.6 -0.78,0.72c-0.33,0.2 -0.78,0.3 -1.2,0.3c-0.43,0 -0.89,-0.1 -1.32,-0.3c-0.43,-0.2 -0.65,-0.5 -0.89,-0.82c-0.21,-0.4 -0.33,-0.92 -0.33,-1.32c0,-0.6 0.21,-1.32 0.65,-1.81c0.55,-0.5 1.2,-0.72 1.97,-0.72c0.89,-0.1 1.76,0.3 2.18,0.92c0.43,0.92 0.65,1.81 0.65,2.83c0,0.72 -0.11,1.42 -0.21,2.13c-0.11,0.5 -0.43,0.92 -0.89,1.32c-0.43,0.3 -1.1,0.5 -1.64,0.4c-0.65,0 -1.32,-0.2 -1.76,-0.6c-0.43,-0.4 -0.65,-0.92 -0.78,-1.42l0.99,0c0,0.5 0.21,0.82 0.43,1.02l0.06,0l0.01,0l0.01,0zm2.31,-2.73c0.33,-0.3 0.55,-0.72 0.43,-1.22c0,-0.4 -0.11,-0.92 -0.43,-1.22c-0.33,-0.3 -0.89,-0.5 -1.32,-0.5c-0.43,0 -0.89,0.1 -1.2,0.5c-0.65,0.72 -0.65,1.71 0,2.43c0.65,0.5 1.76,0.5 2.53,0l0,0l-0.01,0l0,0.01z" id="svg_169"/>
  <path class="st9" d="m270.03,570.47c0.33,0.2 0.65,0.3 1.1,0.3c0.55,0 1.1,-0.2 1.32,-0.72c0.33,-0.72 0.43,-1.51 0.43,-2.23c-0.21,0.3 -0.43,0.6 -0.78,0.72c-0.33,0.2 -0.78,0.3 -1.2,0.3c-0.43,0 -0.89,-0.1 -1.32,-0.3c-0.43,-0.2 -0.65,-0.5 -0.89,-0.82c-0.21,-0.4 -0.33,-0.92 -0.33,-1.32c0,-0.6 0.21,-1.32 0.65,-1.81c0.55,-0.5 1.2,-0.72 1.97,-0.72c0.89,-0.1 1.76,0.3 2.18,0.92c0.43,0.92 0.65,1.81 0.65,2.83c0,0.72 -0.11,1.42 -0.21,2.13c-0.11,0.5 -0.43,0.92 -0.89,1.32c-0.43,0.3 -1.1,0.5 -1.64,0.4c-0.65,0 -1.32,-0.2 -1.76,-0.6c-0.43,-0.4 -0.65,-0.92 -0.78,-1.42l0.99,0c0,0.5 0.21,0.82 0.43,1.02l0.06,0l0.01,0l0.01,0zm2.31,-2.73c0.33,-0.3 0.55,-0.72 0.43,-1.22c0,-0.4 -0.11,-0.92 -0.43,-1.22c-0.33,-0.3 -0.89,-0.5 -1.32,-0.5c-0.43,0 -0.89,0.1 -1.2,0.5c-0.65,0.72 -0.65,1.71 0,2.43c0.78,0.5 1.86,0.5 2.53,0l0,0l-0.01,0l0,0.01z" id="svg_168"/>
  <path class="st3" d="m112.16,90.94c-0.33,0.5 -0.89,0.92 -1.42,1.22c-0.78,0.3 -1.54,0.5 -2.31,0.5l0,1.32l-1.1,0l0,-1.32c-1.1,0 -2.08,-0.4 -2.96,-1.02c-0.78,-0.6 -1.2,-1.51 -1.2,-2.43l3.17,0c0,0.6 0.43,1.12 0.99,1.22l0,-2.63c-0.78,-0.2 -1.42,-0.4 -2.18,-0.6c-0.55,-0.2 -1.1,-0.6 -1.42,-1.02c-0.43,-0.5 -0.65,-1.22 -0.65,-1.81c0,-0.92 0.43,-1.81 1.2,-2.33c0.89,-0.6 1.97,-1.02 3.07,-1.02l0,-1.32l1.1,0l0,1.32c1.1,0 2.08,0.4 2.96,1.02c0.65,0.6 1.1,1.42 1.2,2.33l-3.17,0c0,-0.5 -0.33,-1.02 -0.89,-1.12l0,2.53c0.78,0.2 1.42,0.4 2.18,0.72c0.55,0.2 0.99,0.6 1.42,1.02c0.43,0.5 0.65,1.22 0.65,1.81c-0.11,0.6 -0.33,1.12 -0.65,1.61l0.01,0zm-5.61,-5.96c0.21,0.2 0.43,0.4 0.78,0.5l0,-2.23c-0.33,0 -0.55,0.2 -0.78,0.4c-0.43,0.3 -0.43,0.92 0,1.32l0,0l0,0.02l0,-0.01zm2.75,5.16c0.21,-0.2 0.33,-0.5 0.33,-0.82c0,-0.3 -0.11,-0.5 -0.33,-0.72c-0.21,-0.2 -0.55,-0.4 -0.89,-0.5l0,2.43c0.33,-0.1 0.55,-0.2 0.89,-0.4l0,0l0,0.01z" id="svg_167"/>
  <path class="st3" d="m119.09,83.38l0,-2.53l4.83,0l0,11.7l-3.07,0l0,-9.2l-1.76,0l0,0.02l0,0.01z" id="svg_166"/>
  <path class="st3" d="m126.23,83.38l0,-2.53l4.83,0l0,11.7l-3.17,0l0,-9.2l-1.64,0l0,0.02l-0.01,0l-0.01,0.01z" id="svg_165"/>
  <path class="st3" d="m137.2,90.04l-1.86,4.64l-1.86,0l0.99,-4.64l2.75,0l-0.03,0l0.01,0z" id="svg_164"/>
  <path class="st3" d="m139.62,89.94c1.1,-0.92 2.08,-1.61 2.75,-2.13c0.65,-0.5 1.2,-1.12 1.64,-1.71c0.43,-0.5 0.65,-1.12 0.65,-1.81c0,-0.4 -0.11,-0.72 -0.33,-1.02c-0.21,-0.3 -0.65,-0.4 -0.99,-0.4c-0.43,0 -0.89,0.1 -1.1,0.4c-0.21,0.4 -0.43,0.82 -0.33,1.32l-2.86,0c0,-0.82 0.21,-1.61 0.65,-2.33c0.33,-0.6 0.89,-1.12 1.64,-1.32c0.65,-0.3 1.42,-0.4 2.18,-0.4c1.2,-0.1 2.31,0.3 3.17,1.02c0.78,0.72 1.1,1.61 1.1,2.53c0,1.22 -0.43,2.33 -1.32,3.23c-0.99,1.12 -2.08,2.01 -3.29,2.93l4.72,0l0,2.23l-8.79,0l0,-2.01l0.43,-0.5l0.04,-0.02l-0.03,0l0.05,-0.01l0.02,0z" id="svg_163"/>
  <path class="st3" d="m150.91,82.16c1.76,-1.91 4.93,-2.13 7.04,-0.5c0.21,0.2 0.33,0.3 0.55,0.5c0.89,1.32 1.2,2.83 1.2,4.35c0.11,1.51 -0.33,3.03 -1.2,4.45c-1.76,1.91 -4.93,2.13 -7.04,0.5c-0.21,-0.2 -0.33,-0.3 -0.55,-0.5c-0.89,-1.32 -1.2,-2.83 -1.2,-4.45c0,-1.51 0.33,-3.03 1.2,-4.35zm5.38,1.91c-0.43,-0.82 -1.54,-1.12 -2.42,-0.72c-0.33,0.2 -0.55,0.4 -0.78,0.72c-0.33,0.82 -0.43,1.61 -0.43,2.53c0,0.6 0,1.22 0.11,1.81c0.11,0.4 0.21,0.82 0.55,1.22c0.33,0.3 0.78,0.5 1.32,0.4c0.43,0 0.99,-0.1 1.32,-0.4c0.33,-0.3 0.55,-0.72 0.55,-1.22c0.11,-0.6 0.11,-1.22 0.11,-1.81c0.11,-0.92 0,-1.71 -0.33,-2.53l0.03,0l-0.01,0l-0.03,0l0.01,0z" id="svg_162"/>
  <path class="st3" d="m161.45,83.38l0,-2.53l4.83,0l0,11.7l-3.17,0l0,-9.2l-1.64,0l0,0.02l-0.01,0l-0.01,0.01z" id="svg_161"/>
  <path class="st3" d="m169.36,92.25c-0.33,-0.3 -0.55,-0.72 -0.43,-1.12c0,-0.4 0.21,-0.82 0.43,-1.12c0.33,-0.3 0.78,-0.4 1.32,-0.4c0.43,0 0.89,0.1 1.32,0.4c0.33,0.3 0.55,0.72 0.55,1.12c0,0.4 -0.21,0.82 -0.55,1.12c-0.33,0.3 -0.78,0.4 -1.32,0.4c-0.55,0.1 -0.99,-0.1 -1.32,-0.4z" id="svg_160"/>
  <path class="st3" d="m183.42,83.18l-5.49,0l0,2.33c0.33,-0.3 0.65,-0.5 0.99,-0.6c0.43,-0.1 0.89,-0.2 1.32,-0.2c0.78,0 1.54,0.2 2.18,0.5c0.55,0.4 0.99,0.82 1.32,1.42c0.21,0.6 0.43,1.22 0.43,1.91c0.11,1.12 -0.33,2.23 -1.2,3.03c-0.89,0.82 -2.08,1.22 -3.29,1.12c-0.89,0 -1.64,-0.1 -2.42,-0.4c-0.65,-0.3 -1.2,-0.72 -1.64,-1.22c-0.33,-0.5 -0.55,-1.22 -0.65,-1.81l2.96,0c0.11,0.3 0.21,0.6 0.55,0.82c0.33,0.2 0.65,0.3 1.1,0.3c0.43,0 0.89,-0.1 1.2,-0.5c0.33,-0.4 0.43,-0.82 0.43,-1.32c0,-0.4 -0.11,-0.92 -0.43,-1.22c-0.33,-0.3 -0.78,-0.5 -1.2,-0.4c-0.33,0 -0.65,0.1 -0.99,0.3c-0.21,0.2 -0.43,0.4 -0.55,0.72l-2.86,0l0,-7.07l8.22,0l0,2.33l0.03,-0.04l0.01,-0.01l0,0.01l-0.02,0z" id="svg_159"/>
  <path class="st3" d="m191.21,90.44c0.55,0 1.1,-0.3 1.32,-0.82c0.33,-0.82 0.43,-1.61 0.43,-2.43c-0.33,0.3 -0.65,0.6 -1.1,0.82c-0.43,0.2 -0.99,0.3 -1.54,0.3c-0.65,0 -1.42,-0.1 -1.97,-0.4c-0.55,-0.3 -1.1,-0.72 -1.32,-1.32c-0.33,-0.6 -0.55,-1.32 -0.55,-2.01c0,-0.72 0.21,-1.42 0.55,-2.13c0.33,-0.6 0.89,-1.12 1.54,-1.42c0.78,-0.3 1.54,-0.5 2.31,-0.5c1.42,-0.1 2.75,0.4 3.61,1.51c0.78,1.32 1.1,2.83 0.99,4.35c0,1.22 -0.11,2.33 -0.43,3.43c-0.33,1.71 -2.08,2.93 -4.06,2.83c-0.78,0 -1.54,-0.1 -2.31,-0.5c-0.55,-0.3 -1.1,-0.72 -1.42,-1.32c-0.33,-0.5 -0.55,-1.12 -0.55,-1.71l2.75,0c0.11,0.82 0.89,1.42 1.76,1.32c-0.11,0 0,0 0,0l-0.01,0l0.01,0l-0.01,0zm0.99,-4.84c0.33,-0.3 0.43,-0.72 0.43,-1.12c0,-0.4 -0.11,-0.92 -0.43,-1.22c-0.33,-0.3 -0.78,-0.4 -1.2,-0.4c-0.43,0 -0.89,0.1 -1.2,0.4c-0.33,0.3 -0.43,0.72 -0.43,1.22c0,0.4 0.11,0.82 0.43,1.12c0.33,0.3 0.78,0.4 1.32,0.4c0.33,0.1 0.78,-0.1 1.1,-0.4l-0.01,0l-0.01,0z" id="svg_158"/>
  <path class="st3" d="m34.33,371.3l0,-8.58l4.28,0c0.43,0 0.89,0.1 1.32,0.2c0.33,0.2 0.78,0.4 0.99,0.72c0.33,0.3 0.55,0.6 0.65,1.02c0.11,0.3 0.21,0.72 0.21,1.12c0,0.3 0,0.6 -0.21,1.02c-0.11,0.3 -0.21,0.6 -0.43,0.82c-0.21,0.3 -0.43,0.5 -0.78,0.72l1.97,3.13l-2.86,0l-1.64,-2.63l-1.1,0l0,2.63l-2.42,-0.1l0.03,-0.04l0,-0.01l0,-0.02l-0.01,0zm2.65,-4.74l1.54,0c0.11,0 0.21,0 0.33,-0.1c0.11,-0.1 0.21,-0.2 0.21,-0.3c0.11,-0.2 0.11,-0.3 0.11,-0.5c0,-0.2 0,-0.3 -0.11,-0.5c-0.11,-0.1 -0.11,-0.2 -0.21,-0.3c-0.11,-0.1 -0.21,-0.1 -0.33,-0.1l-1.54,0l0,1.81l0,-0.02l0,0.01z" id="svg_157"/>
  <path class="st3" d="m34.23,468.65l0,-8.58l4.28,0c0.43,0 0.89,0.1 1.32,0.2c0.33,0.2 0.78,0.4 0.99,0.72c0.33,0.3 0.55,0.6 0.65,1.02c0.11,0.3 0.21,0.72 0.21,1.12c0,0.3 0,0.6 -0.21,1.02c-0.11,0.3 -0.21,0.6 -0.43,0.82c-0.21,0.3 -0.43,0.5 -0.78,0.72l1.97,3.13l-2.86,0l-1.64,-2.63l-1.1,0l0,2.63l-2.42,-0.1l0.03,-0.04l0,-0.01l0,-0.02l-0.01,0zm2.65,-4.64l1.54,0c0.11,0 0.21,0 0.33,-0.1c0.11,-0.1 0.21,-0.2 0.21,-0.3c0.11,-0.2 0.11,-0.3 0.11,-0.5c0,-0.2 0,-0.3 -0.11,-0.5c-0.11,-0.1 -0.11,-0.2 -0.21,-0.3c-0.11,-0.1 -0.21,-0.1 -0.33,-0.1l-1.54,0l0,1.81l0,-0.02l0,0.01z" id="svg_156"/>
  <path class="st3" d="m34.23,517.14l0,-8.58l4.28,0c0.43,0 0.89,0.1 1.32,0.3c0.33,0.2 0.78,0.4 0.99,0.72c0.33,0.3 0.55,0.6 0.65,1.02c0.11,0.3 0.21,0.72 0.21,1.12c0,0.3 -0.11,0.6 -0.21,0.92c-0.11,0.3 -0.21,0.6 -0.43,0.82c-0.21,0.3 -0.43,0.5 -0.78,0.72l1.97,3.13l-2.86,0l-1.64,-2.63l-1.1,0l0,2.63l-2.42,-0.1l0.03,-0.04l0,-0.01l0,-0.02l-0.01,0zm2.65,-4.64l1.54,0c0.11,0 0.21,0 0.33,-0.1c0.11,-0.1 0.21,-0.2 0.21,-0.3c0.11,-0.2 0.11,-0.3 0.11,-0.5c0,-0.2 0,-0.3 -0.11,-0.5c-0.11,-0.1 -0.11,-0.2 -0.21,-0.3c-0.11,-0.1 -0.21,-0.1 -0.33,-0.1l-1.54,0l0,1.81l0,-0.02l0,0.01z" id="svg_155"/>
  <path class="st3" d="m34.46,419.68l0,-8.58l3.61,0c0.89,0 1.76,0.2 2.65,0.6c0.65,0.4 1.2,0.92 1.54,1.51c0.78,1.42 0.78,3.03 0,4.45c-0.33,0.6 -0.99,1.12 -1.64,1.51c-0.78,0.4 -1.64,0.5 -2.53,0.5l-3.61,0l0,0.02l0,-0.01l-0.01,0l-0.01,0zm5.72,-4.35c0,-0.4 -0.11,-0.82 -0.21,-1.22c-0.33,-0.72 -1.1,-1.12 -1.86,-1.02l-0.99,0l0,4.45l0.99,0c0.43,0 0.78,-0.1 1.1,-0.3c0.33,-0.2 0.55,-0.5 0.78,-0.82c0.11,-0.3 0.21,-0.72 0.21,-1.12l0,0l-0.03,0.02l0,0.01l0.01,0z" id="svg_154"/>
  <path class="st3" d="m34.23,565.82l0,-8.68l3.61,0c0.89,0 1.76,0.2 2.65,0.6c0.65,0.4 1.2,0.92 1.54,1.51c0.78,1.42 0.78,3.03 0,4.45c-0.33,0.6 -0.99,1.12 -1.64,1.51c-0.78,0.4 -1.64,0.5 -2.53,0.5l-3.61,0l0,0.1l0,0.02l0,-0.01l-0.01,0l-0.01,0zm5.72,-4.35c0,-0.4 -0.11,-0.82 -0.21,-1.22c-0.33,-0.72 -1.1,-1.12 -1.86,-1.02l-0.99,0l0,4.45l0.99,0c0.43,0 0.78,-0.1 1.1,-0.3c0.33,-0.2 0.55,-0.5 0.78,-0.82c0.11,-0.3 0.21,-0.72 0.21,-1.12l-0.03,0.02l0,0.01l0.01,0z" id="svg_153"/>
  <text fill="#ffffff" font-family="Sans-serif" font-size="4" id="svg_152" stroke-width="0" text-anchor="middle" transform="matrix(2.16411 0 0 1.99092 -1.21959 2.66322)" x="69.12" xml:space="preserve" y="35.07">Overall Balance</text>
  <text fill="#ffffff" font-family="Sans-serif" font-size="6" font-weight="bold" id="svg_151" stroke-width="0" text-anchor="middle" transform="matrix(2.5588 0 0 1.99092 -22.232 2.66322)" x="51.3" xml:space="preserve" y="145">Debit</text>
  <text fill="#ffffff" font-family="Sans-serif" font-size="6" font-weight="bold" id="svg_150" stroke-width="0" text-anchor="middle" transform="matrix(2.5588 0 0 1.99092 -22.232 2.66322)" x="79.12" xml:space="preserve" y="145">Credit</text>
  <text fill="#ffffff" font-family="Sans-serif" font-size="6" font-weight="bold" id="svg_149" stroke-width="0" text-anchor="middle" transform="matrix(2.16411 0 0 1.99092 -1.21959 2.66322)" x="37.59" xml:space="preserve" y="182.66">Food</text>
  <text fill="#b2b2b2" font-family="Helvetica" font-size="4" id="svg_148" stroke-width="0" text-anchor="middle" transform="matrix(1 0 0 1 0 0) matrix(2.16411 0 0 1.99092 -1.21959 2.66322)" x="40.26" xml:space="preserve" y="188.39">Restaurant</text>
  <text fill="#ffffff" font-family="Sans-serif" font-size="6" font-weight="bold" id="svg_147" stroke-width="0" text-anchor="middle" transform="matrix(2.16411 0 0 1.99092 -1.21959 2.66322)" x="37.79" xml:space="preserve" y="207.15">Sales</text>
  <text fill="#b2b2b2" font-family="Helvetica" font-size="4" id="svg_146" stroke-width="0" text-anchor="middle" transform="matrix(1 0 0 1 0 0) matrix(2.16411 0 0 1.99092 -1.21959 2.66322)" x="43.06" xml:space="preserve" y="212.89">Your Bussines</text>
  <text fill="#ffffff" font-family="Sans-serif" font-size="6" font-weight="bold" id="svg_145" stroke-width="0" text-anchor="middle" transform="matrix(2.16411 0 0 1.99092 -1.21959 2.66322)" x="39.03" xml:space="preserve" y="231.69">Boxes</text>
  <text fill="#b2b2b2" font-family="Helvetica" font-size="4" id="svg_144" stroke-width="0" text-anchor="middle" transform="matrix(1 0 0 1 0 0) matrix(2.16411 0 0 1.99092 -1.21959 2.66322)" x="40.46" xml:space="preserve" y="237.15">Boxes shop</text>
  <text fill="#ffffff" font-family="Sans-serif" font-size="6" font-weight="bold" id="svg_143" stroke-width="0" text-anchor="middle" transform="matrix(2.16411 0 0 1.99092 -1.21959 2.66322)" x="56.38" xml:space="preserve" y="255.95">Package Shipment</text>
  <text fill="#b2b2b2" font-family="Helvetica" font-size="4" id="svg_142" stroke-width="0" text-anchor="middle" transform="matrix(1 0 0 1 0 0) matrix(2.16411 0 0 1.99092 -1.21959 2.66322)" x="38.92" xml:space="preserve" y="261.55">Packaging</text>
  <text fill="#ffffff" font-family="Sans-serif" font-size="6" font-weight="bold" id="svg_141" stroke-width="0" text-anchor="middle" transform="matrix(2.16411 0 0 1.99092 -1.21959 2.66322)" x="50.24" xml:space="preserve" y="280.49">Amazon Sales</text>
  <text fill="#b2b2b2" font-family="Helvetica" font-size="4" id="svg_140" stroke-width="0" text-anchor="middle" transform="matrix(1 0 0 1 0 0) matrix(2.16411 0 0 1.99092 -1.21959 2.66322)" x="36.98" xml:space="preserve" y="285.55">Amazon</text>
  <rect fill="url(#svg_1)" height="0" id="svg_2" stroke="#000000" width="0" x="-134.45" y="364"/>
  <g id="svg_4">
   <path d="m244.75,117.94l-187.85,0c-9.43,0 -17.08,4.41 -17.08,9.85l0,108.31c0,5.44 7.65,9.85 17.08,9.85l187.85,0c9.43,0 17.08,-4.41 17.08,-9.85l0,-108.31c0,-5.44 -7.65,-9.85 -17.08,-9.85zm-136.87,116.46l-34.15,0l0,-68.92l34.15,0l0,68.92zm-17.08,-76.31c-11.81,0 -21.35,-5.51 -21.35,-12.31s9.54,-12.31 21.35,-12.31s21.35,5.51 21.35,12.31s-9.54,12.31 -21.35,12.31zm136.62,76.31l-34.15,0l0,-41.85c0,-1.97 -3.44,-5.19 -5.86,-5.97c-3.2,-1.04 -10.77,-1.12 -14.21,-0.17l-14.07,3.9l0,44.08l-34.15,0l0,-68.92l34.15,0l0,3.02c13.51,-3.56 32.28,-3.21 44.99,0.91c13.5,4.36 23.31,14.1 23.31,23.15l0,41.85l0,0.01z" fill="url(#svg_1)" id="svg_209" stroke="#000000" stroke-width="0"/>
   <rect fill="url(#svg_1)" height="121.17" id="svg_3" stroke="#000000" stroke-width="0" width="204.76" x="45.99" y="121.71"/>
  </g>
  <g id="svg_106" transform="matrix(1.25454 0 0 0.999523 -0.871874 0.0264482)">
   <circle class="st4" cx="198" cy="199.27" id="svg_138" r="11.2" transform="matrix(0.875059 0 0 1.01043 -0.277163 2.63803)"/>
   <circle class="st5" cx="214.4" cy="199.27" id="svg_137" r="11.2" transform="matrix(0.875059 0 0 1.01043 -0.277163 2.63803)"/>
   <path class="st3" d="m173.77,227.65l-1.31,0l0,-2.23c0,-0.2 0,-0.3 -0.09,-0.4c-0.09,-0.1 -0.17,-0.1 -0.26,-0.1c-0.09,0 -0.17,0 -0.26,0.1c-0.09,0.1 -0.17,0.1 -0.17,0.2c-0.09,0.1 -0.09,0.2 -0.17,0.3l0,2.23l-1.23,0l0,-3.95l1.13,0l0,0.6c0.09,-0.1 0.17,-0.3 0.34,-0.4c0.17,-0.1 0.26,-0.2 0.44,-0.2c0.17,-0.1 0.34,-0.1 0.52,-0.1c0.17,0 0.34,0 0.52,0.1c0.17,0.1 0.26,0.2 0.34,0.4c0.09,0.1 0.09,0.3 0.17,0.5c0,0.1 0,0.3 0,0.4l0,2.53l0.02,0.02l0.01,0z" id="svg_136"/>
   <path class="st3" d="m174.56,226.23l0,-2.63l1.23,0l0,2.23c0,0.1 0,0.3 0.09,0.4c0.09,0.1 0.17,0.2 0.26,0.1c0.09,0 0.09,0 0.17,0c0.09,0 0.17,-0.1 0.17,-0.1c0.09,-0.1 0.17,-0.1 0.17,-0.2l0,-2.43l1.23,0l0,2.33c0,0.1 0,0.2 0.09,0.3c0.09,0.1 0.09,0.1 0.17,0.1l0,1.22l-0.26,0.1c-0.09,0 -0.17,0 -0.26,0c-0.17,0 -0.34,0 -0.52,-0.1c-0.09,-0.1 -0.17,-0.2 -0.26,-0.4l0,-0.1c-0.17,0.2 -0.34,0.4 -0.62,0.5c-0.26,0.1 -0.52,0.2 -0.79,0.2c-0.26,0 -0.62,-0.1 -0.79,-0.4c0,-0.3 -0.09,-0.72 -0.09,-1.12l0.02,0l-0.01,0z" id="svg_135"/>
   <path class="st3" d="m180.69,227.65c-0.26,0 -0.52,0 -0.79,-0.2c-0.26,-0.1 -0.44,-0.3 -0.62,-0.4c-0.17,-0.2 -0.26,-0.4 -0.34,-0.6c-0.09,-0.2 -0.17,-0.5 -0.09,-0.82c0,-0.4 0.09,-0.72 0.26,-1.02c0.17,-0.3 0.34,-0.6 0.62,-0.72c0.34,-0.2 0.71,-0.3 1.05,-0.3c0.34,0 0.71,0.1 1.05,0.3c0.26,0.2 0.52,0.4 0.62,0.82l-1.23,0.4c-0.09,-0.1 -0.09,-0.2 -0.17,-0.2c-0.09,-0.1 -0.17,-0.1 -0.26,-0.1c-0.26,0 -0.44,0.1 -0.52,0.4c-0.09,0.1 -0.09,0.3 -0.09,0.4c0,0.2 0,0.3 0.09,0.4c0.09,0.1 0.09,0.2 0.17,0.3c0.09,0.1 0.17,0.1 0.34,0.1c0.09,0 0.09,0 0.17,0c0.09,0 0.09,-0.1 0.17,-0.1c0.09,0 0.09,-0.1 0.09,-0.2l1.23,0.4c-0.09,0.2 -0.26,0.4 -0.34,0.6c-0.17,0.2 -0.34,0.3 -0.52,0.4c-0.34,0.1 -0.62,0.1 -0.88,0.1l-0.02,0.04l0.01,0z" id="svg_134"/>
   <path class="st3" d="m183.05,221.98l1.23,0l0,3.95c0,0.1 0,0.2 0.09,0.3c0.09,0.1 0.17,0.1 0.26,0.1l0.17,0c0.09,0 0.09,0 0.17,-0.1l0.17,1.12c-0.17,0.1 -0.34,0.1 -0.52,0.2c-0.17,0 -0.34,0.1 -0.52,0.1c-0.26,0 -0.52,-0.1 -0.79,-0.3c-0.17,-0.2 -0.26,-0.5 -0.26,-0.82l0,-4.54l0.01,0l-0.01,-0.01z" id="svg_133"/>
   <path class="st3" d="m187.26,227.65c-0.26,0 -0.52,0 -0.79,-0.2c-0.26,-0.1 -0.44,-0.2 -0.62,-0.4c-0.17,-0.2 -0.26,-0.4 -0.34,-0.6c-0.09,-0.2 -0.17,-0.5 -0.09,-0.82c0,-0.3 0.09,-0.72 0.17,-1.02c0.17,-0.3 0.34,-0.6 0.62,-0.82c0.34,-0.2 0.71,-0.3 1.05,-0.3c0.34,0 0.71,0.1 1.05,0.3c0.26,0.2 0.52,0.4 0.62,0.72c0.17,0.3 0.17,0.72 0.17,1.02c0,0.1 0,0.2 0,0.2c0,0.1 0,0.1 0,0.2l-2.45,0c0,0.1 0,0.2 0.09,0.3c0.09,0.1 0.17,0.1 0.26,0.2c0.09,0 0.17,0.1 0.26,0.1c0.17,0 0.26,0 0.34,-0.1c0.09,-0.1 0.17,-0.2 0.26,-0.3l1.05,0.3c-0.09,0.2 -0.26,0.4 -0.34,0.6c-0.17,0.2 -0.34,0.3 -0.62,0.4c-0.17,0.2 -0.44,0.2 -0.71,0.2l0.02,0.02l0.02,0l-0.02,0zm-0.62,-2.53l1.13,0c0,-0.1 -0.09,-0.2 -0.09,-0.3c-0.09,-0.1 -0.09,-0.2 -0.17,-0.2c-0.17,-0.1 -0.34,-0.1 -0.52,0c-0.09,0 -0.17,0.1 -0.17,0.2c-0.09,0.1 -0.17,0.2 -0.17,0.3l0,0l-0.02,0l0.01,0z" id="svg_132"/>
   <path class="st3" d="m189.71,226.23l0,-2.63l1.23,0l0,2.23c0,0.1 0,0.3 0.09,0.4c0.09,0.1 0.17,0.2 0.26,0.1c0.09,0 0.17,0 0.17,0c0.09,0 0.17,-0.1 0.17,-0.1c0.09,-0.1 0.17,-0.1 0.17,-0.2l0,-2.43l1.23,0l0,2.33c0,0.1 0,0.2 0.09,0.3c0.09,0.1 0.09,0.1 0.17,0.1l0,1.22l-0.09,0.1c-0.09,0 -0.17,0 -0.26,0c-0.17,0 -0.34,0 -0.52,-0.1c-0.09,-0.1 -0.17,-0.2 -0.26,-0.4l0,-0.1c-0.17,0.2 -0.34,0.4 -0.62,0.5c-0.26,0.1 -0.52,0.2 -0.79,0.2c-0.26,0 -0.62,-0.1 -0.79,-0.4c-0.17,-0.3 -0.26,-0.72 -0.26,-1.12l0.02,0l-0.01,0z" id="svg_131"/>
   <path class="st3" d="m195.55,227.65c-0.26,0 -0.62,-0.1 -0.88,-0.2c-0.26,-0.1 -0.52,-0.3 -0.71,-0.5l0.44,-0.92c0.17,0.1 0.44,0.3 0.62,0.4c0.17,0.1 0.34,0.1 0.52,0.1c0.09,0 0.17,0 0.17,0c0,0 0.09,-0.1 0.09,-0.1c0,0 0,-0.1 -0.09,-0.1c-0.09,0 -0.09,-0.1 -0.17,-0.1l-0.26,-0.1c-0.26,-0.1 -0.44,-0.2 -0.71,-0.3c-0.17,-0.1 -0.26,-0.2 -0.44,-0.3c-0.09,-0.2 -0.17,-0.4 -0.09,-0.6c0,-0.2 0.09,-0.5 0.17,-0.72c0.09,-0.2 0.34,-0.4 0.52,-0.5c0.26,-0.1 0.52,-0.2 0.79,-0.2c0.26,0 0.44,0 0.71,0.1c0.26,0.1 0.52,0.2 0.71,0.4l-0.52,0.92c-0.17,-0.1 -0.34,-0.2 -0.52,-0.3c-0.09,-0.1 -0.26,-0.1 -0.44,-0.1l-0.17,0c0,0 -0.09,0 -0.09,0.1c0,0 0,0.1 0,0.1c0,0 0,0.1 0.09,0.1c0,0 0.09,0.1 0.17,0.1l0.26,0.1c0.26,0.1 0.52,0.2 0.71,0.3c0.17,0.1 0.26,0.2 0.44,0.4c0.09,0.2 0.17,0.4 0.09,0.6c0,0.4 -0.09,0.82 -0.34,1.02c-0.26,0.2 -0.62,0.3 -1.05,0.3l-0.02,0l-0.01,0l0.01,0z" id="svg_130"/>
   <path class="st3" d="m43.65,160.04l0,-0.82l1.48,0l0,6.67l-0.71,0l0,-5.86l-0.79,0l0.02,0l0,0.01z" id="svg_129"/>
   <path class="st3" d="m46.63,164.39l0,-0.6l2.8,-4.45l0.88,0l0,4.35l0.79,0l0,0.72l-0.79,0l0,1.51l-0.71,0l0,-1.51l-2.97,0l0,-0.02zm2.97,-4.15l-2.11,3.43l2.11,0l0,-3.43z" id="svg_128"/>
   <path class="st3" d="m55.81,159.94l-2.19,5.96l-0.71,0l2.28,-5.86l-3.07,0l0,-0.72l3.68,0l0,0.6l0.02,0.02l-0.01,0z" id="svg_127"/>
   <path class="st3" d="m57.48,161.85c-0.17,-0.3 -0.26,-0.6 -0.26,-0.92c0,-0.72 0.34,-1.32 0.88,-1.51c0.62,-0.3 1.4,-0.3 2.02,0c0.26,0.1 0.52,0.3 0.62,0.6c0.17,0.3 0.26,0.6 0.17,0.92c0,0.3 -0.09,0.6 -0.26,0.92c-0.17,0.3 -0.44,0.5 -0.71,0.6c0.34,0.1 0.62,0.3 0.79,0.6c0.17,0.3 0.26,0.6 0.26,1.02c0,0.4 -0.09,0.72 -0.26,1.02c-0.17,0.3 -0.44,0.5 -0.71,0.72c-0.34,0.2 -0.71,0.2 -1.05,0.2c-0.34,0 -0.71,-0.1 -1.05,-0.2c-0.26,-0.1 -0.52,-0.4 -0.71,-0.72c-0.17,-0.3 -0.26,-0.6 -0.26,-1.02c0,-0.4 0.09,-0.72 0.26,-1.02c0.17,-0.3 0.44,-0.5 0.79,-0.6c-0.09,-0.1 -0.34,-0.3 -0.52,-0.6l-0.02,0l-0.01,0l0.03,-0.01zm0.62,1.32c-0.26,0.2 -0.44,0.6 -0.34,0.92c0,0.4 0.09,0.72 0.34,0.92c0.26,0.2 0.62,0.4 0.96,0.4c0.34,0 0.71,-0.1 0.96,-0.4c0.26,-0.2 0.34,-0.6 0.34,-0.92c0,-0.4 -0.09,-0.72 -0.34,-0.92c-0.26,-0.2 -0.62,-0.3 -0.96,-0.3c-0.26,0 -0.62,0.1 -0.96,0.3zm1.84,-3.03c-0.26,-0.2 -0.52,-0.3 -0.88,-0.3c-0.34,0 -0.62,0.1 -0.88,0.3c-0.26,0.2 -0.34,0.5 -0.34,0.92c0,0.3 0.09,0.6 0.34,0.82c0.52,0.4 1.23,0.4 1.74,0c0.17,-0.2 0.34,-0.5 0.34,-0.82c0,-0.3 -0.09,-0.6 -0.34,-0.92l0.02,0z" id="svg_126"/>
   <path class="st3" d="m66.58,163.69c0.34,-0.4 0.71,-0.82 0.96,-1.22c0.26,-0.4 0.34,-0.82 0.34,-1.32c0,-0.3 -0.09,-0.72 -0.26,-0.92c-0.17,-0.2 -0.52,-0.4 -0.79,-0.3c-0.34,0 -0.62,0.1 -0.88,0.4c-0.17,0.3 -0.34,0.6 -0.34,1.02l-0.71,0c0,-0.6 0.17,-1.12 0.52,-1.61c0.34,-0.4 0.79,-0.6 1.31,-0.6c0.44,0 0.96,0.2 1.31,0.5c0.34,0.4 0.52,0.92 0.52,1.42c0,0.5 -0.17,1.02 -0.34,1.51c-0.26,0.5 -0.52,0.92 -0.88,1.22c-0.34,0.4 -0.79,0.82 -1.31,1.32l2.7,0l0,0.72l-3.76,0l0,-0.6c0.71,-0.6 1.23,-1.12 1.57,-1.51l0.03,-0.02l-0.01,0l0.02,-0.01z" id="svg_125"/>
   <path class="st3" d="m71.64,163.69c0.34,-0.4 0.71,-0.82 0.96,-1.22c0.26,-0.4 0.34,-0.82 0.34,-1.32c0,-0.3 -0.09,-0.72 -0.26,-0.92c-0.17,-0.2 -0.52,-0.4 -0.79,-0.3c-0.34,0 -0.62,0.1 -0.79,0.4c-0.17,0.3 -0.34,0.6 -0.34,1.02l-0.71,0c0,-0.6 0.17,-1.12 0.52,-1.61c0.79,-0.72 1.84,-0.72 2.62,0c0.34,0.4 0.52,0.92 0.52,1.42c0,0.5 -0.17,1.02 -0.34,1.51c-0.26,0.5 -0.52,0.92 -0.88,1.22c-0.34,0.4 -0.79,0.82 -1.31,1.32l2.7,0l0,0.72l-3.85,0l0,-0.6c0.71,-0.72 1.23,-1.22 1.57,-1.61l0.03,-0.02l0.01,-0.01z" id="svg_124"/>
   <path class="st3" d="m78.82,160.04l-2.8,0l0,2.13c0.17,-0.2 0.34,-0.4 0.52,-0.5c0.26,-0.1 0.52,-0.2 0.79,-0.2c0.34,0 0.79,0.1 1.05,0.3c0.26,0.2 0.44,0.5 0.62,0.82c0.09,0.3 0.17,0.72 0.17,1.02c0,0.4 -0.09,0.82 -0.17,1.22c-0.17,0.3 -0.34,0.6 -0.71,0.82c-0.34,0.2 -0.71,0.3 -1.05,0.3c-0.52,0 -0.96,-0.1 -1.31,-0.5c-0.34,-0.3 -0.52,-0.82 -0.62,-1.32l0.71,0c0.09,0.3 0.17,0.6 0.44,0.82c0.26,0.2 0.52,0.3 0.88,0.3c0.34,0 0.71,-0.1 0.96,-0.4c0.26,-0.3 0.34,-0.72 0.34,-1.12c0,-0.4 -0.09,-0.82 -0.34,-1.12c-0.26,-0.3 -0.62,-0.4 -0.96,-0.4c-0.26,0 -0.52,0.1 -0.71,0.2c-0.17,0.1 -0.34,0.4 -0.44,0.6l-0.79,0l0,-3.75l3.5,0l0,0.82l-0.09,0l0,-0.04l0.01,0z" id="svg_123"/>
   <path class="st3" d="m84.26,160.04l-2.8,0l0,2.13c0.17,-0.2 0.34,-0.4 0.52,-0.5c0.26,-0.1 0.52,-0.2 0.79,-0.2c0.34,0 0.79,0.1 1.05,0.3c0.26,0.2 0.44,0.5 0.62,0.82c0.09,0.3 0.17,0.72 0.17,1.02c0,0.4 -0.09,0.82 -0.17,1.22c-0.17,0.3 -0.34,0.6 -0.71,0.82c-0.34,0.2 -0.71,0.3 -1.05,0.3c-0.52,0 -0.96,-0.1 -1.31,-0.5c-0.34,-0.3 -0.62,-0.82 -0.62,-1.32l0.71,0c0.09,0.3 0.17,0.6 0.44,0.82c0.26,0.2 0.52,0.3 0.88,0.3c0.34,0 0.71,-0.1 0.96,-0.4c0.26,-0.3 0.34,-0.72 0.34,-1.12c0,-0.4 -0.09,-0.82 -0.34,-1.12c-0.26,-0.3 -0.62,-0.4 -0.96,-0.4c-0.26,0 -0.52,0.1 -0.71,0.2c-0.17,0.1 -0.34,0.4 -0.44,0.6l-0.71,0l0,-3.75l3.41,0l-0.09,0.82l0,-0.04l0.01,0l0.01,0z" id="svg_122"/>
   <path class="st3" d="m88.44,164.39l0,-0.6l2.8,-4.45l0.88,0l0,4.35l0.79,0l0,0.72l-0.79,0l0,1.51l-0.71,0l0,-1.51l-2.97,0l0,-0.02zm2.97,-4.15l-2.11,3.43l2.11,0l0,-3.43z" id="svg_121"/>
   <path class="st3" d="m97.81,160.04l-2.8,0l0,2.13c0.17,-0.2 0.34,-0.4 0.52,-0.5c0.26,-0.1 0.52,-0.2 0.79,-0.2c0.34,0 0.79,0.1 1.05,0.3c0.26,0.2 0.44,0.5 0.62,0.82c0.09,0.3 0.17,0.72 0.17,1.02c0,0.4 -0.09,0.82 -0.17,1.22c-0.17,0.3 -0.34,0.6 -0.71,0.82c-0.34,0.2 -0.71,0.3 -1.05,0.3c-0.52,0 -0.96,-0.1 -1.31,-0.5c-0.34,-0.3 -0.62,-0.82 -0.62,-1.32l0.71,0c0.09,0.3 0.17,0.6 0.44,0.82c0.26,0.2 0.52,0.3 0.88,0.3c0.34,0 0.71,-0.1 0.96,-0.4c0.26,-0.3 0.34,-0.72 0.34,-1.12c0,-0.4 -0.09,-0.82 -0.34,-1.12c-0.26,-0.3 -0.62,-0.4 -0.96,-0.4c-0.26,0 -0.52,0.1 -0.71,0.2c-0.17,0.1 -0.34,0.4 -0.44,0.6l-0.71,0l0,-3.75l3.41,0l-0.09,0.82l0,-0.04l0.01,0l0.01,0z" id="svg_120"/>
   <path class="st3" d="m100.89,164.99c0.26,0.2 0.52,0.3 0.79,0.3c0.44,0 0.79,-0.2 0.96,-0.6c0.26,-0.6 0.34,-1.32 0.26,-2.01c-0.09,0.3 -0.34,0.5 -0.52,0.6c-0.26,0.2 -0.62,0.2 -0.88,0.2c-0.34,0 -0.62,-0.1 -0.96,-0.2c-0.26,-0.2 -0.52,-0.4 -0.71,-0.72c-0.17,-0.4 -0.26,-0.82 -0.26,-1.22c0,-0.6 0.17,-1.12 0.52,-1.61c0.34,-0.4 0.88,-0.6 1.4,-0.6c0.62,-0.1 1.23,0.2 1.57,0.82c0.34,0.82 0.52,1.61 0.44,2.43c0,0.6 -0.09,1.32 -0.17,1.91c-0.09,0.4 -0.26,0.82 -0.62,1.12c-0.34,0.3 -0.71,0.4 -1.13,0.4c-0.44,0 -0.88,-0.1 -1.23,-0.5c-0.26,-0.3 -0.52,-0.82 -0.52,-1.32l0.71,0c0,0.5 0.17,0.82 0.34,1.02l0.02,-0.02l-0.01,0zm1.57,-2.53c0.26,-0.3 0.34,-0.6 0.34,-1.02c0,-0.4 -0.09,-0.82 -0.34,-1.12c-0.26,-0.3 -0.62,-0.4 -0.96,-0.4c-0.34,0 -0.62,0.1 -0.88,0.4c-0.44,0.6 -0.44,1.51 0,2.13c0.62,0.5 1.4,0.5 1.84,0l0,0l0,0.01z" id="svg_119"/>
   <path class="st3" d="m108.66,160.04l-2.8,0l0,2.13c0.17,-0.2 0.34,-0.4 0.52,-0.5c0.26,-0.1 0.52,-0.2 0.79,-0.2c0.34,0 0.79,0.1 1.05,0.3c0.26,0.2 0.44,0.5 0.62,0.82c0.09,0.3 0.17,0.72 0.17,1.02c0,0.4 -0.09,0.82 -0.17,1.22c-0.17,0.3 -0.34,0.6 -0.71,0.82c-0.34,0.2 -0.71,0.3 -1.05,0.3c-0.52,0 -0.96,-0.1 -1.31,-0.5c-0.34,-0.3 -0.52,-0.82 -0.62,-1.32l0.71,0c0.09,0.3 0.17,0.6 0.44,0.82c0.26,0.2 0.52,0.3 0.88,0.3c0.34,0 0.71,-0.1 0.96,-0.4c0.26,-0.3 0.34,-0.72 0.34,-1.12c0,-0.4 -0.09,-0.82 -0.34,-1.12c-0.26,-0.3 -0.62,-0.4 -0.96,-0.4c-0.26,0 -0.52,0.1 -0.71,0.2c-0.17,0.1 -0.34,0.4 -0.44,0.6l-0.71,0l0,-3.75l3.41,0l-0.09,0.82l0,-0.04l0.01,0l0.01,0z" id="svg_118"/>
   <path class="st3" d="m114.36,164.99c0.26,0.2 0.52,0.3 0.79,0.3c0.44,0 0.79,-0.2 0.96,-0.6c0.26,-0.6 0.34,-1.32 0.26,-2.01c-0.09,0.3 -0.34,0.5 -0.52,0.6c-0.26,0.2 -0.62,0.2 -0.88,0.2c-0.34,0 -0.71,-0.1 -0.96,-0.2c-0.26,-0.2 -0.52,-0.4 -0.62,-0.72c-0.17,-0.4 -0.26,-0.82 -0.26,-1.22c0,-0.6 0.17,-1.12 0.52,-1.61c0.34,-0.4 0.88,-0.6 1.4,-0.6c0.62,-0.1 1.23,0.2 1.57,0.82c0.34,0.82 0.52,1.61 0.44,2.43c0,0.6 -0.09,1.32 -0.17,1.91c-0.09,0.4 -0.26,0.82 -0.62,1.12c-0.34,0.3 -0.79,0.4 -1.13,0.4c-0.44,0 -0.88,-0.1 -1.23,-0.5c-0.26,-0.3 -0.52,-0.82 -0.52,-1.32l0.71,0c-0.09,0.5 0.09,0.82 0.26,1.02l0.02,-0.02l-0.02,0zm1.66,-2.53c0.26,-0.3 0.34,-0.6 0.34,-1.02c0,-0.4 -0.09,-0.82 -0.34,-1.12c-0.26,-0.3 -0.62,-0.4 -0.96,-0.4c-0.34,0 -0.62,0.1 -0.88,0.4c-0.17,0.3 -0.34,0.6 -0.34,1.02c0,0.4 0.09,0.82 0.34,1.12c0.26,0.3 0.62,0.4 0.96,0.4c0.34,-0.1 0.62,-0.2 0.88,-0.4l0,0z" id="svg_117"/>
   <path class="st3" d="m118.91,161.85c-0.17,-0.3 -0.26,-0.6 -0.26,-0.92c0,-0.3 0.09,-0.6 0.17,-0.92c0.17,-0.3 0.34,-0.5 0.62,-0.6c0.62,-0.3 1.4,-0.3 2.02,0c0.26,0.1 0.52,0.3 0.62,0.6c0.17,0.3 0.26,0.6 0.17,0.92c0,0.3 -0.09,0.72 -0.26,0.92c-0.17,0.3 -0.44,0.5 -0.71,0.6c0.34,0.1 0.62,0.3 0.79,0.6c0.17,0.3 0.26,0.6 0.26,1.02c0,0.4 -0.09,0.72 -0.26,1.02c-0.17,0.3 -0.44,0.5 -0.71,0.72c-0.34,0.2 -0.71,0.2 -1.05,0.2c-0.34,0 -0.71,-0.1 -1.05,-0.2c-0.26,-0.1 -0.52,-0.4 -0.71,-0.72c-0.17,-0.3 -0.26,-0.6 -0.26,-1.02c0,-0.4 0.09,-0.72 0.26,-1.02c0.17,-0.3 0.44,-0.5 0.79,-0.6c0,-0.1 -0.26,-0.3 -0.44,-0.6l-0.02,0l-0.01,0l0.04,0zm0.71,1.32c-0.26,0.2 -0.34,0.6 -0.34,0.92c0,0.4 0.09,0.72 0.34,0.92c0.62,0.5 1.31,0.5 1.93,0c0.26,-0.2 0.34,-0.6 0.34,-0.92c0,-0.4 -0.09,-0.72 -0.34,-0.92c-0.26,-0.2 -0.62,-0.3 -0.96,-0.3c-0.34,0 -0.71,0.1 -0.96,0.3l-0.01,0zm1.84,-3.03c-0.52,-0.4 -1.23,-0.4 -1.74,0c-0.17,0.2 -0.34,0.5 -0.34,0.92c0,0.3 0.09,0.6 0.34,0.82c0.26,0.2 0.52,0.3 0.88,0.3c0.34,0 0.62,-0.1 0.88,-0.3c0.44,-0.4 0.44,-1.12 0.09,-1.61c0,0 -0.09,0 -0.09,-0.1l0,0l-0.02,-0.02l0,-0.01z" id="svg_116"/>
   <path class="st3" d="m127.57,159.94l-2.19,5.96l-0.71,0l2.28,-5.86l-3.07,0l0,-0.72l3.76,0l-0.09,0.6l0.02,0.02z" id="svg_115"/>
   <path class="st3" d="m128.62,164.39l0,-0.6l2.8,-4.45l0.88,0l0,4.35l0.79,0l0,0.72l-0.79,0l0,1.51l-0.71,0l0,-1.51l-2.97,0l0,-0.02zm2.97,-4.15l-2.11,3.43l2.11,0l0,-3.43z" id="svg_114"/>
   <path class="st3" d="m180.17,134.58l0,-0.5l1.13,0l0,5.46l-0.44,0l0,-4.96l-0.71,0l0.01,0l0.01,0z" id="svg_113"/>
   <path class="st3" d="m184.27,137.32c0.34,-0.4 0.62,-1.02 0.71,-1.61c0,-0.3 -0.09,-0.6 -0.26,-0.82c-0.17,-0.2 -0.44,-0.3 -0.79,-0.3c-0.26,0 -0.62,0.1 -0.79,0.4c-0.17,0.3 -0.26,0.6 -0.34,0.92l-0.44,0c0,-0.5 0.17,-1.02 0.44,-1.32c0.62,-0.6 1.48,-0.6 2.11,-0.1c0.26,0.3 0.44,0.72 0.44,1.22c0,0.72 -0.26,1.32 -0.71,1.81c-0.52,0.6 -1.05,1.22 -1.66,1.71l2.45,0l0,0.4l-3.16,0l0,-0.4c0.79,-0.6 1.4,-1.32 2.02,-1.91l-0.02,0z" id="svg_112"/>
   <path class="st3" d="m188.66,132.45l-1.84,8.38l-0.44,0l1.84,-8.38l0.44,0z" id="svg_111"/>
   <path class="st3" d="m191.36,137.32c0.44,-0.4 0.62,-1.02 0.71,-1.61c0,-0.3 -0.09,-0.6 -0.26,-0.82c-0.17,-0.2 -0.44,-0.3 -0.79,-0.3c-0.26,0 -0.62,0.1 -0.79,0.4c-0.17,0.3 -0.26,0.6 -0.34,0.92l-0.44,0c0,-0.5 0.17,-1.02 0.44,-1.32c0.62,-0.6 1.48,-0.6 2.11,-0.1c0.26,0.3 0.44,0.72 0.44,1.22c0,0.72 -0.26,1.32 -0.71,1.81c-0.52,0.6 -1.05,1.22 -1.66,1.71l2.45,0l0,0.4l-3.16,0l0,-0.4c0.79,-0.6 1.4,-1.32 2.02,-1.91l-0.02,0z" id="svg_110"/>
   <path class="st3" d="m193.38,138.31l0,-0.4l2.36,-3.75l0.52,0l0,3.65l0.71,0l0,0.5l-0.71,0l0,1.32l-0.44,0l0,-1.32l-2.45,0l0.01,0zm2.45,-3.55l-2.02,3.13l2.02,0l0,-3.13z" id="svg_109"/>
   <text fill="#ffffff" font-family="Courier" font-size="5" font-weight="normal" id="svg_108" letter-spacing="0" stroke-width="0" text-anchor="middle" textLength="0" transform="matrix(1.72502 0 0 1.99187 -253.757 -131.426)" word-spacing="0" x="180" xml:space="preserve" y="174.69">Owner</text>
   <text fill="#ffffff" font-family="Sans-serif" font-size="5" font-weight="bold" id="svg_107" stroke-width="0" text-anchor="middle" transform="matrix(1.72502 0 0 1.99187 -253.757 -131.426)" x="183.84" xml:space="preserve" y="181.29">Robert Jr</text>
  </g>
 </g>
</svg>